<svg width="830" height="280" viewBox="0 0 830 280" fill="none" xmlns="http://www.w3.org/2000/svg">
<path d="M327.9 56.1H361.4V190H394.9V22.6H361.4C343 22.6 327.9 37.6 327.9 56.1Z" fill="black"/>
<path d="M428.3 189.9H461.8V123C461.8 104.6 446.7 89.5 428.3 89.5V189.9Z" fill="black"/>
<path d="M495.3 89.5V189.9H528.8V123H562.3V156.5C562.3 174.9 577.4 190 595.8 190V123C595.8 104.6 580.7 89.5 562.3 89.5H495.3Z" fill="black"/>
<path d="M796.5 89.5H763V56C763 37.6 747.9 22.5 729.5 22.5V156.4H662.6V123H696.1V89.5H662.6C644.2 89.5 629.1 104.6 629.1 123V156.5C629.1 174.9 644.2 190 662.6 190H763V123H796.5V156.5C796.5 174.9 811.6 190 830 190V123C830 104.6 814.9 89.5 796.5 89.5Z" fill="black"/>
<path d="M428.3 56.1H461.8C461.8 37.7 446.7 22.6 428.3 22.6V56.1Z" fill="black"/>
<path d="M375.2 246.5H361.3V223.8H374.8V227.5H365.4V233.1H373.8V236.8H365.4V242.7H375.2V246.5Z" fill="#2F7AEA"/>
<path d="M436.1 223.8H440.9L433 234.9L441.2 246.5H436.4L430.3 238L424.3 246.5H419.5L427.7 234.9L419.9 223.8H424.7L430.4 232L436.1 223.8Z" fill="#2F7AEA"/>
<path d="M501.5 241.3L503.1 244.3C502.4 245.1 501.3 245.7 499.9 246.1C498.5 246.6 497.1 246.8 495.6 246.8C492 246.8 489.1 245.7 486.9 243.6C484.7 241.5 483.6 238.6 483.6 235.1C483.6 231.7 484.7 228.9 486.8 226.7C488.9 224.5 491.8 223.4 495.6 223.4C498.6 223.4 501 224.2 502.7 225.7L500.9 228.7C499.3 227.7 497.6 227.2 495.6 227.2C493.4 227.2 491.5 227.9 490.1 229.4C488.7 230.8 488 232.8 488 235.2C488 237.6 488.7 239.5 490.2 241C491.7 242.5 493.7 243.2 496 243.2C498 243.1 499.9 242.5 501.5 241.3Z" fill="#2F7AEA"/>
<path d="M567.9 246.5H563.8V236.8H553.1V246.5H549V223.8H553.1V233.1H563.8V223.8H567.9V246.5Z" fill="#2F7AEA"/>
<path d="M617.3 246.5H613.2L623.1 223.7H626.7L636.6 246.5H632.2L629.8 240.7H619.8L617.3 246.5ZM628.1 237L624.7 228.9L621.3 237H628.1Z" fill="#2F7AEA"/>
<path d="M701.8 223.8V246.5H698.5L685.6 230.8V246.5H681.8V223.8H685.1L698 239.6V223.8H701.8Z" fill="#2F7AEA"/>
<path d="M765.4 238H759.7V234.3H769.2V243.7C768.2 244.7 766.9 245.5 765.2 246C763.5 246.6 761.9 246.8 760.5 246.8C756.7 246.8 753.7 245.7 751.5 243.6C749.3 241.5 748.3 238.7 748.3 235.1C748.3 231.8 749.4 229 751.5 226.8C753.6 224.6 756.5 223.4 760 223.4C763 223.4 765.5 224.2 767.5 225.7L765.8 228.9C765.2 228.4 764.4 227.9 763.5 227.6C762.5 227.3 761.6 227.1 760.5 227.1C758.2 227.1 756.3 227.8 754.8 229.2C753.4 230.6 752.6 232.6 752.6 235C752.6 237.4 753.3 239.3 754.8 240.8C756.2 242.2 758.1 243 760.6 243C761.4 243 762.4 242.8 763.3 242.5C764.3 242.2 765 241.8 765.4 241.4V238Z" fill="#2F7AEA"/>
<path d="M830 246.5H816.1V223.8H829.6V227.5H820.2V233.1H828.6V236.8H820.2V242.7H830V246.5Z" fill="#2F7AEA"/>
<path d="M70.9 154L78.7 95.2001L10.8 48.0001L72.8 69.0001L87.4 46.5001L140.9 13.3L258.8 78.2001L264.9 177.3L212.4 250.3L170.9 256.6L192.4 217.3V179.5L176.8 150L160.9 139.5L136.5 164.6V191.2L117.5 209L93.3 211.9L82.6001 218L65 212.4L57.7 186L70.9 167.5V154Z" fill="white"/>
<path d="M179.2 47.6001C166.3 44.9001 152.1 45.6001 152.1 45.6001C152.1 45.6001 147.5 67.1001 118.7 72.7001C118.9 72.7001 156.8 85.6001 179.2 47.6001Z" fill="#94A6C3"/>
<path d="M190.9 242.3C206.5 230.1 218.2 213.3 223.6 194.2C223.8 193.5 226 192.2 227.5 191.3C229.9 189.8 232.4 188.6 232.9 186.7C233.9 181.1 234.4 175.2 234.4 169.4C234.4 167.2 232.2 165 230 162.8C228.3 161.3 226.6 159.6 226.6 158.4C224.2 136.2 213.9 115.4 197.6 100.3L195.9 102C211.8 116.9 222 137.1 224.2 158.6C224.4 160.6 226.4 162.5 228.3 164.5C230 166 232 168.2 232 169.1C232 174.7 231.5 180.3 230.5 185.9C230.3 186.9 228.1 187.9 226.4 188.8C224 190 221.8 191.2 221.3 193.2C215.4 213.9 202 232 184.2 243.7C187.4 236.9 197.4 214.7 202.7 203.4L201.7 167.3L170.7 137.3L153.1 139.7L133.8 170.9C133.8 170.9 142.8 182.4 130.1 195.8C117.7 209 107.9 211.9 107.9 211.9L98.9 207C101.6 203.6 107 198.5 111.1 195C118.2 189.1 125.3 188.7 125.3 182.3C125.5 169.1 111.4 172.8 111.4 172.8L106.3 177.7L104.1 195.8L93.4 209.2L92.2 209L74.6 205.1C74.6 205.1 85.3 199.5 87 193.1C88.7 187 83.6 166.7 83.3 165.5C83.5 165.7 88.4 169.9 90.6 176.7C94.5 166 99.6 155.7 101.1 154.7C102.6 153.7 122.3 143.2 122.3 143.2L115.7 160.5L120.6 157.8L132.3 129C132.3 129 143.8 123.4 152.3 123.4C167.7 123.2 190.4 104.4 180.1 70.7C183 71.9 233.8 97.2999 242.6 147.1C249.3 185.7 227.6 221.6 190.9 242.3Z" fill="#94A6C3"/>
<path d="M132.9 52.9C138.5 46.3 136.3 36.5 136.3 36.5L119.9 60.7C119.7 60.7 125.8 61 132.9 52.9Z" fill="#1B314F"/>
<path d="M77.9 185L79.9 175.2C79.9 175.2 71.8 189.4 71.1 191.3C70.4 193.5 71.6 197.4 74.8 197.2C78 197 81.9 192.3 81.9 188.9C81.8 184.5 77.9 185 77.9 185Z" fill="#1B314F"/>
<path d="M222.9 29.7C222.9 29.7 235.1 30.2 247.8 31.7C219.2 9.2 192.2 2.69998 170.2 2.69998C139.9 2.69998 119.4 15.1 118.2 15.9L127.7 0.799987C127.7 0.799987 89.6 -2.90002 76.2 37.4C72.8 28.9 69.6001 16.4 69.6001 16.4C69.6001 16.4 49.8001 33.7 59.1001 62.5C36.4001 54.2 3.90004 42.7 2.70004 42.5C1.00004 42.3 0.500044 43 0.500044 43C0.500044 43 4.39882e-05 43.7 1.50004 45C4.20004 47.2 55.4 85 66.7 92.4C64.3 101.2 64.3 105.3 66.7 109.5C70.1 115.1 70.4 118 69.9 122.2C69.4 126.3 65 162.2 64 166.6C63 171 52.8 186.6 53.3 191.3C53.8 195.9 60.1 215.7 65.7 217.9C69.8 219.4 80.1 222.5 86.9 222.5C89.3 222.5 91.5 222 92.5 221C96.6 217.3 97.9 216.6 100.8 216.6C101 216.6 101.3 216.6 101.5 216.6C102.7 216.6 104.2 216.8 105.9 216.8C109.8 216.8 114.9 216.1 118.6 212.7C124 207.3 133.2 200 136.2 196.6C139.9 192 141.8 185.6 140.8 179.3C140.1 173.4 143.2 168.3 146.9 163.2C151.5 157.1 160.1 146.1 160.1 146.1C176.9 158.8 187.4 178.1 187.4 199.6C187.4 237.7 154.2 268.4 113.2 268.4C106.9 268.4 100.8 267.7 94.7 266.2C113.5 272.8 129.4 275 142.3 275C169.9 275 184.5 265 184.5 265C184.5 265 179.4 271.6 171.1 279.2C171.3 279.2 171.3 279.2 171.3 279.2C216.9 272.9 239.2 235.3 239.2 235.3C239.2 235.3 237.5 247.5 235.3 255.8C296.1 210.2 285.8 153 285.6 151.1C286.1 151.8 292.2 159.2 295.4 163.1C305.2 62.2 222.9 29.7 222.9 29.7ZM129.4 190.3C128.4 191.5 124.3 195.2 121.3 197.9C118.4 200.6 115.2 203.3 112.8 205.7C111.8 206.7 109.9 207.2 106.9 207.2C105.9 207.2 104.9 207.2 104.2 207.2C103.7 207.2 103.2 207.2 102.7 207.2C102.2 207.2 102 207.2 101.7 207.2C101 207.2 100.2 207.2 99.5 207.2C103.2 202.3 113.9 191.1 117.6 188.7C122 185.8 124.2 182.8 121.5 177.7C118.8 172.6 111.7 173.8 111.7 173.8C111.7 173.8 115.8 172.1 119.5 172.1C114.9 170.9 109 172.1 106.3 174.8C103.4 177.5 103.9 187 102.6 193.1C101.4 199.4 97.2 202.6 90.9 208.5C87.5 211.7 85.0001 212.6 83.1001 212.6C79.0001 211.9 74.1 210.6 70.7 209.4C68.3 206.2 64.6001 195.7 63.6001 191.3C64.3001 188.9 67.3 183.7 68.7 180.8C71.6 175.2 73.3 172 73.8 169.1C74.8 165 77.9 139.3 79.2 128.6C82.4 132.7 86.8 139.6 85.8 144C92.9 134 87.8 124.2 85.3 120.3C83.1 116.4 80.2001 108.6 82.6001 100.3C85.0001 92 93.8 69.1 93.8 69.1C93.8 69.1 96.7 74.2 100.9 73.2C105 72.2 138.5 21.9 138.5 21.9C138.5 21.9 147.5 41.7 138 56.1C128.2 70.5 118.7 73.2 118.7 73.2C118.7 73.2 132.1 75.6 144.6 66.6C149.7 78.6 154.6 91 154.9 92.7C154.2 94.4 144.4 117.8 143.4 119.3C142.9 119.8 139.5 120.8 137.1 121.3C133 122.5 130.5 123.3 129.5 124C127.8 125.5 120 146.9 116.3 157.4C111.9 158.6 107.5 161.1 104.3 165.9C106 164.7 111.4 163.9 115.3 163.5C118.7 163.3 129.2 168.9 131.9 179.4C131.9 179.6 131.9 179.6 131.9 179.9C132.6 183.8 131.4 187.4 129.4 190.3ZM106.5 193.3C108.7 190.1 108.5 184.8 108.7 183C108.9 181.3 109.4 178.1 111.4 177.6C113.4 177.1 118 177.8 118 181.3C118 184.5 114.6 185.2 112.1 187.4C110.4 189.1 107 192.8 106.5 193.3ZM203.9 146.7C206.3 134.3 206.6 123.5 205.9 114.7C215.4 127.4 221.3 142.8 223 158.6C223.2 160.6 225.2 162.5 227.1 164.5C228.8 166 230.8 167.9 230.8 169.1C230.8 174.7 230.3 180.3 229.3 185.9C229.1 186.6 226.9 187.9 225.2 188.8C222.8 190 220.6 191.2 220.1 193.2C214.7 212 203.3 228.6 187.9 240.3C210.5 216.7 221.5 177.7 203.9 146.7ZM188.5 242.6C204.4 230.4 216.6 213.3 221.9 194C222.1 193.3 224.3 192 225.8 191.1C228.2 189.9 230.7 188.4 231.2 186.5C232.2 180.9 232.7 175 232.7 169.2C232.7 167 230.5 164.8 228.3 162.6C227.1 161.1 225.1 159.4 225.1 158.2C223.1 140.4 216.1 123.5 205.1 109.6C200.2 80.3 180.7 71.3 180.2 71C180.7 71.7 193.4 90 184.6 111.5C175.6 133.2 152.4 129.8 150.4 130C148.4 130 140.9 139.8 131.4 157.8C130.2 157.3 125.1 156.1 119.2 157.1C123.6 144.9 130.2 127.6 131.4 126.1C131.9 125.6 135.5 124.6 138 123.9C142.6 122.7 144.8 121.9 145.6 121C146.1 120.3 148.5 114.7 151 108.8C153.2 108.8 158.8 108.3 159.3 108.1C159.8 107.6 164.4 95.7 164.4 94.2C164.4 93 154.9 69.3 151.2 60.3C152.9 58.3 154.6 55.9 156.3 53.2C206.3 58.6 245.4 101 245.4 152.5C245.4 192.1 222.2 226.5 188.5 242.6Z" fill="#1B314F"/>
<path d="M123.6 110.8C128.2 105.4 125.8 95.4001 117.3 93.7001C119.5 88.6001 122.7 78.3 122.7 78.3C122.7 78.3 97.8 117.4 95.6 118.1C93.4 118.8 91.2 110.3 91.2 110.3C86.6 128.1 99 130.6 100.5 124.9C107.2 123.2 118.9 115.9 123.6 110.8Z" fill="#1B314F"/>
<path d="M102.4 120.3L115.1 98.6C115.1 98.6 122.4 102.3 118.8 108.1C114.1 114.9 102.4 120.3 102.4 120.3Z" fill="#FFD923"/>
<path d="M259.3 220.9C255.6 225.8 251.5 230.9 246.6 235.8C278.1 175.3 248.1 119.9 246.8 117.7C249 119.9 251.2 122.3 253.1 124.5C277.4 151.3 280.3 191.6 259.3 220.9Z" fill="#D82122"/>
<path d="M288.6 143C277.6 113.5 262 88.3 227.6 65.6C194.4 43.6 158.8 45.3 156.8 45.6C156.6 45.6 156.3 45.6 156.3 45.6C157.5 45.1 158.7 44.9 160 44.6C167.6 42.2 177.3 40.2 187.1 39C213 35.3 239.1 44.1 256.9 62.9C257.1 63.1 257.1 63.1 257.4 63.4C277.6 84.9 288.1 111.8 288.6 143Z" fill="#D82122"/>
<path d="M219.7 22.2C183.3 15.4 159.9 18.7999 143.1 25.0999C142.6 23.0999 140.9 19.1999 139.4 16.0999C134.3 22.1999 128.9 29.5 125.5 34.2C116.2 40.5 112.3 46.5999 112.3 46.5999C117.7 28.2999 133.3 14.6 152.3 11.2C157.7 10.2 163.5 9.69995 169.9 9.69995C186.8 9.99995 203.6 14.1 219.7 22.2Z" fill="#D82122"/>
<path d="M85.3 69C56.7 68 66.3 34.8 66.8 32.9C66.7 33.2 68.7 59 85.3 69Z" fill="#D82122"/>
<path d="M113.3 9.19995C91.3 22.4 95.7 53.8999 95.7 53.8999C74.8 21.8999 111.6 9.99995 113.3 9.19995Z" fill="#D82122"/>
<path d="M77.2 77.7999C78.7 78.9999 80.1 81.1999 78.4 84.3999C77.4 86.0999 76 85.8999 73.8 84.8999C70.9 83.3999 53.3 73.2 37.4 62.7C55.5 69 73.8 75.8999 76.7 77.2999C76.7 77.2999 77 77.5999 77.2 77.7999Z" fill="white"/>
</svg>
