<svg width="512" height="512" viewBox="0 0 512 512" fill="none" xmlns="http://www.w3.org/2000/svg">
<path d="M373.109 359.422C241.032 422.28 159.063 369.689 106.592 337.746C103.345 335.733 97.8264 338.217 102.614 343.716C120.095 364.912 177.383 416 252.16 416C326.989 416 371.505 375.17 377.074 368.047C382.605 360.985 378.698 357.089 373.108 359.422H373.109ZM410.203 338.937C406.656 334.318 388.636 333.458 377.295 334.851C365.937 336.204 348.888 343.145 350.37 347.314C351.13 348.875 352.683 348.174 360.486 347.473C368.31 346.692 390.229 343.926 394.796 349.896C399.384 355.908 387.805 384.547 385.69 389.165C383.647 393.784 386.471 394.975 390.309 391.899C394.094 388.824 400.947 380.86 405.545 369.591C410.113 358.26 412.899 342.454 410.203 338.937Z" fill="#FF9900"/>
<path fill-rule="evenodd" clip-rule="evenodd" d="M284.302 231.161C284.302 247.654 284.718 261.409 276.382 276.055C269.654 287.965 258.996 295.288 247.087 295.288C230.832 295.288 221.365 282.903 221.365 264.624C221.365 228.541 253.695 221.992 284.302 221.992V231.161ZM326.993 334.349C324.194 336.849 320.145 337.028 316.99 335.36C302.938 323.691 300.437 318.272 292.697 307.137C269.475 330.836 253.042 337.921 222.913 337.921C187.307 337.921 159.56 315.949 159.56 271.948C159.56 237.592 178.198 214.192 204.692 202.76C227.676 192.637 259.77 190.851 284.302 188.053V182.575C284.302 172.512 285.075 160.604 279.181 151.911C274 144.111 264.116 140.895 255.422 140.895C239.287 140.895 224.878 149.171 221.365 166.319C220.649 170.131 217.852 173.882 214.041 174.061L172.956 169.655C169.504 168.88 165.693 166.082 166.646 160.782C176.113 111.006 221.066 96 261.316 96C281.918 96 308.831 101.478 325.087 117.079C345.689 136.31 343.723 161.973 343.723 189.898V255.871C343.723 275.699 351.94 284.392 359.68 295.11C362.419 298.92 363.015 303.506 359.561 306.363C350.927 313.567 335.565 326.965 327.111 334.468L326.992 334.349" fill="black"/>
<path d="M373.109 359.422C241.032 422.28 159.063 369.689 106.592 337.746C103.345 335.733 97.8264 338.217 102.614 343.716C120.095 364.912 177.383 416 252.16 416C326.989 416 371.505 375.17 377.074 368.047C382.605 360.985 378.698 357.089 373.108 359.422H373.109ZM410.203 338.937C406.656 334.318 388.636 333.458 377.295 334.851C365.937 336.204 348.888 343.145 350.37 347.314C351.13 348.875 352.683 348.174 360.486 347.473C368.31 346.692 390.229 343.926 394.796 349.896C399.384 355.908 387.805 384.547 385.69 389.165C383.647 393.784 386.471 394.975 390.309 391.899C394.094 388.824 400.947 380.86 405.545 369.591C410.113 358.26 412.899 342.454 410.203 338.937Z" fill="#FF9900"/>
<path fill-rule="evenodd" clip-rule="evenodd" d="M284.302 231.161C284.302 247.654 284.718 261.409 276.382 276.055C269.654 287.965 258.996 295.288 247.087 295.288C230.832 295.288 221.365 282.903 221.365 264.624C221.365 228.541 253.695 221.992 284.302 221.992V231.161ZM326.993 334.349C324.194 336.849 320.145 337.028 316.99 335.36C302.938 323.691 300.437 318.272 292.697 307.137C269.475 330.836 253.042 337.921 222.913 337.921C187.307 337.921 159.56 315.949 159.56 271.948C159.56 237.592 178.198 214.192 204.692 202.76C227.676 192.637 259.77 190.851 284.302 188.053V182.575C284.302 172.512 285.075 160.604 279.181 151.911C274 144.111 264.116 140.895 255.422 140.895C239.287 140.895 224.878 149.171 221.365 166.319C220.649 170.131 217.852 173.882 214.041 174.061L172.956 169.655C169.504 168.88 165.693 166.082 166.646 160.782C176.113 111.006 221.066 96 261.316 96C281.918 96 308.831 101.478 325.087 117.079C345.689 136.31 343.723 161.973 343.723 189.898V255.871C343.723 275.699 351.94 284.392 359.68 295.11C362.419 298.92 363.015 303.506 359.561 306.363C350.927 313.567 335.565 326.965 327.111 334.468L326.992 334.349" fill="black"/>
</svg>
