<svg width="512" height="512" viewBox="0 0 512 512" fill="none" xmlns="http://www.w3.org/2000/svg">
<path d="M157.885 382.32C185.011 403.318 219.059 415.935 255.999 415.935C296.424 415.935 333.277 400.926 361.403 376.29C361.743 375.988 361.575 375.789 361.239 375.988C348.618 384.418 312.647 402.817 256 402.817C206.772 402.817 175.662 391.833 158.093 382.027C157.757 381.861 157.633 382.113 157.885 382.32ZM266.86 390.496C306.233 390.496 349.5 379.763 375.377 358.516C382.458 352.728 389.203 345.023 395.244 334.669C398.722 328.711 402.123 321.633 404.893 314.675C405.016 314.336 404.807 314.171 404.552 314.553C380.488 349.965 310.804 372.053 238.852 372.053C187.994 372.053 133.271 355.79 111.847 324.736C111.636 324.448 111.425 324.571 111.553 324.901C131.511 367.322 192.06 390.496 266.86 390.496ZM223.84 320.122C141.951 320.122 103.339 281.983 96.3346 255.955C96.2482 255.579 96 255.661 96 256C96 264.762 96.877 276.069 98.3858 283.575C99.1056 287.228 102.079 292.962 106.438 297.532C126.267 318.201 175.704 347.162 261.321 347.162C377.97 347.162 404.641 308.305 410.087 295.527C413.982 286.388 416 269.874 416 256C416 252.643 415.916 249.962 415.789 247.329C415.789 246.902 415.542 246.867 415.456 247.283C409.627 278.551 309.964 320.122 223.84 320.122ZM111.425 187.388C106.732 196.7 101.531 212.41 99.985 220.541C99.3072 224.025 99.5959 225.698 100.818 228.298C110.633 249.122 160.279 282.442 276.083 282.442C346.733 282.442 401.615 265.085 410.506 233.411C412.143 227.58 412.231 221.424 410.128 213.129C407.778 203.86 403.377 193.05 399.652 185.46C399.529 185.213 399.312 185.249 399.356 185.542C400.739 227.085 284.889 253.859 226.436 253.859C163.12 253.859 110.298 228.632 110.298 196.779C110.298 193.719 110.931 190.657 111.722 187.472C111.801 187.181 111.552 187.132 111.425 187.388ZM361.662 136.381C362.334 137.435 362.669 138.559 362.669 140.073C362.669 157.843 308.283 189.279 221.707 189.279C158.093 189.279 146.184 165.681 146.184 150.673C146.184 145.308 148.241 139.819 152.772 134.244C153.02 133.913 152.81 133.785 152.524 134.032C144.26 141.035 136.667 148.916 130.006 157.423C126.823 161.446 124.847 165.01 124.847 167.145C124.847 198.246 202.832 220.796 275.749 220.796C353.444 220.796 388.119 195.432 388.119 173.142C388.119 165.176 385.018 160.526 377.086 151.51C371.937 145.645 367.066 140.87 361.911 136.169C361.662 135.963 361.488 136.131 361.662 136.381ZM337.843 118.615C313.865 104.242 286.02 96.0654 256 96.0654C225.772 96.0654 197.088 104.528 173.023 119.281C165.805 123.724 161.742 127.284 161.742 131.86C161.742 145.35 193.27 159.855 249.203 159.855C304.556 159.855 347.489 143.968 347.489 128.674C347.489 125.024 344.299 122.47 337.843 118.615Z" fill="#00A8E0"/>
</svg>
