<svg viewBox="0 0 512 512" fill="none" xmlns="http://www.w3.org/2000/svg">
<g clip-path="url(#clip0_29_12)">
<path d="M397.049 0H114.951C51.4655 0 0 51.4655 0 114.951V397.049C0 460.535 51.4655 512 114.951 512H397.049C460.535 512 512 460.535 512 397.049V114.951C512 51.4655 460.535 0 397.049 0Z" fill="white"/>
<path d="M435.945 113.002C366.806 112.754 299.232 142.738 252.993 193.92C236.354 211.136 225.261 232.224 211.916 251.746C179.955 295.486 130.065 320.775 76 320.748V399.414C145.111 399.689 212.685 369.595 258.952 318.414C275.509 301.198 286.767 280.138 300.029 260.588C331.99 216.902 381.881 191.613 435.945 191.641V113.002Z" fill="url(#paint0_linear_29_12)"/>
<path d="M435.945 320.748C381.908 320.748 331.99 295.486 300.029 251.801C286.821 232.251 275.536 211.218 259.007 193.975C212.85 142.793 145.166 112.754 76.0549 113.056V191.723C135.913 191.421 191.515 223.629 221.609 275.36C230.45 290.791 240.994 305.289 253.048 318.579C299.26 369.733 366.889 399.826 436 399.579L435.945 320.775V320.748Z" fill="#2A54FF"/>
</g>
<defs>
<linearGradient id="paint0_linear_29_12" x1="99.5314" y1="371.435" x2="413.814" y2="139.855" gradientUnits="userSpaceOnUse">
<stop stop-color="#2A54FF"/>
<stop offset="0.52" stop-color="#2143CB"/>
<stop offset="1" stop-color="#2A54FF"/>
</linearGradient>
<clipPath id="clip0_29_12">
<rect width="512" height="512" fill="white"/>
</clipPath>
</defs>
</svg>
