<svg viewBox="0 0 512 512" fill="none" xmlns="http://www.w3.org/2000/svg">
<g clip-path="url(#clip0_29_8)">
<path fill-rule="evenodd" clip-rule="evenodd" d="M400.5 0H111.5C49.9203 0 0 49.9203 0 111.5V400.5C0 462.08 49.9203 512 111.5 512H400.5C462.08 512 512 462.08 512 400.5V111.5C512 49.9203 462.08 0 400.5 0ZM236.283 201.819H237.014L344.93 310.433L235.618 419.055L205.845 448H304.324L429.744 321.947C436.073 315.594 436.04 305.312 429.678 298.991L331.881 201.819H237.014L237.005 201.81L236.283 201.819ZM179.976 310.19H274.852L166.928 201.567L276.24 92.9449L306.012 64H207.533L82.1135 190.061C75.7841 196.415 75.8166 206.696 82.1785 213.016L179.976 310.19Z" fill="#00F0FF"/>
</g>
<defs>
<clipPath id="clip0_29_8">
<rect width="512" height="512" fill="white"/>
</clipPath>
</defs>
</svg>
