<svg viewBox="0 0 512 512" fill="none" xmlns="http://www.w3.org/2000/svg">
<g clip-path="url(#clip0_29_58)">
<path d="M397.049 -0.00012207H114.951C51.4655 -0.00012207 0 51.4654 0 114.951V397.048C0 460.534 51.4655 512 114.951 512H397.049C460.535 512 512 460.534 512 397.048V114.951C512 51.4654 460.535 -0.00012207 397.049 -0.00012207Z" fill="white"/>
<g clip-path="url(#clip1_29_58)">
<path fill-rule="evenodd" clip-rule="evenodd" d="M142.125 132.25C136.5 103 159 76 188.25 76C214.125 76 235.5 97.375 235.5 123.25V181.75C242.25 181.75 249 180.625 255.75 180.625C262.5 180.625 268.125 180.625 274.875 181.75V123.25C274.875 97.375 296.25 76 322.125 76C351.375 76 373.875 103 369.375 132.25L357 200.875C400.875 220 434.625 253.75 434.625 295.375V321.25C434.625 356.125 412.125 385.375 379.5 404.5C346.875 424.75 304.125 436 255.75 436C207.375 436 164.625 424.75 132 404.5C100.5 385.375 78 356.125 78 321.25V295.375C78 253.75 110.625 220 154.5 200.875L142.125 132.25ZM340.125 209.875L354.75 128.875C358.125 108.625 343.5 89.5 322.125 89.5C304.125 89.5 289.5 104.125 289.5 122.125V196.375C285 195.25 279.375 195.25 274.875 195.25C268.125 195.25 262.5 194.125 255.75 194.125C249 194.125 242.25 194.125 235.5 195.25C231 195.25 225.375 196.375 220.875 196.375V123.25C220.875 105.25 206.25 90.625 188.25 90.625C168 90.625 152.25 109.75 156.75 130L171.375 211C124.125 229 92.625 260.5 92.625 296.5V322.375C92.625 377.5 165.75 422.5 255.75 422.5C345.75 422.5 418.875 377.5 418.875 322.375V296.5C420 259.375 388.5 227.875 340.125 209.875Z" fill="#633001"/>
<path d="M420 321.25C420 376.375 346.875 421.375 256.875 421.375C166.875 421.375 93.75 376.375 93.75 321.25V295.375H421.125V321.25H420Z" fill="#FEDC90"/>
<path fill-rule="evenodd" clip-rule="evenodd" d="M156.75 130C152.25 109.75 168 90.625 188.25 90.625C206.25 90.625 220.875 105.25 220.875 123.25V197.5C232.125 196.375 243.375 195.25 255.75 195.25C267 195.25 278.25 196.375 289.5 197.5V123.25C289.5 105.25 304.125 90.625 322.125 90.625C342.375 90.625 358.125 109.75 354.75 130L340.125 211C387.375 229 420 260.5 420 296.5C420 351.625 346.875 396.625 256.875 396.625C166.875 396.625 93.75 351.625 93.75 296.5C93.75 260.5 125.25 229 172.5 211L156.75 130Z" fill="#D1884F"/>
<path d="M210.75 288.625C210.75 303.25 202.875 315.625 192.75 315.625C182.625 315.625 174.75 303.25 174.75 288.625C174.75 274 182.625 261.625 192.75 261.625C202.875 261.625 210.75 274 210.75 288.625Z" fill="#633001"/>
<path d="M335.625 288.625C335.625 303.25 327.75 315.625 317.625 315.625C307.5 315.625 299.625 303.25 299.625 288.625C299.625 274 307.5 261.625 317.625 261.625C327.75 261.625 335.625 274 335.625 288.625Z" fill="#633001"/>
</g>
</g>
<defs>
<clipPath id="clip0_29_58">
<rect width="512" height="512" fill="white"/>
</clipPath>
<clipPath id="clip1_29_58">
<rect width="356.625" height="360" fill="white" transform="translate(78 76)"/>
</clipPath>
</defs>
</svg>
