<svg viewBox="0 0 512 512" fill="none" xmlns="http://www.w3.org/2000/svg">
<path d="M390.142 12H121.478C61.0148 12 12 61.0148 12 121.478V390.142C12 450.604 61.0148 499.619 121.478 499.619H390.142C450.604 499.619 499.619 450.604 499.619 390.142V121.478C499.619 61.0148 450.604 12 390.142 12Z" fill="#10D078"/>
<path d="M367.5 134.1C366.55 134.1 345.1 135.05 318.45 141.45C282.35 149.95 255.3 164.05 238.7 183.15C235.05 187.4 231.55 191.45 228.45 195.3C221.9 197.05 203.75 202.05 195.4 203.6C190.55 204.55 186.5 207.25 183.6 211.35C177.6 220.05 167.2 237.8 166.8 238.6L154.85 259.05L176.65 249.6C186.1 245.35 199.45 242.45 203.3 244.75C203.5 244.95 203.7 244.95 203.9 246.1C203.9 252.3 205.45 258.25 208.35 264.25C202.35 268.9 199.1 276.2 199.45 283.75V310.4H226.1C233.65 310.8 240.8 307.3 245.6 301.5C251.6 304.4 257.55 305.75 263.75 305.95C264.7 306.15 264.9 306.35 264.9 306.55C267.2 310.4 264.3 323.75 260.05 333.2L250.6 354.85L271.05 342.9C271.8 342.5 289.6 332.1 298.3 326.1C302.35 323.4 305.05 319.15 306.05 314.3C307.8 306 312.6 287.85 314.35 281.25C318.2 278.15 322.25 274.7 326.5 271C371.3 231.4 375.35 145.65 375.55 142L375.95 133.7L367.5 134.1ZM207 229.7C202 228.15 196.2 228.35 190.6 229.3C192.7 225.8 194.85 222.55 196.6 220.05C197 219.3 197.75 218.9 198.7 218.7C202.55 217.95 208.55 216.4 214.55 215.05C211.05 220.25 208.75 225.1 207 229.7ZM233.25 291.7C231.7 293.8 229 295 226.5 294.8H224L240.05 269.7L214.95 285.9V283.2C214.75 280.5 215.9 278 218.05 276.45L248.75 252.1C250.3 250.75 252.4 249.8 254.35 249.4L262.45 247.45L260.5 255.55C259.9 257.65 259.15 259.6 257.8 261.15L233.25 291.7ZM290.85 311.2C290.65 311.95 290.25 312.75 289.5 313.3C287 315.05 283.7 317.15 280.25 319.3C281.2 313.7 281.4 307.9 279.85 302.9C284.5 301.15 289.3 298.85 294.55 295.55C293.15 301.35 291.6 307.15 290.85 311.2ZM316.3 259.45C289.65 283 274.95 289.95 264.35 290.35C264.15 290.35 264.15 290.35 263.95 290.35C260.65 290.35 257.95 289.75 255.25 288.8L269.55 270.65C272.25 267.15 274.2 263.3 275.35 259.05L283.1 226.6L250.65 234.35C246.4 235.3 242.35 237.25 239.05 239.95L220.9 254.25C219.95 251.55 219.35 248.85 219.35 245.55C219.35 245.35 219.35 245.35 219.35 245.15C219.55 234.7 226.7 219.85 250.25 193.2C278.65 160.95 337.35 152.25 359.35 150.15C357.25 172.35 348.55 231.05 316.3 259.45Z" fill="white"/>
<path d="M196.3 348.6C186.45 350.55 176.4 351.1 166.35 351.3C160.55 351.3 154.75 351.1 148.75 350.55C151.05 346.7 153.2 342.8 155.1 338.75C158.75 330.45 161.45 322.15 163.6 313.65C165.55 305.55 167.85 297.6 170.75 289.7C173.45 281.8 176.55 273.85 180 265.95C176.9 269.05 174.2 272.3 171.7 275.8C169.2 279.3 166.7 282.95 164.35 286.6C159.9 293.95 156.05 302.05 152.75 309.95C149.65 317.7 146.4 325.4 142.5 332.35C138.65 339.3 134.2 345.7 128.8 351.85L120 362.3L133.7 364.25C144.5 365.8 155.5 366.55 166.55 366.2C172.15 366 177.55 365.6 183.15 364.65C188.55 363.9 194.15 362.55 199.35 361C209.95 357.9 220.2 352.9 229.3 346.5C233.75 343.2 238 339.55 241.45 335.3C244.95 331.05 248.2 326.6 250.35 321.6C243 329.35 234.15 334.95 225.05 339.35C215.8 343.8 206.15 346.65 196.3 348.6Z" fill="white"/>
<path d="M310.7 226.05C317.65 226.05 324.6 223.35 330 218.15C340.6 207.55 340.6 190.35 330 179.7C324.8 174.5 318.05 171.8 310.7 171.8C303.35 171.8 296.6 174.7 291.4 179.7C280.8 190.3 280.8 207.5 291.4 218.15C296.6 223.35 303.55 226.05 310.7 226.05ZM302.2 190.5C304.5 188.2 307.4 187 310.5 187C313.6 187 316.7 188.15 318.8 190.5C323.45 195.15 323.45 202.45 318.8 207.1C314.15 211.75 306.85 211.75 302.2 207.1C297.8 202.65 297.8 195.15 302.2 190.5Z" fill="white"/>
</svg>
