<svg viewBox="0 0 1570 417" fill="none" xmlns="http://www.w3.org/2000/svg">
<path d="M650.3 415.6C644 415.2 635.4 414.1 631.3 413.2C627.2 412.3 621.3 411.2 618.2 410.6C606.4 408.6 587 399.8 575.3 391.1C568 385.7 553.3 369.6 553.3 367C553.3 366.4 552.4 364.8 551.3 363.4C550.1 362 548.1 357.7 546.6 354C541.2 339.6 539.6 332.4 538.4 316.7C536.2 288.9 540.3 256.1 549.4 229.2C551 224.3 552.8 218.9 553.2 217.2C555.2 210.2 567.5 186.6 571.9 181.4C573.2 179.8 574.3 178.2 574.3 177.7C574.3 177.2 574.9 176.2 575.6 175.5C576.2 174.8 578.6 171.9 580.8 169.2C592.7 154.2 610.2 140 627.8 130.9C636.5 126.4 652.3 119.7 654.1 119.7C654.8 119.7 660.1 118.3 666 116.7C685.6 111.2 695.7 110.7 801.7 110.7C877.1 110.7 896.4 111 896 112C895.8 112.6 894.8 117.7 893.9 123.2C893 128.7 890.7 141.8 888.8 152.2C885.4 171.1 883.9 179.9 880.2 201.7C879.1 208 876.9 220.6 875.3 229.7C873.7 238.8 870.7 255.4 868.8 266.7C866.8 278 863.7 295.8 861.8 306.2C859.9 316.7 856.8 334.4 854.8 345.7C852.8 357 849.7 374.8 847.8 385.2C845.9 395.7 844 406.9 843.6 410.2L842.8 416.2L752.3 416.3C702.5 416.4 656.6 416.1 650.3 415.6ZM753.7 337.5C754 336.2 754.3 333.8 754.3 332C754.3 330.2 755.8 320.8 757.7 311C759.5 301.2 761.7 288.9 762.6 283.7C763.4 278.5 765.1 268.8 766.3 262.2C773.2 222.7 775.4 210.1 776.9 201.2C777.8 195.7 778.7 190.2 779 189L779.5 186.7H756.2C726.6 186.8 708.4 188.5 698.3 192.2C694.2 193.7 689.9 195.1 688.8 195.5C679.5 198.1 662.2 214 655 226.5C646.3 241.5 639.9 266.7 639.9 286.2C639.8 314.1 651.6 330 677 336.2C690.5 339.5 689.2 339.4 722.9 339.6L753.1 339.7L753.7 337.5Z" fill="#008DE4"/>
<path d="M907.3 415.6C907.3 414.4 909.1 404.4 916.9 362.7C918.8 352.5 920.3 343.2 920.3 342V339.7H1001.6C1092 339.7 1089 339.9 1095.9 333.1C1099.4 329.5 1102.3 321.9 1102.3 316C1102.3 310.7 1099.9 306.2 1095.7 303.6L1091.8 301.2L1038.8 300.6L985.8 300.1L977.8 297.3C973.4 295.7 969.4 294.1 968.9 293.6C968.3 293.1 967.2 292.7 966.4 292.7C963.7 292.7 952.6 284.7 947.5 279.1C936.8 267.4 931.5 252.8 930.6 232.7C930.1 221.6 930.5 217.5 933.8 199C936.2 185.2 945.9 162.3 952.5 154.5C954.1 152.7 955.3 150.9 955.3 150.6C955.3 149.7 971 133.7 971.9 133.7C972.3 133.7 973.8 132.6 975.2 131.3C982.6 124.4 1005.5 114.5 1018.7 112.5C1025.3 111.5 1218.3 110.1 1218.3 111C1218.3 111.2 1216.9 118.1 1215.2 126.3C1213.5 134.5 1211.8 143.9 1211.4 147.2C1211 150.5 1209.1 160.7 1207.2 169.9L1203.8 186.7H1127.8C1040.9 186.7 1042.1 186.7 1035.7 193.6C1026.6 203.7 1027.4 220 1037.3 223.4C1039.8 224.2 1053.9 224.6 1086.3 224.7C1120.5 224.7 1133.7 225.1 1139.6 226.2C1159.3 229.7 1172.1 235.7 1182.9 246.5C1187 250.5 1190.3 254.5 1190.3 255.2C1190.3 256 1190.9 257.2 1191.7 258C1192.5 258.8 1194 261.4 1195.1 263.8C1205.2 286.9 1202.3 324.7 1188 357C1186.9 359.6 1185.3 362.3 1184.6 362.9C1183.9 363.5 1183.3 364.6 1183.3 365.3C1183.3 367.2 1172.3 381.3 1166.1 387.3C1161 392.3 1145.2 403.7 1143.5 403.7C1143 403.7 1139.9 405.1 1136.6 406.7C1133.3 408.4 1128.6 410.1 1126.2 410.7C1123.8 411.2 1117.8 412.6 1112.8 413.8C1103.9 416 1103 416.1 1005.6 416.4C927.1 416.7 907.3 416.6 907.3 415.6Z" fill="#008DE4"/>
<path d="M1229.7 414C1230 412.4 1230.8 408.1 1231.4 404.2C1232.9 394.5 1238.7 361.8 1242.9 339.7C1244.8 329.5 1246.3 320.3 1246.3 319.2C1246.3 318.1 1247.8 308.9 1249.7 298.7C1255 270.6 1259.3 246.7 1259.9 241.7C1260.2 239.2 1261.8 230.6 1263.4 222.4C1265 214.3 1266.3 206.7 1266.3 205.4C1266.3 204.2 1267.9 194.9 1269.8 184.7C1271.7 174.5 1274.9 157 1276.8 145.7C1278.8 134.4 1281.9 116.7 1283.8 106.2C1285.7 95.8001 1288.8 78.0001 1290.8 66.7001C1292.8 55.4001 1295.9 37.9 1297.9 27.7C1299.8 17.5 1301.3 8.00004 1301.3 6.50004C1301.3 0.300037 1297.6 0.700049 1353.9 0.700049C1382.2 0.700049 1405.3 1.00004 1405.3 1.50004C1405.4 2.20004 1402.2 19.9001 1394.8 59.2001C1392.9 69.7001 1391.3 79.3001 1391.3 80.7001C1391.3 82.1001 1390 89.4 1388.4 97L1385.7 110.7H1430.2C1486 110.7 1497.4 111.6 1516.4 117.8C1542.7 126.3 1559.4 143.3 1565.9 168.1C1568.9 180 1570.5 195.5 1569.8 206.7C1569 217.9 1565 244.9 1560.7 267.2C1558.8 277.1 1557.3 286.3 1557.3 287.7C1557.3 289.1 1555.7 297.9 1553.8 307.2C1551.9 316.6 1550.3 325.3 1550.3 326.7C1550.3 328.1 1548.8 337.5 1546.9 347.7C1540.6 381.3 1537.4 399.1 1536.2 408L1535 416.7H1483.6H1432.3L1432.9 411C1433.2 407.8 1435 397.4 1436.9 387.9C1438.8 378.4 1440.3 369.3 1440.3 367.8C1440.3 366.2 1441.4 359.6 1442.8 353.1C1444.1 346.5 1445.7 337.8 1446.3 333.7C1446.9 329.6 1448.7 319 1450.3 310.2C1453.2 294.3 1458.4 265.2 1462.3 242.2C1464.9 226.4 1464.9 219.6 1462 211C1459.1 202.8 1454.8 197.9 1446.9 194.2C1437.5 189.8 1428.7 188.8 1398.6 188.7H1371.4L1370.8 194.5C1370.5 197.6 1368.6 208.3 1366.7 218.2C1364.8 228.1 1363.3 237.1 1363.3 238.2C1363.4 239.3 1361.8 248.5 1359.9 258.7C1355.6 281.5 1350.5 309.8 1349.8 315.2C1349.1 319.9 1344.7 344.6 1339.8 371.2C1337.9 381.7 1336.3 391.1 1336.3 392.2C1336.3 393.3 1335.3 399.3 1334.1 405.5L1332 416.7H1280.5H1229.1L1229.7 414Z" fill="#008DE4"/>
<path d="M75.3 414.9C75.3 414.4 76.7 407.3 78.4 399.1C80.1 390.9 81.8 381.1 82.3 377.2C82.7 373.4 84.5001 363.7 86.1001 355.7C87.8001 347.7 89.4 338.2 89.8 334.5L90.5 327.7H185.6C266.4 327.7 282.2 327.5 290.3 326.2C306.1 323.6 317 320.7 333.3 314.5C335.2 313.8 339.2 311.8 342.1 310C345 308.2 347.7 306.7 348.1 306.7C348.5 306.7 350.6 305.1 352.8 303.2C355 301.3 357.1 299.7 357.5 299.7C357.9 299.7 360.6 297.2 363.5 294C366.4 290.9 369.8 287.4 371.1 286.2C372.3 285 373.3 283.6 373.3 283.1C373.3 282.7 374.2 281.4 375.2 280.3C377.3 278 387.3 259.1 387.3 257.3C387.3 256.7 388.6 252.9 390.3 249C391.9 245 393.6 239.6 394.1 237C394.6 234.3 396.4 226.8 398.1 220.2C411.9 166.4 408.7 133.1 387.9 112.7C379.1 104.1 367.8 98.3 351.3 93.7C336.6 89.7 331.5 89.5 231.6 88.8C178.1 88.4 134 87.8 133.7 87.4C133 86.8 134.3 79.1 140.7 43.7C142.6 33.5 144.6 22.1 145.2 18.2C145.7 14.4 146.7 8.79999 147.4 5.89999L148.5 0.5L261.7 1C383.1 1.5 376.1 1.19999 401.8 6.79999C413.8 9.39999 418.5 10.6 428.3 14.2C437.1 17.3 452.9 25.1 455.8 27.6C456.9 28.6 458.6 29.7 459.7 30.1C462.3 31 476 43.2 480.6 48.7C487.8 57.3 489.9 60.2 493.4 66.2C497.5 73.4 503.4 88.6 505.8 98.2C510.7 117.8 510.7 118.2 510.7 148.7C510.7 174.5 510.4 179.8 508.5 191.2C507.3 198.4 505.8 207.4 505.3 211.2C502.5 229.9 494.8 258.4 487.6 277.2C483.9 286.6 475.6 305.5 474.3 307.2C473.9 307.8 472.2 310.7 470.5 313.9C468.9 317 467.1 320.1 466.4 320.9C465.8 321.6 462.8 326 459.7 330.7C449.9 345.5 428.7 367.8 416.9 375.7C404.2 384.2 396.5 388.9 389.3 392.3C377.4 398.2 364.4 403.7 362.7 403.7C361.9 403.7 357.2 405 352.4 406.6C347.5 408.2 341.3 409.8 338.6 410.2C336 410.5 329.3 411.5 323.8 412.3C318.3 413 308.4 414.1 301.8 414.7C287.1 415.9 75.3 416.1 75.3 414.9Z" fill="#008DE4"/>
<path d="M0.300049 250.1C0.300049 245.6 12.5 198.4 15 193.5C21.8 179.8 33.1 170.5 47.9 166.4C55.7 164.3 57 164.3 158 164C214.3 163.8 260.3 164 260.3 164.4C260.4 166.5 251.8 202.3 248 215.7C246.1 222.5 238.9 234 233.8 238.5C231.4 240.6 226.5 243.8 223 245.5C209.9 252 215.1 251.7 102.6 251.7C9.90005 251.7 0.300049 251.6 0.300049 250.1Z" fill="#008DE4"/>
</svg>
