<svg xmlns="http://www.w3.org/2000/svg" id="Camada_2" viewBox="0 0 936.22 311.49"><defs><style>.cls-1{fill:#09f;}.cls-2{fill:#14315b;}</style></defs><g id="Layer_1"><g><path class="cls-1" d="m282.25,4.15v275.72c0,1.31-1.06,2.37-2.37,2.37h-60.09c-1.31,0-2.37-1.06-2.37-2.37v-87.56c0-2.29-1.86-4.15-4.15-4.15h-115.03c-2.29,0-4.15,1.86-4.15,4.15v87.56c0,1.31-1.06,2.37-2.37,2.37H31.62c-1.31,0-2.37-1.06-2.37-2.37V31.62c0-1.31,1.06-2.37,2.37-2.37h154.17c1.31,0,2.37,1.06,2.37,2.37v60.09c0,1.31-1.06,2.37-2.37,2.37h-87.56c-2.29,0-4.15,1.86-4.15,4.15v20.95c0,2.29,1.86,4.15,4.15,4.15h115.03c2.29,0,4.15-1.86,4.15-4.15V4.15c0-2.29-1.86-4.15-4.15-4.15H4.15C1.86,0,0,1.86,0,4.15v303.19c0,2.29,1.86,4.15,4.15,4.15h115.02c2.29,0,4.15-1.86,4.15-4.15v-87.56c0-1.31,1.06-2.37,2.37-2.37h60.09c1.31,0,2.37,1.06,2.37,2.37v87.56c0,2.29,1.86,4.15,4.15,4.15h115.02c2.29,0,4.15-1.86,4.15-4.15V4.15c0-2.29-1.86-4.15-4.15-4.15h-20.94c-2.29,0-4.15,1.86-4.15,4.15Z"></path><g><g><path class="cls-2" d="m457.05,50.08h-55.37c-.69,0-1.03.34-1.03,1.03v26.39c0,.69.34,1.03,1.03,1.03h36.05c1.95,0,2.93.98,2.93,2.94v15c0,1.96-.98,2.93-2.93,2.93h-36.05c-.69,0-1.03.35-1.03,1.04v46.57c0,1.96-.98,2.93-2.94,2.93h-18.45c-1.96,0-2.93-.97-2.93-2.93V32.14c0-1.95.97-2.93,2.93-2.93h77.79c1.95,0,2.93.98,2.93,2.93v15.01c0,1.96-.98,2.93-2.93,2.93Z"></path><path class="cls-2" d="m473.61,48.78c-2.76-2.7-4.14-6.18-4.14-10.44s1.38-7.73,4.14-10.44c2.76-2.7,6.32-4.05,10.69-4.05s8.08,1.32,10.78,3.97c2.7,2.65,4.05,6.15,4.05,10.52s-1.35,7.88-4.05,10.52c-2.7,2.65-6.29,3.97-10.78,3.97s-7.94-1.35-10.69-4.05Zm-1.38,98.23v-82.8c0-1.95.97-2.93,2.93-2.93h18.46c1.95,0,2.93.98,2.93,2.93v82.8c0,1.96-.98,2.93-2.93,2.93h-18.46c-1.96,0-2.93-.97-2.93-2.93Z"></path><path class="cls-2" d="m583.66,68.36c5.63,5.63,8.45,13.28,8.45,22.94v55.71c0,1.96-.98,2.93-2.94,2.93h-18.45c-1.96,0-2.93-.97-2.93-2.93v-50.71c0-4.59-1.27-8.33-3.8-11.21-2.53-2.87-5.92-4.31-10.17-4.31s-7.71,1.44-10.35,4.31c-2.65,2.88-3.97,6.62-3.97,11.21v50.71c0,1.96-.98,2.93-2.94,2.93h-18.45c-1.96,0-2.93-.97-2.93-2.93v-82.8c0-1.95.97-2.93,2.93-2.93h18.45c1.96,0,2.94.98,2.94,2.93v4.83c0,.46.11.75.34.86.23.12.46,0,.69-.34,4.71-6.44,11.67-9.66,20.87-9.66s16.62,2.82,22.25,8.45Z"></path><path class="cls-2" d="m657.14,80.78h-15.53c-.69,0-1.03.34-1.03,1.04v35.71c0,3.79.78,6.58,2.33,8.36,1.55,1.79,4.05,2.67,7.5,2.67h4.83c1.95,0,2.93.98,2.93,2.93v14.83c0,1.84-.98,2.88-2.93,3.11-4.37.23-7.53.34-9.49.34-9.55,0-16.68-1.61-21.39-4.83-4.71-3.22-7.13-9.2-7.24-17.94v-45.19c0-.69-.34-1.04-1.04-1.04h-8.8c-1.96,0-2.93-.97-2.93-2.93v-13.63c0-1.95.97-2.93,2.93-2.93h8.8c.69,0,1.04-.34,1.04-1.04v-19.49c0-1.95.97-2.93,2.93-2.93h17.6c1.95,0,2.93.98,2.93,2.93v19.49c0,.69.34,1.04,1.03,1.04h15.53c1.95,0,2.93.98,2.93,2.93v13.63c0,1.96-.98,2.93-2.93,2.93Z"></path><path class="cls-2" d="m733.38,122.87c.69-.8,1.43-1.21,2.24-1.21.69,0,1.32.29,1.9.86l9.83,9.49c.69.69,1.04,1.38,1.04,2.07,0,.8-.23,1.49-.69,2.07-3.8,4.71-8.66,8.42-14.58,11.12-5.92,2.7-12.39,4.05-19.4,4.05-10.58,0-19.35-2.7-26.31-8.11-6.96-5.4-11.64-12.82-14.06-22.25-1.38-5.06-2.07-10.41-2.07-16.04,0-6.67.63-12.31,1.9-16.9,2.3-8.51,6.93-15.35,13.89-20.53,6.96-5.17,15.21-7.76,24.75-7.76,11.27,0,20.21,3.33,26.82,10,6.61,6.67,10.9,16.04,12.85,28.11.46,3.79.8,7.99,1.03,12.59,0,1.96-.98,2.93-2.93,2.93h-52.95c-.69,0-1.04.34-1.04,1.04.35,2.41.75,4.2,1.21,5.34,1.15,3.57,3.42,6.3,6.81,8.2,3.39,1.9,7.5,2.84,12.33,2.84,7.59-.34,13.39-2.99,17.42-7.94Zm-31.14-39.41c-2.47,1.78-4.17,4.29-5.09,7.5-.58,2.18-.92,3.62-1.04,4.31-.12.69.17,1.03.86,1.03h29.33c.57,0,.86-.23.86-.69,0-1.26-.23-2.59-.69-3.97-1.03-3.33-2.82-5.98-5.34-7.94-2.53-1.95-5.75-2.93-9.66-2.93-3.68,0-6.76.89-9.23,2.67Z"></path><path class="cls-2" d="m927.77,68.36c5.63,5.63,8.45,13.28,8.45,22.94v55.71c0,1.96-.98,2.93-2.93,2.93h-18.46c-1.96,0-2.93-.97-2.93-2.93v-50.71c0-4.59-1.27-8.33-3.79-11.21-2.53-2.87-5.92-4.31-10.18-4.31s-7.7,1.44-10.35,4.31c-2.65,2.88-3.97,6.62-3.97,11.21v50.71c0,1.96-.98,2.93-2.93,2.93h-18.46c-1.96,0-2.93-.97-2.93-2.93V32.14c0-1.95.97-2.93,2.93-2.93h18.46c1.95,0,2.93.98,2.93,2.93v36.91c0,.46.11.75.34.86.23.12.46,0,.69-.34,4.71-6.44,11.67-9.66,20.87-9.66s16.61,2.82,22.25,8.45Z"></path><path class="cls-2" d="m796.51,83.54c2.53-1.84,5.63-2.76,9.32-2.76s7.07.98,9.83,2.93c2.76,1.96,4.54,4.43,5.35,7.42l.52,2.42c.23,1.38,1.03,2.07,2.41,2.07l.86-.17,18.11-2.76c1.72-.34,2.59-1.26,2.59-2.76v-.34c-.23-1.95-.69-3.74-1.38-5.35-2.3-7.01-6.93-12.82-13.89-17.42-6.96-4.6-15.04-6.9-24.24-6.9s-17.19,2.24-23.97,6.73c-6.79,4.48-11.56,10.64-14.32,18.46-1.96,5.64-2.94,12.3-2.94,20.01v1.04c0,7.7.98,14.37,2.94,20.01,2.76,7.82,7.53,13.97,14.32,18.46,6.78,4.49,14.77,6.73,23.97,6.73s17.28-2.3,24.24-6.9c6.95-4.6,11.58-10.41,13.89-17.42.69-1.61,1.15-3.4,1.38-5.35v-.34c0-1.5-.86-2.42-2.59-2.76l-18.11-2.76-.86-.17c-1.38,0-2.19.69-2.41,2.07l-.52,2.42c-.81,2.99-2.59,5.46-5.35,7.42-2.76,1.95-6.04,2.93-9.83,2.93s-6.79-.92-9.32-2.76c-2.53-1.84-4.31-4.37-5.35-7.59-1.27-3.45-1.9-8.17-1.9-14.15v-.69c0-5.98.63-10.7,1.9-14.15,1.03-3.22,2.82-5.75,5.35-7.59Z"></path></g><g><path class="cls-2" d="m443.42,161.51h18.46c1.95,0,2.93.98,2.93,2.93v114.88c0,1.96-.98,2.93-2.93,2.93h-18.46c-1.96,0-2.93-.97-2.93-2.93v-46.57c0-.69-.34-1.04-1.04-1.04h-37.78c-.69,0-1.03.35-1.03,1.04v46.57c0,1.96-.98,2.93-2.94,2.93h-18.45c-1.96,0-2.93-.97-2.93-2.93v-114.88c0-1.95.97-2.93,2.93-2.93h18.45c1.96,0,2.94.98,2.94,2.93v45.37c0,.69.34,1.03,1.03,1.03h37.78c.69,0,1.04-.34,1.04-1.03v-45.37c0-1.95.97-2.93,2.93-2.93Z"></path><path class="cls-2" d="m497.41,276.04c-6.9-5.06-11.62-11.96-14.15-20.7-1.61-5.4-2.41-11.27-2.41-17.6,0-7.01.86-13.11,2.59-18.28,2.64-8.51,7.39-15.18,14.23-20.01,6.84-4.83,15.15-7.25,24.93-7.25s17.51,2.42,24.23,7.25c6.73,4.83,11.41,11.44,14.06,19.84,1.72,5.29,2.59,11.33,2.59,18.11,0,5.98-.75,11.79-2.24,17.42-2.65,8.97-7.39,16.02-14.23,21.13-6.84,5.12-15.04,7.68-24.58,7.68s-18.11-2.53-25.01-7.59Zm34.5-16.73c2.65-2.3,4.54-5.46,5.69-9.49.92-3.11,1.38-7.13,1.38-12.08s-.46-8.91-1.38-12.24c-1.15-3.91-3.05-6.96-5.69-9.14-2.65-2.18-5.92-3.28-9.83-3.28s-7.02,1.09-9.66,3.28c-2.65,2.18-4.54,5.23-5.69,9.14-.92,3.33-1.38,7.42-1.38,12.24s.46,8.74,1.38,12.08c1.15,4.03,3.08,7.19,5.78,9.49,2.7,2.3,6.01,3.45,9.92,3.45,3.68,0,6.84-1.15,9.49-3.45Z"></path><path class="cls-2" d="m633.85,193.59h18.45c1.96,0,2.94.98,2.94,2.93v82.8c0,1.96-.98,2.93-2.94,2.93h-18.45c-1.96,0-2.93-.97-2.93-2.93v-4.66c0-.46-.15-.71-.43-.78-.29-.05-.55.09-.78.43-4.48,6.1-11.56,9.14-21.22,9.14-8.74,0-15.93-2.64-21.56-7.94-5.64-5.29-8.45-12.7-8.45-22.25v-56.75c0-1.95.97-2.93,2.93-2.93h18.28c1.96,0,2.94.98,2.94,2.93v50.71c0,4.6,1.23,8.34,3.71,11.21,2.47,2.87,5.89,4.31,10.26,4.31,3.91,0,7.13-1.18,9.66-3.54,2.53-2.36,4.08-5.43,4.66-9.23v-53.47c0-1.95.97-2.93,2.93-2.93Z"></path><path class="cls-2" d="m688.36,280.18c-5.75-2.18-10.18-5.23-13.28-9.14-3.11-3.91-4.66-8.34-4.66-13.28v-.86c0-1.95.97-2.93,2.93-2.93h17.42c1.95,0,2.93.34,2.93,1.04v1.21c0,2.53,1.38,4.69,4.14,6.47,2.76,1.78,6.27,2.67,10.52,2.67,3.91,0,7.07-.75,9.49-2.24,2.41-1.49,3.62-3.45,3.62-5.86,0-2.07-1.03-3.62-3.1-4.66-2.07-1.03-5.46-2.13-10.18-3.28-5.63-1.49-9.83-2.82-12.59-3.97-7.48-2.53-13.4-5.63-17.77-9.32-4.37-3.68-6.55-8.97-6.55-15.87,0-8.51,3.33-15.27,10-20.27,6.67-5,15.41-7.5,26.22-7.5,7.36,0,13.82,1.18,19.4,3.54,5.58,2.36,9.89,5.66,12.94,9.92,3.05,4.25,4.57,9.08,4.57,14.49,0,.58-.26,1.06-.78,1.46-.51.41-1.24.61-2.16.61h-16.9c-1.96,0-2.93-.34-2.93-1.04v-1.03c0-2.53-1.27-4.66-3.79-6.38-2.53-1.72-5.92-2.59-10.18-2.59-3.79,0-6.93.69-9.4,2.07-2.47,1.38-3.71,3.28-3.71,5.69s1.18,4.03,3.54,5.17c2.36,1.15,6.24,2.36,11.64,3.62,3.34.69,6.55,1.55,9.66,2.59,8.28,2.42,14.78,5.52,19.49,9.32,4.71,3.79,7.07,9.31,7.07,16.56,0,8.51-3.39,15.15-10.18,19.92-6.78,4.77-15.87,7.16-27.25,7.16-7.7,0-14.43-1.09-20.18-3.28Z"></path><path class="cls-2" d="m820.14,255.17c.69-.8,1.43-1.21,2.24-1.21.69,0,1.32.29,1.9.86l9.83,9.49c.69.69,1.04,1.38,1.04,2.07,0,.8-.23,1.49-.69,2.07-3.8,4.71-8.66,8.42-14.58,11.12-5.92,2.7-12.39,4.05-19.4,4.05-10.58,0-19.35-2.7-26.31-8.11-6.96-5.4-11.64-12.82-14.06-22.25-1.38-5.06-2.07-10.41-2.07-16.04,0-6.67.63-12.31,1.9-16.9,2.3-8.51,6.93-15.35,13.89-20.53,6.96-5.17,15.21-7.76,24.75-7.76,11.27,0,20.21,3.33,26.82,10,6.61,6.67,10.9,16.04,12.85,28.11.46,3.79.8,7.99,1.03,12.59,0,1.96-.98,2.93-2.93,2.93h-52.95c-.69,0-1.04.34-1.04,1.04.35,2.41.75,4.2,1.21,5.34,1.15,3.57,3.42,6.3,6.81,8.2,3.39,1.9,7.5,2.84,12.33,2.84,7.59-.34,13.39-2.99,17.42-7.94Zm-31.14-39.41c-2.47,1.78-4.17,4.29-5.09,7.5-.58,2.18-.92,3.62-1.04,4.31-.12.69.17,1.03.86,1.03h29.33c.57,0,.86-.23.86-.69,0-1.26-.23-2.59-.69-3.97-1.03-3.33-2.82-5.98-5.34-7.94-2.53-1.95-5.75-2.93-9.66-2.93-3.68,0-6.76.89-9.23,2.67Z"></path></g></g></g></g></svg>