<svg viewBox="0 0 512 512" fill="none" xmlns="http://www.w3.org/2000/svg">
<g clip-path="url(#clip0_29_45)">
<path d="M397.049 -0.00012207H114.951C51.4655 -0.00012207 0 51.4654 0 114.951V397.048C0 460.534 51.4655 512 114.951 512H397.049C460.535 512 512 460.534 512 397.048V114.951C512 51.4654 460.535 -0.00012207 397.049 -0.00012207Z" fill="white"/>
<g clip-path="url(#clip1_29_45)">
<path fill-rule="evenodd" clip-rule="evenodd" d="M258.427 354.8C204.08 354.8 160.027 310.8 160.027 256.533C160.027 202.267 204.08 158.267 258.427 158.267V77.84C159.6 77.84 79.4934 157.84 79.4934 256.533C79.4934 355.227 159.6 435.227 258.4 435.227C357.2 435.227 437.307 355.227 437.307 256.533H356.8C356.8 310.8 312.747 354.8 258.4 354.8H258.427Z" fill="#0051D2"/>
<path fill-rule="evenodd" clip-rule="evenodd" d="M258.4 256.533H356.8V158.24H258.4V256.507V256.533Z" fill="#14E0A1"/>
</g>
</g>
<defs>
<clipPath id="clip0_29_45">
<rect width="512" height="512" fill="white"/>
</clipPath>
<clipPath id="clip1_29_45">
<rect width="400" height="400" fill="white" transform="translate(56 56)"/>
</clipPath>
</defs>
</svg>
