<svg viewBox="0 0 148 40" fill="currentColor" xmlns="http://www.w3.org/2000/svg">
<path d="M19.9193 40L5.83346 34.1426L0 20L5.83346 5.85738L19.9193 0L34.0051 5.85738L39.8385 20L34.0051 34.1426L19.9193 40ZM6.94274 33.0274L19.9193 38.4243L32.8958 33.0274L38.2718 20L32.8958 6.97264L19.9193 1.57572L6.94274 6.97264L1.56675 20L6.94274 33.0274Z" />
<path d="M19.9191 39.9397C19.7277 39.9397 19.5424 39.862 19.4078 39.7274L0.27192 20.5138C0.137371 20.3763 0.0596313 20.1939 0.0596313 19.9995C0.0596313 19.8052 0.137371 19.6228 0.27192 19.4853L19.4078 0.27163C19.6919 -0.0124184 20.1493 -0.0124184 20.4334 0.27163L39.5693 19.4853C39.8533 19.7693 39.8533 20.2298 39.5693 20.5138L20.4334 39.7274C20.2988 39.865 20.1134 39.9397 19.9221 39.9397H19.9191ZM1.80578 19.9995L19.9161 38.1846L38.0264 19.9995L19.9161 1.81446L1.80578 19.9995Z" />
<path d="M48.6345 9.26812C48.6345 10.2757 47.8721 11.0113 46.8376 11.0113C45.803 11.0113 45.0137 10.2757 45.0137 9.26812C45.0137 8.31431 45.7761 7.49805 46.8376 7.49805C47.899 7.49805 48.6345 8.31431 48.6345 9.26812ZM45.4233 26.8313V13.3255H48.2548V26.8313H45.4233Z" />
<path d="M65.6803 18.6631V26.8317H62.8219V19.2342C62.8219 17.0276 61.5421 15.5595 59.6076 15.5595C57.1857 15.5595 55.5771 17.192 55.5771 20.5976V26.8347H52.7456V13.3289H55.5771V14.9914C56.6655 13.6848 58.2472 12.9492 60.2594 12.9492C63.5006 12.9492 65.6773 15.2904 65.6773 18.6661L65.6803 18.6631Z" />
<path d="M76.1872 26.8315H73.1643L67.3638 13.2988H70.4405L74.6892 23.4558L78.938 13.2988H82.0147L76.1872 26.8315Z" />
<path d="M96.6897 20.7581H85.7433C86.0154 23.2637 87.8393 24.7617 89.8276 24.7617C91.3256 24.7617 92.8505 24.3252 93.8043 22.4206L96.3368 22.9647C95.2216 25.7963 92.8236 27.2135 89.8276 27.2135C86.153 27.2135 82.9387 24.382 82.9387 20.1063C82.9387 15.8306 86.1231 12.9453 89.9353 12.9453C93.7475 12.9453 96.5521 15.723 96.6897 19.7804V20.7611V20.7581ZM85.8241 18.7429H93.7744C93.3379 16.5363 91.7861 15.4479 89.9353 15.4479C88.0845 15.4479 86.2606 16.5632 85.8241 18.7429Z" />
<path d="M112.755 18.6631V26.8317H109.897V19.2342C109.897 17.0276 108.617 15.5595 106.685 15.5595C104.26 15.5595 102.655 17.192 102.655 20.5976V26.8347H99.8233V13.3289H102.655V14.9914C103.743 13.6848 105.322 12.9492 107.337 12.9492C110.578 12.9492 112.755 15.2904 112.755 18.6661V18.6631Z" />
<path d="M129.986 26.8309H127.128V25.306C125.929 26.505 124.269 27.2106 122.227 27.2106C118.714 27.2106 115.529 24.3522 115.529 20.0765C115.529 15.8009 118.714 12.9424 122.227 12.9424C124.269 12.9424 125.932 13.6511 127.128 14.877V7.22559H129.986V26.8309ZM127.128 20.0765C127.128 17.245 124.948 15.448 122.69 15.448C120.239 15.448 118.307 17.245 118.307 20.0765C118.307 22.908 120.239 24.705 122.69 24.705C124.951 24.705 127.128 22.935 127.128 20.0765Z" />
<path d="M147.466 26.8308H144.634V25.279C143.465 26.5049 141.776 27.2135 139.734 27.2135C136.194 27.2135 133.036 24.3551 133.036 20.0794C133.036 15.8037 136.194 12.9453 139.734 12.9453C141.776 12.9453 143.465 13.6539 144.634 14.8798V13.328H147.466V26.8338V26.8308ZM144.634 20.0764C144.634 17.2449 142.428 15.4479 140.197 15.4479C137.719 15.4479 135.784 17.2449 135.784 20.0764C135.784 22.9079 137.719 24.7049 140.197 24.7049C142.431 24.7049 144.634 22.9348 144.634 20.0764Z" />
</svg>
