<svg viewBox="0 0 512 512" fill="none" xmlns="http://www.w3.org/2000/svg">
<g clip-path="url(#clip0_29_24)">
<path d="M397.049 0H114.951C51.4655 0 0 51.4655 0 114.951V397.049C0 460.535 51.4655 512 114.951 512H397.049C460.535 512 512 460.535 512 397.049V114.951C512 51.4655 460.535 0 397.049 0Z" fill="white"/>
<path d="M429.015 301.195L351.703 167.09C334.754 139.138 293.422 138.841 277.068 168.279L195.891 307.736C180.726 333.308 199.459 365.423 229.789 365.423H392.439C423.067 365.423 445.963 332.417 429.015 301.195Z" fill="#3156AA"/>
<path d="M317.481 311.604L312.725 303.279C308.264 295.548 298.452 278.896 298.452 278.896L233.034 165.308C216.086 140.033 175.943 137.952 158.994 169.768L82.872 301.495C67.1126 329.149 85.8457 365.128 120.041 365.425H281.8H350.786H391.82C349.893 365.723 336.512 344.016 317.481 311.604Z" fill="#1972E2"/>
<path d="M317.442 311.601L312.684 303.275C308.224 295.543 298.412 278.892 298.412 278.892L256.188 204.554L195.528 308.033C180.363 333.605 199.096 365.718 229.426 365.718H281.462H350.448H391.78C349.556 365.422 336.472 344.012 317.442 311.601Z" fill="url(#paint0_linear_29_24)"/>
</g>
<defs>
<linearGradient id="paint0_linear_29_24" x1="173.939" y1="261.015" x2="361.86" y2="330.458" gradientUnits="userSpaceOnUse">
<stop stop-color="#264CA2" stop-opacity="0"/>
<stop offset="1" stop-color="#234588"/>
</linearGradient>
<clipPath id="clip0_29_24">
<rect width="512" height="512" fill="white"/>
</clipPath>
</defs>
</svg>
