<svg width="512" height="512" viewBox="0 0 512 512" fill="none" xmlns="http://www.w3.org/2000/svg">
<rect width="512" height="512" fill="#FD5000"/>
<path d="M205.863 223.031L186.462 184.934L185.407 182.824C182.418 177.491 177.905 173.212 172.396 170.516C174.213 169.637 176.088 168.933 178.081 168.406C180.543 167.761 183.122 167.468 185.7 167.468H226.376C237.161 167.527 247.125 173.329 252.517 182.707L253.572 184.817L306.146 289.027L325.546 327.124L326.601 329.234C329.649 334.627 334.221 338.964 339.73 341.66C335.627 343.653 331.114 344.708 326.543 344.766H285.632C274.848 344.708 264.884 338.905 259.55 329.527L258.437 327.417L205.863 223.031Z" fill="white"/>
<path d="M397.989 169.93C394.238 168.289 390.194 167.468 386.091 167.409L386.033 167.234C375.131 167.234 365.109 173.153 359.834 182.648L359.248 183.879L335.92 230.182L310.014 281.232L312.3 285.745L331.7 323.842L332.697 325.776C335.041 329.879 338.558 333.161 342.778 335.271L346.353 337.03C348.873 334.802 351.042 332.165 352.742 329.176L353.797 327.066L412.115 212.012L413.521 209.258C420.086 194.195 413.17 176.553 397.989 169.93Z" fill="white"/>
<path d="M180.308 188.04L179.312 186.106C176.967 182.062 173.568 178.78 169.348 176.729L165.831 174.97C163.311 177.197 161.142 179.835 159.501 182.765L158.388 184.875L100.011 299.812L98.6046 302.566C91.8643 317.688 98.6632 335.388 113.726 342.129C127.91 348.459 144.614 342.891 152.116 329.234L152.761 328.003L176.264 281.701L202.053 230.826L199.65 226.138L180.308 188.04Z" fill="white"/>
</svg>
