<svg width="512" height="512" viewBox="0 0 512 512" fill="none" xmlns="http://www.w3.org/2000/svg">
<g clip-path="url(#clip0_1_252)">
<path fill-rule="evenodd" clip-rule="evenodd" d="M0.653198 307.458C0.653198 458.151 67.5314 511.358 188.085 511.358H471.812C494.001 511.358 511.997 493.363 511.997 471.157V40.191C511.997 17.994 494.001 0.0065918 471.812 0.0065918H40.8376C18.6488 0.0065918 0.653198 17.994 0.653198 40.191V307.458Z" fill="white"/>
<path fill-rule="evenodd" clip-rule="evenodd" d="M0 0.00415039V282.419C12.7684 238.091 37.9524 197.947 75.7078 162.03C132.747 107.814 200.003 80.6929 277.5 80.6929C325.553 80.6929 364.556 96.5632 394.442 128.328C424.32 160.093 439.296 201.558 439.296 252.771C439.296 326.879 410.641 390.959 353.38 444.986C319.867 476.596 282.702 498.883 241.951 511.996H512V0.00415039H0ZM320.745 438.331C354.011 397.031 370.645 345.769 370.645 284.511C370.645 233.266 357.647 190.767 331.659 157.033C305.67 123.298 273.003 106.443 233.68 106.443C183.837 106.443 142.25 127.048 108.868 168.25C75.5026 209.444 58.8118 260.87 58.8118 322.505C58.8118 374.005 71.81 416.471 97.7899 450C123.77 483.53 156.79 500.278 196.852 500.278C246.186 500.278 287.486 479.624 320.745 438.331Z" fill="#C7202D"/>
</g>
<defs>
<clipPath id="clip0_1_252">
<rect width="512" height="512" fill="white"/>
</clipPath>
</defs>
</svg>
