<svg width="512" height="512" viewBox="0 0 512 512" fill="none" xmlns="http://www.w3.org/2000/svg">
<rect width="512" height="512" fill="#EE3A43"/>
<path d="M255.858 106.475C251.861 106.984 246.992 107.783 244.958 108.22C241.324 108.946 235.148 110.254 225.338 112.289C218.798 113.597 204.773 117.884 199.178 120.21C196.78 121.154 194.018 122.244 193.001 122.535C187.478 124.279 170.329 132.926 163.571 137.359C152.671 144.626 151.072 145.788 146.494 149.712C125.711 167.516 111.469 189.17 104.565 213.369C101.368 224.632 100.641 230.373 100.714 244.979C100.714 259.875 101.441 265.325 103.911 268.595C108.271 274.263 111.614 272.083 111.614 263.581C111.614 247.74 115.102 228.411 120.77 213.005C131.234 184.52 152.162 160.976 179.34 147.024C190.603 141.283 193.946 140.048 206.808 136.705C210.877 135.615 213.493 135.76 213.202 137.068C213.057 137.795 207.534 140.629 199.032 144.262C175.561 154.436 168.439 158.868 156.449 170.64C139.736 186.99 130.144 202.977 123.895 224.923C120.915 235.314 120.043 247.231 120.552 270.049C121.133 294.174 121.933 301.732 124.767 310.379C127.237 317.864 133.487 331.016 137.193 336.466C141.553 342.716 157.176 358.267 163.643 362.699C164.515 363.281 167.785 365.606 170.91 367.786C182.828 376.07 194.236 381.956 203.538 384.427C210.368 386.316 222.94 388.859 225.338 388.859C227.663 388.859 229.116 390.676 227.881 392.129C226.864 393.365 220.324 393.583 214.801 392.565C198.669 389.586 186.824 385.735 173.744 379.34C159.283 372.219 143.515 358.412 130.653 341.48C121.569 329.563 119.244 327.456 117.137 329.272C113.067 332.615 117.064 345.622 126.075 358.339C134.141 369.675 150.636 384.427 162.117 390.531C186.098 403.32 215.746 408.552 244.958 405.209C268.211 402.448 288.631 396.271 309.631 385.444C314.209 383.119 316.026 381.956 323.293 377.087C324.455 376.288 326.781 374.689 328.597 373.454C333.611 370.039 347.854 356.086 352.65 349.837C370.89 325.93 380.7 304.566 384.188 281.312C386.15 268.377 384.914 237.276 381.862 220.635C378.592 203.268 375.686 195.347 367.91 182.703C362.678 174.274 361.661 172.966 354.249 165.554C337.899 149.204 312.247 134.598 296.115 132.345C282.018 130.383 280.347 130.02 278.821 128.639C275.405 125.442 277.658 123.334 283.98 123.843C299.967 125.151 312.756 129.22 329.251 138.376C347.346 148.332 361.443 159.232 370.018 169.914C382.734 185.682 392.472 212.424 395.088 238.439C396.396 251.301 395.524 279.786 393.634 288.942C389.565 308.272 386.876 316.556 380.409 329.563C368.274 353.906 350.325 372.073 318.86 391.693C314.791 394.309 313.265 396.271 313.919 398.088C314.282 399.033 315.154 399.178 318.206 398.815C325.545 398.015 335.566 392.65 347.636 383.845C355.719 377.95 355.751 377.655 360.716 373.454C364.67 370.108 382.589 352.816 387.894 345.986C398.576 332.106 404.389 321.134 408.749 306.6C414.272 287.852 416.597 267.069 415.87 242.435C415.58 234.442 415.071 226.594 414.708 224.995C414.344 223.397 413.4 218.819 412.528 214.822C407.659 191.932 395.96 167.516 381.572 150.148C362.46 127.113 338.117 114.033 301.275 107.129C293.572 105.749 265.087 105.313 255.858 106.475ZM289.357 165.626C290.811 166.571 291.755 169.042 292.627 174.201C293.063 176.962 294.081 180.814 294.735 182.848L295.97 186.482L311.157 191.641C326.853 196.946 329.033 197.818 340.224 203.268C348.363 207.192 350.325 209.081 349.598 212.206C349.017 214.822 345.602 217.002 343.204 216.348C342.404 216.13 328.888 216.275 313.337 216.711C286.887 217.365 256.148 219.255 244.231 220.999C241.47 221.435 235.366 222.234 230.788 222.815C221.995 223.905 213.42 225.068 195.908 227.539C190.094 228.338 182.9 229.355 179.921 229.719C176.941 230.155 171.419 230.954 167.713 231.608C161.536 232.625 160.737 232.625 159.138 231.535C157.176 230.3 157.249 230.3 157.83 228.701C159.211 225.068 185.444 210.171 203.901 202.469C208.479 200.507 212.694 198.69 213.202 198.254C213.711 197.891 217.272 192.877 221.05 187.136C225.774 180.014 228.535 176.599 229.552 176.381C230.424 176.236 237.037 174.855 244.231 173.402C251.425 171.948 258.329 170.64 259.491 170.422C260.727 170.204 265.959 169.114 271.118 167.952C283.907 165.118 287.904 164.609 289.357 165.626ZM241.542 228.483C241.688 229.21 241.034 231.027 240.089 232.48C239.072 233.933 237.328 236.622 236.165 238.439C233.113 243.089 228.826 247.159 227.009 247.159C224.902 247.159 222.794 245.124 222.794 243.017C222.794 238.439 227.808 232.553 234.784 229.065C239.508 226.594 241.179 226.521 241.542 228.483ZM332.376 239.311C333.611 240.546 333.466 243.38 331.795 248.176C330.341 252.173 330.341 252.463 331.504 253.771C332.158 254.571 333.466 255.152 334.338 255.152C336.518 255.152 339.425 257.55 338.698 258.713C337.753 260.239 332.376 262.419 329.397 262.419C327.798 262.419 325.473 261.91 324.092 261.256C321.839 260.166 321.549 260.166 319.514 261.619C314.791 265.035 308.251 267.578 304.763 267.36C302.946 267.287 300.984 267.578 300.403 268.014C295.825 271.72 289.43 273.319 278.457 273.391C274.388 273.391 269.592 273.682 267.703 273.973C261.817 274.918 260.509 272.592 263.924 267.215C265.523 264.744 274.824 256.169 281.655 250.865C282.672 250.065 283.326 249.339 283.108 249.121C282.89 248.903 280.492 249.121 277.658 249.484C274.897 249.847 271.554 249.993 270.173 249.702C267.339 249.193 264.941 247.013 264.941 245.051C264.941 242.435 266.903 241.345 271.699 241.345C274.17 241.345 278.457 240.837 281.291 240.255C284.053 239.674 288.34 239.165 290.665 239.165C295.897 239.165 297.641 240.401 297.641 244.034C297.641 246.287 296.624 247.595 288.849 255.515C284.053 260.457 280.347 264.599 280.71 264.817C281.945 265.471 292.991 265.979 295.389 265.471L297.932 264.889L297.714 260.893C297.569 257.405 297.859 256.46 300.039 253.335C303.237 248.612 309.922 243.235 315.081 241.2C317.261 240.328 321.549 239.383 324.528 239.165C327.507 238.875 330.341 238.657 330.777 238.584C331.141 238.511 331.867 238.802 332.376 239.311ZM201.14 240.691C205.572 242.435 209.424 245.778 210.877 249.121C211.458 250.429 211.894 253.408 211.894 255.733C211.894 264.163 205.427 272.083 195.254 276.08C187.551 279.132 184.717 279.568 182.392 278.042C181.374 277.388 180.43 276.952 180.357 277.098C180.212 277.243 179.485 279.132 178.613 281.312C168.149 308.126 165.242 313.14 161.609 309.87C160.301 308.708 160.155 307.981 160.519 303.112C161.318 292.285 168.73 271.211 176.36 258.204C178.322 254.934 179.921 252.1 179.921 252.027C179.921 251.882 178.831 251.955 177.45 252.1C175.488 252.318 174.761 252.1 174.107 250.865C173.017 248.83 173.599 247.159 176.36 244.543C181.447 239.674 193.655 237.712 201.14 240.691ZM262.834 249.411C264.723 251.301 264.287 253.553 261.09 257.986C258.547 261.474 257.529 262.637 249.899 270.485L244.667 275.862L252.806 275.935C257.311 275.935 265.232 276.153 270.391 276.298C277.077 276.516 280.855 276.298 283.326 275.572C289.721 273.755 289.648 277.679 283.253 280.804C278.239 283.347 272.789 284.146 257.311 284.51C248.228 284.8 241.76 285.309 238.418 286.108C227.736 288.652 225.701 288.288 225.701 283.856C225.701 280.804 228.68 277.17 239.798 266.779C249.972 257.332 250.698 256.387 247.283 257.405C244.013 258.349 237.037 258.204 234.784 257.187C233.767 256.751 232.75 255.515 232.459 254.571C231.66 251.373 233.985 250.356 243.286 249.702C247.792 249.411 252.951 248.903 254.768 248.612C260.145 247.74 261.235 247.813 262.834 249.411ZM227.881 252.681C229.552 257.041 228.099 263.218 222.504 274.99C220.251 279.714 218.434 284.074 218.434 284.8C218.434 288.143 214.51 288.87 211.822 285.963C210.296 284.364 210.078 283.42 210.078 278.914C210.078 274.191 210.368 273.173 212.912 268.595C215.964 263.073 223.303 252.245 224.611 251.373C225.992 250.356 227.227 250.792 227.881 252.681ZM311.448 281.312C311.448 282.475 310.867 284.582 310.213 286.036C309.559 287.416 309.195 288.797 309.486 289.015C309.704 289.306 312.683 288.797 316.026 287.998C323.947 285.963 329.978 285.236 330.632 286.254C331.577 287.78 326.054 290.396 307.451 297.444C304.835 298.462 304.472 298.97 303.091 303.185C302.219 305.728 300.984 309.144 300.257 310.742C299.531 312.341 298.15 316.192 297.205 319.317C293.354 331.38 291.537 333.778 289.648 329.272C288.34 326.148 289.139 316.774 291.319 308.199C293.209 300.932 293.063 300.206 289.793 300.206C287.541 300.206 284.416 297.008 285.07 295.337C286.015 292.576 286.887 292.212 292.119 292.212H297.423L300.839 286.835C305.053 280.077 308.033 277.388 310.067 278.406C310.939 278.914 311.448 279.932 311.448 281.312ZM246.556 290.468C246.774 291.122 246.12 295.119 245.03 299.406C242.705 308.635 242.632 310.016 244.449 309.289C245.103 308.998 246.484 308.562 247.356 308.344C250.044 307.763 249.172 311.033 246.048 313.068C241.615 316.047 241.106 316.774 240.598 320.334C240.307 322.224 239.653 325.639 239.144 327.819C238.636 329.999 237.982 332.688 237.764 333.778C236.964 337.193 233.912 340.172 231.078 340.172C226.936 340.172 225.483 335.449 227.154 327.092C227.445 325.276 227.663 323.75 227.518 323.604C227.445 323.532 224.102 324.476 220.178 325.857L212.984 328.255L210.732 337.338C208.188 347.512 206.953 350.273 204.192 352.453C201.721 354.415 199.396 354.415 197.652 352.453C195.908 350.491 195.908 342.207 197.652 337.048C199.614 331.307 199.323 330.29 195.762 329.781C191.838 329.272 188.932 326.366 190.094 324.186C191.112 322.224 194.018 320.843 199.396 319.753C203.32 318.954 204.046 318.518 204.41 316.919C204.991 314.448 212.04 300.932 214.801 296.936C218.943 290.904 222.14 289.088 223.158 292.14C223.739 293.956 221.268 304.13 218.87 310.306C217.78 312.922 216.981 315.32 216.981 315.684C216.981 316.41 220.469 315.902 226.573 314.23C230.642 313.14 230.642 313.14 232.314 308.635C235.002 301.441 239.144 293.448 241.324 291.268C243.577 289.088 245.83 288.724 246.556 290.468ZM283.253 298.244C283.471 299.188 283.108 303.548 282.599 307.908C282.018 312.268 281.727 317.864 281.945 320.334C282.236 323.968 282.091 324.84 281.146 325.203C279.257 325.93 275.696 323.314 273.879 319.898C272.935 318.082 272.063 316.556 271.917 316.41C271.772 316.192 270.028 317.791 268.139 319.826C261.962 326.438 254.986 328.764 251.134 325.566C249.608 324.258 249.318 323.459 249.39 319.898C249.39 317.5 250.117 313.94 251.134 311.178L252.878 306.528L251.207 305.22C249.172 303.548 249.972 302.095 253.387 301.368C256.73 300.714 259.055 301.586 260.218 303.912C261.453 306.237 261.671 311.614 260.581 314.303C259.637 316.919 260.436 316.701 265.159 312.995C269.592 309.58 273.443 305.292 276.423 300.569C278.53 297.226 279.257 296.572 281.364 296.572C282.454 296.572 283.035 297.081 283.253 298.244Z" fill="white"/>
<path d="M317.625 248.539C314.791 249.775 309.268 255.152 309.268 256.605C309.268 257.768 310.576 257.477 315.517 255.152C319.151 253.481 320.241 252.609 320.604 251.01C320.895 249.92 321.403 248.539 321.839 248.031C322.857 246.723 321.113 246.941 317.625 248.539Z" fill="white"/>
<path d="M188.278 250.647C188.06 250.865 187.914 252.028 187.914 253.19C187.914 254.353 186.461 259.658 184.644 265.035C180.938 275.935 180.866 276.516 182.682 275.572C183.336 275.208 186.025 274.046 188.568 272.883C194.309 270.267 199.832 265.108 200.922 261.329C201.503 259.076 201.43 258.132 200.268 255.952C199.541 254.426 198.015 252.827 196.852 252.246C194.527 251.155 188.859 250.138 188.278 250.647Z" fill="white"/>
<path d="M98.6792 286.254C96.2085 288.87 95.4818 293.157 96.3538 299.406C97.7345 309.144 99.9872 313.431 105.074 315.974C108.998 318.009 111.687 318.082 113.431 316.192C114.593 314.957 114.593 314.158 113.867 307.327C113.431 303.185 112.849 298.026 112.631 295.846C111.832 288.216 109.434 285.018 104.057 284.437C101.077 284.074 100.569 284.219 98.6792 286.254Z" fill="white"/>
<path d="M437.021 463.449V453.472H433.429V452.138H442.071V453.472H438.464V463.449H437.021Z" fill="#EE3A43"/>
<path d="M443.514 463.449V452.138H445.686L448.267 460.146C448.505 460.892 448.678 461.45 448.788 461.821C448.911 461.409 449.105 460.805 449.368 460.007L451.978 452.138H453.919V463.449H452.529V453.982L449.36 463.449H448.059L444.905 453.82V463.449H443.514Z" fill="#EE3A43"/>
</svg>
