<svg width="512" height="512" viewBox="0 0 512 512" fill="none" xmlns="http://www.w3.org/2000/svg">
<path fill-rule="evenodd" clip-rule="evenodd" d="M258.254 196.962C317.8 196.962 366.363 245.529 366.363 305.071C366.363 364.617 317.8 413.183 258.254 413.183C198.708 413.183 150.143 364.617 150.143 305.073C150.143 245.529 198.71 196.962 258.254 196.962Z" fill="black"/>
<path fill-rule="evenodd" clip-rule="evenodd" d="M151.653 305.073C151.653 246.294 199.475 198.474 258.256 198.474C317.036 198.474 364.856 246.295 364.856 305.073C364.856 363.855 317.036 411.673 258.256 411.673C199.475 411.673 151.653 363.855 151.653 305.073Z" fill="#AABAC2"/>
<path fill-rule="evenodd" clip-rule="evenodd" d="M166.242 305.073C166.242 355.81 207.518 397.088 258.255 397.088C308.991 397.088 350.269 355.81 350.269 305.073C350.269 254.339 308.991 213.063 258.255 213.063C207.518 213.061 166.242 254.339 166.242 305.073Z" fill="black"/>
<path fill-rule="evenodd" clip-rule="evenodd" d="M167.756 305.073C167.756 255.173 208.354 214.577 258.254 214.577C308.153 214.577 348.75 255.173 348.75 305.073C348.75 354.974 308.153 395.572 258.254 395.572C208.354 395.572 167.756 354.974 167.756 305.073Z" fill="white"/>
<path fill-rule="evenodd" clip-rule="evenodd" d="M172.803 305.073C172.803 352.191 211.137 390.525 258.256 390.525C305.374 390.525 343.706 352.19 343.706 305.073C343.706 257.956 305.372 219.622 258.254 219.622C211.135 219.622 172.803 257.954 172.803 305.073Z" fill="black"/>
<path fill-rule="evenodd" clip-rule="evenodd" d="M174.401 305.073C174.401 258.838 212.018 221.221 258.254 221.221C304.491 221.221 342.105 258.838 342.105 305.073C342.105 351.311 304.491 388.924 258.254 388.924C212.018 388.924 174.401 351.309 174.401 305.073Z" fill="white"/>
<path fill-rule="evenodd" clip-rule="evenodd" d="M342.183 305.765C342.185 305.532 342.192 305.303 342.192 305.071C342.192 304.798 342.183 304.523 342.181 304.249H265.335L340.691 289.258C340.595 288.762 340.497 288.266 340.394 287.77L265.632 302.645L336.018 273.485C335.826 273.017 335.633 272.553 335.434 272.088L265.042 301.245L328.345 258.948C328.067 258.526 327.786 258.105 327.501 257.69L264.198 299.986L318.002 246.184C317.647 245.823 317.29 245.467 316.928 245.114L263.129 298.914L305.394 235.659C304.977 235.374 304.554 235.097 304.132 234.82L261.867 298.075L289.375 231.666L287.976 231.086L260.472 297.494L273.022 234.394L271.536 234.097L259.235 295.934V230.764H257.217V295.934L244.505 232.033L243.019 232.33L255.982 297.494L227.792 229.437L226.391 230.017L254.584 298.077L212.337 234.848C211.913 235.123 211.492 235.404 211.077 235.688L253.325 298.916L199.551 245.142C199.189 245.495 198.831 245.852 198.478 246.212L252.253 299.986L188.991 257.718C188.706 258.133 188.425 258.554 188.147 258.973L251.414 301.248L181.065 272.11C180.866 272.571 180.675 273.038 180.483 273.506L250.828 302.645L176.112 287.781C176.007 288.276 175.911 288.773 175.815 289.272L251.116 304.249H174.328C174.326 304.523 174.316 304.798 174.316 305.071C174.316 305.303 174.325 305.532 174.326 305.765H249.93L175.748 320.52C175.842 321.019 175.932 321.516 176.035 322.011L250.825 307.133L180.355 336.323C180.543 336.792 180.733 337.258 180.929 337.727L251.409 308.534L187.978 350.917C188.255 351.336 188.533 351.76 188.816 352.179L252.252 309.788L198.296 363.747C198.65 364.111 199.005 364.468 199.367 364.821L253.327 310.86L210.91 374.344C211.325 374.628 211.746 374.909 212.168 375.187L254.585 311.703L225.349 382.286C225.813 382.483 226.279 382.679 226.748 382.865L258.229 306.869L289.717 382.886C290.184 382.696 290.651 382.505 291.116 382.308L261.871 311.709L304.304 375.216C304.727 374.939 305.147 374.658 305.562 374.373L263.127 310.866L317.116 364.851C317.475 364.498 317.831 364.141 318.186 363.779L264.201 309.79L327.676 352.204C327.96 351.788 328.237 351.364 328.516 350.942L265.041 308.532L335.572 337.746C335.767 337.281 335.957 336.815 336.145 336.346L265.626 307.135L340.472 322.024C340.575 321.528 340.666 321.032 340.76 320.533L266.521 305.767L342.183 305.765Z" fill="black"/>
<path fill-rule="evenodd" clip-rule="evenodd" d="M216.99 211.906C211.32 210.512 206.517 209.861 203.31 210.278C193.709 211.531 182.19 216.268 170.285 222.013C162.652 225.697 153.175 230.512 134.229 241.693L151.875 243.023L150.031 257.764C160.485 250.917 174.472 241.315 187.392 235.78C192.85 233.443 198.116 231.831 202.845 231.457C206.414 231.176 209.442 232.088 212.967 232.976C228.342 236.847 243.143 241.22 258.258 241.22V219.542C243.916 219.542 228.667 214.768 216.99 211.906Z" fill="#009248"/>
<path fill-rule="evenodd" clip-rule="evenodd" d="M323.632 251.462C301.259 259.864 278.648 264.304 258.249 264.304C237.849 264.304 215.24 259.864 192.864 251.462L192.016 251.144L191.852 252.035C180.435 314.317 202.615 368.342 257.775 412.607L258.249 412.988L258.723 412.607C313.885 368.342 336.062 314.317 324.645 252.035L324.482 251.144L323.632 251.462Z" fill="black"/>
<path fill-rule="evenodd" clip-rule="evenodd" d="M258.251 265.818C278.567 265.818 301.037 261.44 323.296 253.185C325.114 263.367 326.038 273.332 326.038 283.062C326.038 331.751 303.318 374.681 258.251 411.027C213.184 374.681 190.461 331.751 190.461 283.062C190.461 273.332 191.386 263.365 193.203 253.185C215.463 261.441 237.935 265.818 258.251 265.818Z" fill="white"/>
<path fill-rule="evenodd" clip-rule="evenodd" d="M258.25 403.284V273.57C237.089 273.57 218.122 270.126 198.928 263.591C191.746 318.831 213.939 363.064 258.25 403.284Z" fill="#EE3124"/>
<path fill-rule="evenodd" clip-rule="evenodd" d="M258.204 289.857C278.572 289.857 295.182 306.468 295.182 326.837C295.182 347.206 278.572 363.816 258.204 363.816C237.837 363.816 221.225 347.206 221.225 326.837C221.225 306.468 237.837 289.857 258.204 289.857Z" fill="#FDB913"/>
<path fill-rule="evenodd" clip-rule="evenodd" d="M220.465 326.837C220.465 347.646 237.395 364.576 258.204 364.576C279.012 364.576 295.941 347.646 295.941 326.837C295.941 306.027 279.012 289.098 258.204 289.098C237.395 289.1 220.465 306.029 220.465 326.837ZM221.983 326.837C221.983 306.863 238.232 290.617 258.204 290.617C278.176 290.617 294.422 306.863 294.422 326.837C294.422 346.81 278.176 363.056 258.204 363.056C238.232 363.056 221.983 346.81 221.983 326.837Z" fill="black"/>
<path fill-rule="evenodd" clip-rule="evenodd" d="M220.538 326.127C222.788 330.335 226.641 334.477 231.68 338.114L232.567 336.884C227.715 333.382 224.016 329.417 221.874 325.413L220.538 326.127Z" fill="black"/>
<path fill-rule="evenodd" clip-rule="evenodd" d="M238.341 333.187L239.495 332.205C231 322.208 232.871 305.231 243.75 293.556L242.641 292.52C231.247 304.753 229.357 322.611 238.341 333.187Z" fill="black"/>
<path fill-rule="evenodd" clip-rule="evenodd" d="M255.189 310.94L256.639 310.5C253.851 301.346 256.604 295.601 265.841 291.286L265.201 289.914C255.26 294.559 252.174 301.04 255.189 310.94Z" fill="black"/>
<path fill-rule="evenodd" clip-rule="evenodd" d="M274.513 324.979C283.195 333.977 285.126 348.164 278.824 356.602L280.038 357.51C286.881 348.349 284.936 333.599 275.604 323.924L274.513 324.979Z" fill="black"/>
<path fill-rule="evenodd" clip-rule="evenodd" d="M282.947 315.672C289.375 320.982 293.077 329.128 292.85 337.454L294.365 337.494C294.609 328.704 290.701 320.107 283.914 314.502L282.947 315.672Z" fill="black"/>
<path fill-rule="evenodd" clip-rule="evenodd" d="M262.611 334.623C268.739 345.999 267.775 357.643 260.266 362.936L261.14 364.173C269.298 358.426 270.452 345.978 263.945 333.9L262.611 334.623Z" fill="black"/>
<path fill-rule="evenodd" clip-rule="evenodd" d="M248.468 352.498L248.242 354C254.924 355.004 263.981 351.966 267.604 344.349L266.235 343.697C262.925 350.658 254.61 353.428 248.468 352.498Z" fill="black"/>
<path fill-rule="evenodd" clip-rule="evenodd" d="M317.265 262.89C309.229 265.628 301.528 267.729 293.732 269.313L293.508 269.36L213.352 349.266L213.622 349.762C217.778 357.464 222.806 365.17 228.56 372.663L229.085 373.347L319.594 283.12L319.59 282.801C319.553 276.484 319.108 269.996 318.263 263.507L318.144 262.588L317.265 262.89Z" fill="black"/>
<path fill-rule="evenodd" clip-rule="evenodd" d="M316.848 264.617C317.597 270.638 318.014 276.644 318.064 282.506C317.601 282.968 230.471 369.827 229.249 371.048C223.885 363.994 219.171 356.763 215.233 349.533C216.042 348.729 293.954 271.057 294.262 270.748C301.747 269.215 309.155 267.199 316.848 264.617Z" fill="#0095DA"/>
<path fill-rule="evenodd" clip-rule="evenodd" d="M232.321 356.957L234.433 354.846C235.26 355.599 236.135 355.981 237.065 355.988C237.997 355.995 238.835 355.631 239.571 354.893C240.384 354.082 240.796 353.198 240.812 352.241C240.828 351.281 240.444 350.408 239.654 349.62C238.966 348.929 238.251 348.573 237.518 348.555C236.783 348.53 235.683 348.933 234.215 349.744C234.144 349.785 234.016 349.865 233.84 349.969C232.14 350.992 230.592 351.418 229.201 351.245C228.582 351.176 228.01 351.024 227.487 350.773C226.959 350.52 226.48 350.181 226.042 349.74C224.736 348.434 224.093 346.966 224.115 345.335C224.139 343.706 224.817 342.219 226.159 340.877C227.401 339.633 228.764 338.991 230.248 338.95C231.735 338.905 233.148 339.47 234.486 340.648L232.286 342.849C231.641 342.277 230.935 342.006 230.163 342.027C229.387 342.052 228.702 342.366 228.097 342.973C227.449 343.621 227.13 344.352 227.141 345.17C227.151 345.996 227.483 346.734 228.138 347.389C228.37 347.621 228.622 347.797 228.899 347.927C229.178 348.054 229.478 348.127 229.81 348.145C230.486 348.182 231.48 347.802 232.786 347.011C233.388 346.647 233.865 346.377 234.206 346.196C235.656 345.499 237.017 345.236 238.291 345.399C239.562 345.563 240.7 346.145 241.708 347.153C243.179 348.622 243.918 350.255 243.923 352.051C243.93 353.844 243.195 355.477 241.724 356.95C240.338 358.336 238.78 359.03 237.049 359.037C235.322 359.04 233.744 358.35 232.321 356.957ZM257.292 340.772L255.06 343.005L252.486 340.433L254.721 338.197L257.292 340.772ZM274.435 323.628L266.752 331.313L251.519 316.082L253.876 313.725L267.004 326.855L272.332 321.523L274.435 323.628ZM285.19 312.875L282.954 315.111L280.38 312.536L282.615 310.299L285.19 312.875ZM288.129 292.229L288.878 291.483C290.094 290.266 290.786 289.229 290.956 288.37C291.127 287.504 290.82 286.679 290.025 285.882C289.322 285.179 288.564 284.893 287.755 285.023C286.947 285.154 286.063 285.703 285.094 286.67L283.832 287.932L288.129 292.229ZM294.898 299.047L296.751 297.193C297.841 296.105 298.451 295.113 298.584 294.215C298.721 293.324 298.387 292.477 297.589 291.68C296.726 290.818 295.805 290.433 294.82 290.523C293.835 290.614 292.822 291.178 291.778 292.222L289.925 294.076L294.898 299.047ZM282.909 284.686C284.645 282.952 286.317 281.995 287.93 281.802C289.54 281.615 291.027 282.198 292.387 283.559C293.015 284.187 293.42 284.89 293.608 285.667C293.796 286.441 293.766 287.265 293.516 288.143C294.529 287.572 295.587 287.369 296.684 287.547C297.78 287.721 298.771 288.244 299.649 289.125C300.359 289.834 300.886 290.642 301.229 291.551C301.568 292.459 301.697 293.366 301.609 294.279C301.509 295.162 301.232 295.995 300.778 296.785C300.325 297.574 299.53 298.534 298.398 299.665L294.648 303.415L279.415 288.184L282.909 284.686ZM315.26 282.805L313.026 285.037L310.452 282.466L312.687 280.229L315.26 282.805Z" fill="#FDB913"/>
<path fill-rule="evenodd" clip-rule="evenodd" d="M317.328 262.872C297.411 269.655 278.639 272.814 258.251 272.814C237.862 272.814 219.09 269.657 199.172 262.872L198.297 262.574L198.176 263.49C191.331 316.151 210.257 360.746 257.741 403.846L258.251 404.308L258.76 403.846C306.242 360.746 325.17 316.151 318.325 263.49L318.206 262.574L317.328 262.872ZM198.338 283.878C198.338 277.569 198.776 271.139 199.591 264.599C219.331 271.219 238.002 274.328 258.251 274.328C278.499 274.328 297.17 271.219 316.911 264.599C317.725 271.141 318.164 277.571 318.164 283.878C318.164 327.233 298.776 365.286 258.251 402.244C217.725 365.286 198.338 327.233 198.338 283.878Z" fill="black"/>
<path fill-rule="evenodd" clip-rule="evenodd" d="M382.281 241.693C363.334 230.512 353.858 225.697 346.225 222.013C334.319 216.268 322.801 211.531 313.2 210.278C309.992 209.861 305.19 210.512 299.518 211.906C287.843 214.768 272.594 219.541 258.256 219.541V241.218C273.37 241.218 288.17 236.845 303.546 232.974C307.069 232.087 310.097 231.174 313.668 231.455C318.396 231.827 323.662 233.441 329.118 235.778C342.038 241.314 356.027 250.915 366.48 257.762L364.636 243.021L382.281 241.693Z" fill="#EE3124"/>
<path fill-rule="evenodd" clip-rule="evenodd" d="M299.337 211.171L292.795 212.841C282.086 215.627 269.948 218.785 258.254 218.785C246.558 218.785 234.421 215.627 223.714 212.841L217.17 211.171C211.056 209.671 206.36 209.119 203.209 209.527C194.875 210.614 184.619 214.254 169.954 221.331C162.753 224.806 153.432 229.479 133.84 241.04L131.764 242.267C131.764 242.267 149.574 243.607 151.022 243.715C150.845 245.129 149.073 259.296 149.073 259.296L154.094 255.993C163.978 249.472 176.281 241.36 187.689 236.472C193.505 233.982 198.623 232.546 202.901 232.209C205.975 231.966 208.628 232.646 211.698 233.432L218.623 235.2C232.172 238.682 244.968 241.972 258.254 241.972C271.537 241.972 284.335 238.682 297.883 235.2L304.809 233.432C307.877 232.646 310.53 231.966 313.604 232.209C317.883 232.546 323.002 233.982 328.816 236.472C340.224 241.358 352.525 249.472 362.413 255.993L367.435 259.296C367.435 259.296 365.66 245.129 365.481 243.715C366.929 243.607 384.743 242.267 384.743 242.267L382.665 241.04C363.075 229.479 353.752 224.805 346.551 221.331C331.883 214.254 321.626 210.614 313.296 209.527C310.147 209.119 305.449 209.671 299.337 211.171ZM293.175 214.307L299.697 212.642C305.629 211.187 310.138 210.645 313.102 211.031C321.268 212.095 331.382 215.691 345.898 222.696C352.806 226.031 361.706 230.495 379.811 241.12C376.213 241.392 363.786 242.327 363.786 242.327C363.786 242.327 365.203 253.65 365.524 256.229C364.455 255.526 363.247 254.731 363.247 254.731C353.312 248.179 340.95 240.025 329.414 235.086C323.364 232.493 318.231 231.059 313.725 230.706C310.399 230.443 307.503 231.185 304.434 231.971L297.507 233.739C284.054 237.196 271.349 240.464 258.256 240.464C245.164 240.464 232.456 237.196 219.003 233.739L212.076 231.971C209.008 231.185 206.111 230.443 202.785 230.706C198.279 231.061 193.146 232.493 187.094 235.086C175.562 240.025 163.199 248.18 153.262 254.731C153.262 254.731 152.055 255.526 150.987 256.229C151.31 253.65 152.726 242.327 152.726 242.327C152.726 242.327 140.299 241.392 136.701 241.12C154.808 230.493 163.706 226.029 170.614 222.696C185.128 215.693 195.242 212.095 203.408 211.031C206.37 210.645 210.88 211.187 216.811 212.642L223.334 214.307C234.13 217.116 246.367 220.299 258.256 220.299C270.145 220.299 282.379 217.115 293.175 214.307Z" fill="black"/>
<path fill-rule="evenodd" clip-rule="evenodd" d="M331.851 230.821L329.859 230.017L330.766 226.455C330.832 226.205 330.91 225.928 330.999 225.625C331.091 225.323 331.194 224.995 331.313 224.641C331.13 224.95 330.866 225.325 330.521 225.76C330.449 225.85 330.394 225.918 330.358 225.96L327.818 229.192L326.399 228.619L326.817 224.53C326.823 224.475 326.83 224.389 326.846 224.274C326.894 223.719 326.963 223.27 327.05 222.923C326.908 223.211 326.764 223.491 326.622 223.77C326.475 224.049 326.324 224.324 326.168 224.597L324.347 227.788L322.368 226.988L326.729 219.665L328.835 220.515L328.388 225.019C328.385 225.05 328.379 225.103 328.374 225.174C328.338 225.579 328.285 225.914 328.209 226.182C328.278 226.049 328.369 225.905 328.475 225.751C328.582 225.6 328.716 225.417 328.881 225.206L331.694 221.669L333.806 222.522L331.851 230.821ZM312.491 216.641L314.76 216.96L314.188 221.017C314.105 221.614 314.062 222.045 314.053 222.309C314.048 222.572 314.069 222.797 314.117 222.982C314.172 223.206 314.303 223.392 314.504 223.536C314.704 223.676 314.962 223.77 315.272 223.813C315.585 223.857 315.855 223.837 316.087 223.758C316.316 223.674 316.493 223.534 316.612 223.333C316.71 223.17 316.792 222.959 316.859 222.705C316.925 222.45 317.001 222.024 317.084 221.426L317.166 220.856L317.654 217.37L319.915 217.688L319.294 222.096C319.166 223.012 319.017 223.68 318.845 224.098C318.671 224.517 318.437 224.862 318.13 225.133C317.798 225.429 317.37 225.63 316.85 225.729C316.328 225.829 315.713 225.827 315.003 225.728C314.289 225.626 313.696 225.458 313.224 225.218C312.75 224.98 312.394 224.67 312.154 224.294C311.939 223.948 311.806 223.554 311.753 223.101C311.703 222.65 311.742 221.967 311.87 221.055L311.991 220.187L312.491 216.641ZM299.154 228.049L296.973 219.913L299.113 219.34L303.307 222.702C303.389 222.771 303.53 222.916 303.736 223.136C303.94 223.358 304.171 223.625 304.429 223.937C304.295 223.612 304.182 223.321 304.091 223.064C304.001 222.806 303.928 222.576 303.875 222.372L302.799 218.353L304.925 217.784L307.107 225.919L304.979 226.487L300.78 223.11C300.693 223.041 300.549 222.897 300.343 222.675C300.141 222.453 299.913 222.19 299.66 221.885C299.795 222.215 299.91 222.508 299.999 222.766C300.091 223.023 300.162 223.252 300.217 223.458L301.292 227.476L299.154 228.049ZM285.582 222.872L287.794 222.279L288.853 226.235C289.011 226.817 289.137 227.231 289.233 227.478C289.33 227.722 289.437 227.921 289.558 228.072C289.694 228.257 289.888 228.376 290.127 228.429C290.367 228.48 290.64 228.466 290.942 228.386C291.247 228.305 291.489 228.18 291.67 228.017C291.847 227.852 291.955 227.651 291.987 227.423C292.014 227.233 292.005 227.007 291.968 226.746C291.929 226.485 291.833 226.063 291.677 225.481L291.528 224.925L290.615 221.523L292.821 220.932L293.973 225.234C294.213 226.125 294.335 226.798 294.341 227.252C294.348 227.707 294.263 228.115 294.087 228.486C293.899 228.889 293.581 229.238 293.143 229.533C292.701 229.827 292.135 230.067 291.441 230.253C290.743 230.438 290.134 230.514 289.606 230.48C289.077 230.445 288.628 230.299 288.259 230.046C287.925 229.811 287.648 229.499 287.424 229.103C287.203 228.707 286.97 228.065 286.73 227.172L286.505 226.326L285.582 222.872ZM271.228 231.506C271.632 231.828 272.014 232.055 272.374 232.184C272.734 232.316 273.077 232.353 273.402 232.296C273.704 232.243 273.938 232.117 274.103 231.922C274.271 231.725 274.332 231.503 274.287 231.254C274.24 230.977 274.119 230.779 273.924 230.66C273.73 230.541 273.32 230.452 272.703 230.399C271.852 230.324 271.226 230.138 270.828 229.847C270.429 229.556 270.175 229.103 270.069 228.491C269.929 227.699 270.079 227.005 270.523 226.409C270.965 225.815 271.608 225.445 272.454 225.295C272.912 225.215 273.357 225.199 273.789 225.248C274.22 225.3 274.639 225.417 275.051 225.603L274.63 227.353C274.335 227.181 274.043 227.06 273.751 226.997C273.462 226.933 273.187 226.924 272.923 226.972C272.649 227.02 272.44 227.124 272.294 227.284C272.145 227.444 272.092 227.627 272.126 227.831C272.163 228.04 272.268 228.193 272.438 228.29C272.61 228.39 272.919 228.457 273.365 228.495C273.393 228.498 273.428 228.502 273.473 228.505C274.438 228.59 275.091 228.759 275.434 229.006C275.666 229.176 275.858 229.393 276.013 229.662C276.165 229.927 276.272 230.236 276.332 230.582C276.488 231.462 276.323 232.222 275.84 232.857C275.358 233.494 274.634 233.897 273.672 234.067C273.093 234.17 272.548 234.163 272.039 234.051C271.531 233.938 271.022 233.711 270.509 233.368L271.228 231.506ZM259.125 226.771L261.41 226.611L261.694 230.697C261.736 231.299 261.784 231.73 261.83 231.989C261.88 232.248 261.946 232.463 262.033 232.633C262.134 232.841 262.299 232.995 262.524 233.093C262.75 233.191 263.019 233.228 263.333 233.205C263.648 233.182 263.907 233.107 264.116 232.981C264.324 232.852 264.468 232.678 264.542 232.458C264.604 232.275 264.64 232.051 264.654 231.79C264.665 231.526 264.65 231.093 264.61 230.493L264.569 229.92L264.324 226.407L266.601 226.249L266.913 230.692C266.975 231.615 266.97 232.296 266.888 232.743C266.807 233.191 266.647 233.576 266.406 233.906C266.145 234.264 265.767 234.547 265.275 234.754C264.789 234.96 264.184 235.088 263.468 235.136C262.75 235.187 262.134 235.145 261.623 235.01C261.111 234.875 260.698 234.644 260.384 234.326C260.102 234.032 259.89 233.673 259.747 233.244C259.603 232.813 259.5 232.136 259.434 231.215L259.374 230.342L259.125 226.771Z" fill="black"/>
<path fill-rule="evenodd" clip-rule="evenodd" d="M185.168 230.64L181.878 222.888L186.629 220.87L187.35 222.57L184.661 223.713L185.23 225.057L187.767 223.981L188.473 225.644L185.937 226.72L186.492 228.028L189.183 226.887L189.921 228.624L185.168 230.64ZM203.014 225.346L200.863 225.421L200.568 217.003L202.966 216.919C203.905 216.886 204.567 216.909 204.952 216.989C205.333 217.067 205.66 217.214 205.933 217.429C206.253 217.672 206.501 217.984 206.677 218.366C206.854 218.746 206.948 219.172 206.968 219.642C206.984 220.144 206.92 220.59 206.771 220.975C206.624 221.365 206.398 221.685 206.091 221.94C205.861 222.132 205.584 222.274 205.266 222.366C204.948 222.459 204.432 222.517 203.724 222.542L203.333 222.556L202.92 222.57L203.014 225.346ZM202.851 220.719L203.289 220.703C203.841 220.684 204.222 220.593 204.435 220.435C204.648 220.277 204.75 220.016 204.737 219.651C204.725 219.298 204.608 219.051 204.389 218.909C204.169 218.767 203.788 218.707 203.243 218.726L202.785 218.742L202.851 220.719ZM210.81 226.274L212.99 218.139L215.208 218.733L213.538 224.968L216.294 225.708L215.785 227.609L210.81 226.274ZM221.482 220.364L223.694 220.955L222.632 224.913C222.476 225.495 222.378 225.918 222.339 226.178C222.302 226.439 222.295 226.665 222.322 226.855C222.35 227.084 222.457 227.282 222.638 227.449C222.82 227.612 223.063 227.738 223.367 227.818C223.67 227.898 223.94 227.912 224.18 227.861C224.418 227.806 224.611 227.687 224.753 227.504C224.872 227.353 224.977 227.153 225.076 226.91C225.174 226.663 225.3 226.249 225.456 225.667L225.603 225.112L226.514 221.71L228.721 222.301L227.568 226.603C227.33 227.495 227.099 228.14 226.877 228.535C226.656 228.931 226.379 229.244 226.042 229.476C225.676 229.73 225.227 229.875 224.7 229.911C224.171 229.946 223.559 229.87 222.866 229.684C222.171 229.497 221.601 229.258 221.163 228.963C220.723 228.667 220.407 228.317 220.213 227.914C220.041 227.545 219.958 227.137 219.961 226.683C219.966 226.228 220.087 225.556 220.327 224.663L220.554 223.816L221.482 220.364ZM230.585 231.311L232.479 223.105L234.818 223.644C235.732 223.855 236.362 224.045 236.703 224.212C237.042 224.379 237.324 224.592 237.539 224.851C237.782 225.142 237.943 225.483 238.021 225.864C238.099 226.249 238.091 226.651 237.995 227.069C237.847 227.705 237.572 228.186 237.169 228.512C236.767 228.839 236.25 228.997 235.622 228.99L237.093 232.814L234.566 232.23L233.425 228.583L232.683 231.796L230.585 231.311ZM233.682 227.467L234.097 227.563C234.578 227.675 234.951 227.675 235.21 227.561C235.469 227.449 235.64 227.215 235.721 226.865C235.815 226.454 235.782 226.138 235.611 225.914C235.444 225.692 235.118 225.525 234.626 225.412L234.179 225.309L233.682 227.467ZM240.593 233.395L242.055 225.099L244.34 225.502L242.877 233.798L240.593 233.395Z" fill="black"/>
<path fill-rule="evenodd" clip-rule="evenodd" d="M203.237 218.639L202.694 218.659L202.769 220.804L203.289 220.786C203.862 220.767 204.253 220.675 204.483 220.501C204.719 220.325 204.831 220.038 204.817 219.647C204.805 219.267 204.675 218.996 204.432 218.836C204.196 218.685 203.805 218.619 203.237 218.639ZM203.245 218.808C203.768 218.79 204.137 218.847 204.341 218.978C204.538 219.106 204.639 219.326 204.65 219.652C204.65 219.672 204.652 219.691 204.652 219.711C204.652 220.014 204.561 220.235 204.384 220.368C204.185 220.515 203.816 220.6 203.285 220.618C203.285 220.618 203.042 220.627 202.932 220.632C202.927 220.485 202.874 218.969 202.868 218.822C202.982 218.816 203.245 218.808 203.245 218.808Z" fill="#009248"/>
<path fill-rule="evenodd" clip-rule="evenodd" d="M234.099 225.289L233.581 227.529L234.078 227.642C234.584 227.758 234.965 227.756 235.244 227.635C235.528 227.511 235.716 227.257 235.803 226.881C235.904 226.444 235.862 226.102 235.679 225.861C235.5 225.621 235.161 225.447 234.646 225.328L234.117 225.207L234.099 225.289ZM234.243 225.408C234.353 225.433 234.609 225.491 234.609 225.491C235.077 225.6 235.393 225.758 235.546 225.962C235.642 226.088 235.689 226.255 235.689 226.455C235.689 226.572 235.674 226.702 235.642 226.844C235.567 227.165 235.411 227.382 235.177 227.481C234.935 227.586 234.58 227.586 234.117 227.479C234.117 227.479 233.89 227.426 233.783 227.403C233.815 227.255 234.209 225.553 234.243 225.408Z" fill="#009248"/>
<path fill-rule="evenodd" clip-rule="evenodd" d="M240.87 170.976V171.066H240.96C241.544 171.066 243.012 170.267 244.308 169.561C245.071 169.146 245.79 168.754 246.132 168.64L246.075 168.466C245.72 168.585 245.025 168.963 244.222 169.4C243.064 170.03 241.656 170.789 241.063 170.857C241.088 168.379 241.846 166.878 244.047 164.993L243.928 164.853C241.64 166.817 240.87 168.36 240.87 170.976Z" fill="black"/>
<path fill-rule="evenodd" clip-rule="evenodd" d="M296.401 171.123C294.733 171.714 292.922 171.329 291.952 169.403C290.172 170.949 287.987 171.165 285.094 170.03L273.123 153.741L274.944 137.269C277.977 138.82 281.356 139.134 282.753 138.989C291.783 138.05 284.196 131.164 297.267 125.216C301.94 116.598 309.531 113.664 313.881 112.807C335.533 108.535 364.049 110.798 386.285 110.614L414.74 110.376C412.983 114.71 406.89 117.422 400.721 118.779C399.085 122.737 396.996 124.936 392.005 126.965C391.687 128.537 390.525 133.127 379.496 137.028C377.152 143.403 365.758 148.022 355.494 149.946C352.917 155.056 343.862 156.667 339.479 156.016C339.083 157.429 335.915 159.191 334.674 159.051C334.889 159.629 335.113 162.135 331.989 161.489C332.596 163.477 332.184 164.583 331.277 165.151C330.338 165.736 328.869 165.749 327.433 165.564C327.142 166.76 326.143 167.211 324.991 167.256C323.683 167.305 322.174 166.831 321.26 166.326C321.283 167.994 320.158 168.516 318.634 168.407C316.914 168.285 314.956 167.405 314.207 166.587C313.922 168.384 312.285 169.123 310.546 169.199C309.355 169.252 308.116 168.995 307.227 168.557C307.105 169.992 305.845 170.535 304.782 170.553C302.748 170.59 300.3 168.72 299.881 167.501C299.324 169.235 297.918 170.585 296.401 171.123Z" fill="#FDB913"/>
<path fill-rule="evenodd" clip-rule="evenodd" d="M313.717 111.98C310.304 112.653 301.869 115.244 296.681 124.57C289.644 127.847 288.42 131.501 287.541 134.181C286.781 136.493 286.363 137.768 282.664 138.151C281.333 138.289 278.163 137.968 275.327 136.518L274.239 135.963L272.248 153.975L284.559 170.725L284.785 170.814C287.559 171.904 289.809 171.748 291.699 170.528C292.853 172.051 294.711 172.616 296.681 171.918C298.058 171.43 299.251 170.424 300.03 169.162C301.18 170.365 303.093 171.428 304.796 171.398C305.999 171.375 307.222 170.795 307.765 169.623C308.649 169.905 309.625 170.083 310.581 170.042C312.487 169.957 313.897 169.192 314.598 167.948C315.698 168.628 317.224 169.149 318.575 169.245C319.759 169.33 320.674 169.078 321.294 168.493C321.573 168.228 321.775 167.902 321.91 167.527C322.843 167.873 323.976 168.134 325.023 168.095C326.448 168.042 327.447 167.446 327.963 166.443C329.598 166.579 330.855 166.406 331.722 165.864C332.418 165.429 333.116 164.627 333.116 163.158C333.116 162.932 333.087 162.68 333.054 162.419C334.067 162.382 334.677 161.983 335.018 161.585C335.473 161.055 335.627 160.371 335.627 159.773V159.771C337.127 159.402 339.168 158.213 339.989 156.889C344.598 157.342 353.052 155.75 355.989 150.704C365.513 148.867 377.278 144.405 380.117 137.69C387.406 135.052 391.621 131.652 392.693 127.58C397.247 125.664 399.583 123.477 401.317 119.5C405.882 118.451 413.38 115.975 415.524 110.69L416 109.52L386.281 109.767C380.366 109.817 374.083 109.694 367.435 109.565C349.738 109.222 329.689 108.83 313.717 111.98ZM282.84 139.828C287.625 139.33 288.361 137.084 289.144 134.706C289.981 132.156 291.023 128.984 297.617 125.983L297.874 125.866L298.009 125.618C302.841 116.705 310.833 114.266 314.044 113.632C329.834 110.518 348.931 110.89 367.399 111.252C374.062 111.382 380.353 111.505 386.293 111.455C386.293 111.455 410.757 111.251 413.325 111.229C411.387 114.154 406.845 116.568 400.541 117.956L400.112 118.052L399.941 118.458C398.321 122.386 396.236 124.336 391.689 126.185L391.27 126.356L391.179 126.8C390.427 130.52 386.402 133.695 379.217 136.236L378.845 136.369L378.708 136.74C376.527 142.677 365.397 147.236 355.339 149.123L354.929 149.199L354.743 149.57C352.322 154.373 343.601 155.78 339.606 155.185L338.87 155.075L338.671 155.791C338.405 156.745 335.678 158.318 334.773 158.215L333.41 158.061L333.888 159.345C333.948 159.511 334.023 160.167 333.746 160.49C333.426 160.861 332.617 160.758 332.163 160.666L330.773 160.378L331.186 161.738C331.82 163.821 331.076 164.286 330.833 164.439C330.4 164.711 329.477 164.98 327.545 164.732L326.796 164.634L326.616 165.367C326.551 165.641 326.372 166.363 324.959 166.416C323.803 166.461 322.442 166.02 321.67 165.593L320.399 164.89L320.419 166.342C320.426 166.776 320.33 167.089 320.137 167.272C319.881 167.511 319.37 167.618 318.694 167.568C317.152 167.458 315.418 166.663 314.828 166.019L313.65 164.73L313.375 166.455C313.125 168.012 311.472 168.315 310.507 168.358C309.5 168.402 308.384 168.189 307.598 167.802L306.492 167.257L306.384 168.486C306.288 169.598 305.12 169.707 304.764 169.712C303.035 169.742 300.962 168.065 300.676 167.229L299.851 164.821L299.075 167.245C298.63 168.64 297.469 169.849 296.117 170.328C295.414 170.576 293.673 170.949 292.704 169.025L292.218 168.06L291.399 168.768C289.887 170.079 288.088 170.236 285.61 169.313C285.301 168.892 274.367 154.014 273.994 153.508C274.06 152.924 275.444 140.394 275.657 138.486C278.518 139.677 281.436 139.974 282.84 139.828Z" fill="black"/>
<path fill-rule="evenodd" clip-rule="evenodd" d="M233.326 166.503C231.739 167.167 230.466 167.463 229.254 167.417C228.042 167.371 226.968 166.984 225.937 166.276C224.771 168.331 223.005 169.22 221.339 169.212C219.45 169.201 217.882 167.957 217.07 166.104C215.959 167.756 213.567 170.525 211.063 170.495C210.081 170.484 209.256 169.852 208.855 168.147C207.897 168.619 206.61 169.054 205.483 169.139C204.031 169.251 202.84 168.784 202.945 167.082C201.612 167.907 199.559 168.686 198.054 168.692C196.724 168.697 195.823 168.102 196.22 166.409C195.904 166.752 193.78 167.859 192.14 167.685C191.281 167.595 190.557 167.149 190.294 166.06C188.882 166.242 187.311 165.903 186.136 165.106C184.959 164.31 184.177 163.057 184.34 161.408C180.21 162.345 180.105 159.14 180.318 158.561C178.973 158.256 176.778 157.429 176.19 156.016C170.896 155.878 164.022 155.578 160.345 150.997C160.345 150.997 160.474 150.615 160.258 150.607C151.885 150.246 139.997 145.925 137.653 139.55C127.732 135.831 124.617 131.797 123.745 129.765C118.343 127.941 113.894 125.935 112.724 121.743C106.225 120.714 98.5701 116.194 97.1396 111.528L128.23 111.354C150.466 111.229 178.98 108.864 200.634 113.136C204.984 113.993 214.138 118.82 218.811 127.439C226.862 127.625 229.308 140.593 235.539 140.709C237.786 140.751 241.307 138.607 244.166 133.315C242.952 133.672 241.777 133.83 240.659 133.821C239.61 133.812 238.614 133.654 237.693 133.373C242.728 131.098 242.425 127.188 242.517 125.561C241.348 126.081 239.344 126.232 237.807 125.731C238.753 124.505 239.715 122.043 239.255 120.345C237.883 121.516 236.852 122.04 235.459 122.333C235.541 120.875 235.386 119.633 234.861 118.446C232.555 113.239 225.085 114.965 225.234 109.378C226.154 110.413 227.458 111.258 228.937 111.258C229.712 111.258 230.484 110.985 231.169 110.299C231.528 109.852 231.677 109.32 231.68 108.775C231.684 107.98 231.375 107.158 230.931 106.542C229.732 104.874 228.007 104.368 226.273 104.421C223.628 104.501 220.961 105.877 220.088 106.406C220.43 101.804 224.622 99.6739 228.429 99.6632C230.648 99.6579 233.106 100.478 234.279 101.93C236.857 100.1 239.607 99.9703 243.11 101.812C247.025 103.869 255.956 106.308 260.272 105.17C259.314 107.348 256.71 108.104 255.47 108.438C258.677 108.4 261.809 108.77 264.171 109.519C262.379 110.363 260.861 111.398 259.312 112.245C262.086 112.491 264.784 112.626 267.071 113.771C265.199 114.208 264.047 114.962 263.751 115.945C265.126 117.219 267.591 117.212 270.06 117.892C272.38 118.531 274.701 119.779 276.132 123.268C274.733 123.268 273.29 123.454 272.078 124.015C275.278 126.546 277.525 129.02 278.338 131.212C276.877 131.279 275.567 131.552 274.366 132.131C277.115 134.231 279.546 136.396 280.986 138.756C279.319 138.959 277.653 139.294 275.988 139.761C278.707 141.715 280.746 143.933 281.798 146.152C280.711 145.914 279.358 145.786 278.27 145.902C281.234 148.761 283.669 151.948 284.523 154.896C283.451 154.479 282.265 154.238 281.019 154.085C281.784 156.32 282.297 158.556 282.448 160.788C287.128 164.294 289.769 168.127 289.366 174.31C288.22 173.691 287.071 173.292 285.923 173.113C287.618 176.082 287.511 178.937 286.397 182.348C285.547 181.292 284.656 180.547 283.717 180.109C283.722 183.759 283.209 186.773 282.072 189.02L280.755 186.846C279.143 190.321 275.796 194.566 272.742 193.583C270.069 196.257 267.771 197.006 263.554 198.923C262.947 198.252 262.061 197.679 261.257 197.056C260.093 198.055 259.188 199.122 258.261 200.528C257.45 199.404 256.554 198.405 255.535 197.59L252.186 198.836C244.982 193.906 238.37 192.6 239.12 185.559C238.258 185.866 237.491 186.695 236.526 187.621C235.716 185.28 235.659 181.206 236.109 177.665C234.779 177.855 234.194 178.014 233.02 178.62C232.941 177.283 232.873 174.229 234.545 170.869C232.747 171.324 232.325 172.012 231.386 172.871C231.379 170.539 232.105 168.269 233.326 166.503Z" fill="#FDB913"/>
<path fill-rule="evenodd" clip-rule="evenodd" d="M228.42 98.8166C224.269 98.8272 219.624 101.188 219.241 106.34L219.118 107.967L220.515 107.123C221.607 106.462 224.056 105.326 226.29 105.259C228.053 105.206 229.345 105.784 230.241 107.032C230.612 107.55 230.834 108.198 230.832 108.766C230.83 109.164 230.718 109.501 230.504 109.769C230.086 110.177 229.552 110.411 228.929 110.411C227.49 110.411 226.386 109.41 225.859 108.816L224.444 107.222L224.388 109.352C224.292 112.923 226.931 114.041 229.261 115.026C231.174 115.835 233.151 116.673 234.087 118.783C234.53 119.786 234.694 120.865 234.614 122.281L234.552 123.38L235.627 123.154C236.673 122.934 237.548 122.565 238.449 121.983C238.281 123.131 237.753 124.412 237.136 125.213L236.405 126.159L237.541 126.528C238.76 126.922 240.304 126.963 241.619 126.693C241.504 128.482 240.968 130.963 237.342 132.601L235.301 133.522L237.443 134.176C238.467 134.486 239.544 134.651 240.65 134.66C241.248 134.664 241.851 134.617 242.458 134.532C240.047 138.242 237.338 139.896 235.553 139.862C233.052 139.816 231.079 137.097 228.988 134.22C226.517 130.821 223.717 127.021 219.31 126.654C214.628 118.371 205.726 113.277 200.795 112.307C184.304 109.052 163.591 109.634 145.314 110.149C139.294 110.317 133.611 110.479 128.225 110.507L96 110.692L96.3319 111.774C97.8795 116.823 105.63 121.292 112.11 122.471C113.627 126.78 118.33 128.805 123.147 130.448C124.23 132.66 127.449 136.55 137.028 140.204C139.839 146.839 151.599 150.885 159.59 151.405C159.631 151.458 159.683 151.526 159.683 151.526C163.582 156.385 170.743 156.712 175.7 156.845C176.563 158.158 178.321 158.868 179.427 159.195C179.452 159.864 179.656 160.671 180.224 161.319C180.756 161.928 181.78 162.505 183.532 162.352C183.679 163.74 184.391 164.948 185.658 165.806C186.805 166.583 188.289 166.982 189.735 166.938C190.172 167.841 190.958 168.409 192.044 168.525C193.146 168.642 194.403 168.278 195.377 167.847C195.455 168.138 195.571 168.406 195.753 168.633C196.232 169.236 197.006 169.54 198.05 169.536C199.383 169.529 200.994 169.007 202.283 168.392C202.405 168.706 202.581 168.983 202.819 169.217C203.426 169.815 204.341 170.072 205.541 169.98C206.382 169.916 207.364 169.627 208.319 169.254C209.036 171.02 210.296 171.329 211.047 171.338C213.577 171.37 215.782 169.135 216.99 167.618C218.046 169.135 219.58 170.046 221.328 170.054C223.252 170.065 224.968 169.059 226.189 167.346C227.155 167.871 228.147 168.219 229.217 168.258C229.966 168.287 230.74 168.186 231.574 167.978C230.91 169.499 230.534 171.169 230.534 172.862V174.832L232.417 173.033C232.605 172.848 232.777 172.69 232.953 172.539C232.422 174.145 232.138 175.831 232.138 177.596C232.138 177.947 232.149 178.302 232.17 178.659L232.246 179.949L233.395 179.358C234.112 178.989 234.58 178.813 235.155 178.682C235.054 179.748 234.978 180.89 234.978 182.079C234.978 184.187 235.177 186.32 235.718 187.886L236.149 189.137L237.482 187.847C237.757 187.58 238.007 187.353 238.256 187.131C238.51 191.746 242.116 193.851 246.603 196.412C248.242 197.349 249.939 198.318 251.701 199.523L252.062 199.77C252.062 199.77 254.625 198.817 255.334 198.552C256.11 199.225 256.85 200.016 257.571 201.012L258.284 202.001L258.955 200.984C259.729 199.814 260.478 198.955 261.326 198.158C261.337 198.167 261.39 198.206 261.39 198.206C261.977 198.639 262.531 199.047 262.923 199.482L263.332 199.935L265.689 198.882C268.709 197.544 270.756 196.602 272.999 194.461C275.879 194.951 278.866 192.037 280.806 188.567C281.065 188.993 282.127 190.75 282.127 190.75L282.813 189.394C283.827 187.392 284.361 184.808 284.492 181.612C284.911 181.956 285.326 182.37 285.729 182.87L286.704 184.079L287.185 182.602C287.761 180.84 288.051 179.278 288.051 177.828C288.051 176.596 287.761 175.455 287.339 174.332C287.879 174.518 288.416 174.754 288.954 175.045L290.11 175.668L290.196 174.358C290.225 173.92 290.237 173.492 290.237 173.072C290.237 167.937 288.072 164.057 283.222 160.334C283.08 158.673 282.71 156.941 282.174 155.13C282.927 155.276 283.619 155.446 284.203 155.673L285.793 156.293L285.318 154.655C284.478 151.762 282.324 148.958 280.267 146.759C280.716 146.805 281.168 146.872 281.603 146.966L283.28 147.332L282.544 145.781C281.638 143.875 280.032 141.979 277.913 140.22C278.969 139.983 280.025 139.713 281.072 139.585L282.37 139.427L281.688 138.311C280.304 136.043 278.103 134.044 276.069 132.415C276.772 132.223 277.514 132.085 278.359 132.046L279.511 131.994L279.108 130.912C278.376 128.938 276.543 126.732 273.767 124.361C274.47 124.207 275.232 124.104 276.112 124.104H277.368L276.891 122.941C275.235 118.904 272.481 117.684 270.264 117.072L267.889 116.555C266.684 116.328 265.625 116.115 264.849 115.688C265.287 115.235 266.116 114.845 267.243 114.582L269.513 114.051L267.428 113.008C265.756 112.172 263.94 111.845 262.032 111.639C262.801 111.215 266.23 109.323 266.23 109.323L264.42 108.711C262.927 108.237 261.111 107.921 259.15 107.747C259.913 107.204 260.607 106.482 261.037 105.507L261.74 103.908L260.048 104.354C256.071 105.401 247.398 103.117 243.493 101.063C240.036 99.2478 237.129 99.2514 234.387 100.923C232.852 99.4963 230.392 98.8112 228.42 98.8166ZM228.423 100.501C230.548 100.496 232.681 101.298 233.615 102.455L234.112 103.071L234.758 102.613C237.131 100.93 239.583 100.913 242.709 102.554C246.212 104.396 253.428 106.45 258.263 106.26C257.374 106.931 256.256 107.348 255.242 107.621L248.81 109.355L255.471 109.279C257.789 109.252 259.983 109.447 261.871 109.818C261.257 110.156 260.59 110.521 260.59 110.521L256.587 112.841L259.227 113.08L259.99 113.146C261.633 113.286 263.207 113.443 264.654 113.81C263.616 114.413 263.112 115.114 262.934 115.696L262.78 116.202L263.167 116.561C264.286 117.597 265.889 117.899 267.588 118.218L269.826 118.703C271.561 119.182 273.471 120.029 274.838 122.533C273.663 122.641 272.582 122.845 271.714 123.246L270.468 123.821L271.544 124.672C274.238 126.805 276.075 128.798 277.035 130.532C275.927 130.686 274.896 130.931 273.987 131.368L272.752 131.961L273.845 132.797C276.513 134.832 278.291 136.522 279.509 138.137C278.254 138.343 276.996 138.596 275.752 138.946L274.064 139.418L275.487 140.442C277.519 141.901 279.111 143.479 280.188 145.071C279.471 145.012 278.769 144.996 278.172 145.058L276.376 145.248L277.675 146.505C280.258 148.998 282.072 151.407 283.081 153.586C282.476 153.448 281.827 153.334 281.111 153.247L279.78 153.08L280.215 154.353C281.01 156.678 281.463 158.801 281.599 160.842L281.626 161.227L281.937 161.459C286.565 164.927 288.548 168.347 288.557 173.033C287.719 172.686 286.883 172.406 286.047 172.275L284.317 172.003L285.183 173.524C285.978 174.916 286.37 176.293 286.37 177.84C286.37 178.714 286.198 179.674 285.951 180.689C285.341 180.126 284.72 179.645 284.066 179.338L282.863 178.776C282.863 178.776 282.865 180.13 282.865 180.144C282.865 182.941 282.538 185.275 281.914 187.14C281.713 186.808 280.646 185.051 280.646 185.051L279.981 186.485C278.309 190.086 275.29 193.515 272.99 192.775L272.502 192.617L272.136 192.981C269.982 195.137 268.109 195.966 265.009 197.342C265.009 197.342 264.233 197.686 263.71 197.922C263.294 197.546 262.847 197.189 262.393 196.852L261.227 195.979L260.703 196.41C259.786 197.196 259.001 198.108 258.226 199.156C257.528 198.304 256.818 197.537 256.053 196.926L255.681 196.628C255.681 196.628 252.887 197.667 252.277 197.894C250.587 196.763 248.919 195.796 247.438 194.951C242.961 192.395 239.896 190.644 239.896 186.595C239.896 186.292 239.913 185.974 239.947 185.642L240.089 184.31L238.827 184.76C238.162 184.998 237.58 185.477 236.987 186.022C236.777 184.899 236.662 183.529 236.662 182.027C236.662 180.662 236.751 179.203 236.934 177.766L237.074 176.669L235.979 176.825C235.1 176.949 234.5 177.081 233.854 177.319C233.893 175.157 234.357 173.111 235.288 171.238L236.105 169.595L234.328 170.044C233.49 170.255 232.907 170.523 232.442 170.821C232.715 169.435 233.233 168.111 234.016 166.982L235.654 164.615L232.997 165.726C231.496 166.354 230.349 166.615 229.281 166.576C228.253 166.537 227.341 166.221 226.407 165.582L225.649 165.064L225.199 165.862C224.29 167.463 222.883 168.379 221.339 168.37C219.857 168.361 218.547 167.389 217.837 165.768L217.223 164.363L216.367 165.637C215.111 167.506 212.969 169.678 211.068 169.655C210.793 169.652 210.067 169.643 209.669 167.955L209.432 166.924L208.48 167.392C207.481 167.884 206.304 168.232 205.415 168.301C204.743 168.352 204.24 168.251 204.004 168.017C203.832 167.847 203.756 167.55 203.782 167.133L203.882 165.507L202.497 166.366C201.315 167.099 199.406 167.845 198.046 167.85C197.565 167.852 197.21 167.756 197.076 167.586C196.941 167.417 196.928 167.068 197.036 166.604L197.645 164.017L195.615 165.823C195.349 166.059 193.554 166.993 192.225 166.851C191.593 166.784 191.261 166.489 191.11 165.866L190.933 165.129L190.184 165.227C188.954 165.387 187.582 165.074 186.604 164.412C185.87 163.916 185.025 163.007 185.174 161.495L185.287 160.332L184.148 160.591C183.291 160.787 182.143 160.888 181.537 160.261C181.177 159.89 181.094 159.347 181.094 159.04C181.094 158.948 181.101 158.877 181.111 158.838L181.33 157.997L180.501 157.743C179.074 157.42 177.358 156.641 176.965 155.698L176.756 155.192L176.209 155.178C171.629 155.058 164.764 154.855 161.184 150.656C161.166 150.498 161.15 150.335 161.044 150.18C160.872 149.93 160.598 149.779 160.29 149.769C151.646 149.396 140.545 144.989 138.439 139.262L138.305 138.9L137.943 138.763C127.806 134.965 125.176 130.976 124.515 129.437L124.368 129.091L124.011 128.97C118.286 127.037 114.536 125.119 113.533 121.521L113.388 121.001L112.853 120.916C106.746 119.951 100.465 116.122 98.4527 112.369C100.856 112.351 128.232 112.197 128.232 112.197C133.638 112.166 139.331 112.005 145.36 111.836C163.548 111.325 184.162 110.745 200.469 113.963C205.019 114.861 213.758 119.892 218.069 127.84L218.302 128.269L218.79 128.28C222.652 128.37 225.179 131.849 227.625 135.214C229.969 138.44 232.182 141.488 235.523 141.55C237.874 141.592 241.743 139.569 244.908 133.714L245.87 131.934L243.928 132.505C242.833 132.828 241.736 132.986 240.666 132.976C240.476 132.976 240.302 132.905 240.112 132.894C243.144 130.601 243.287 127.603 243.339 126.022L243.411 124.249L242.173 124.789C241.47 125.101 240.304 125.208 239.179 125.089C239.741 124.002 240.213 122.609 240.213 121.301C240.213 120.895 240.169 120.497 240.068 120.123L239.72 118.836L238.708 119.7C237.81 120.465 237.091 120.918 236.282 121.216C236.238 120.064 236.044 119.038 235.629 118.101C234.426 115.381 232.032 114.367 229.921 113.474C228.489 112.871 227.469 112.346 226.824 111.606C227.506 111.916 228.214 112.097 228.929 112.097C229.992 112.097 230.969 111.68 231.758 110.892C232.271 110.259 232.513 109.55 232.518 108.777C232.523 107.852 232.191 106.856 231.609 106.049C230.397 104.361 228.541 103.506 226.242 103.577C224.365 103.633 222.54 104.281 221.276 104.849C222.331 101.894 225.515 100.51 228.423 100.501ZM159.542 150.729L159.539 150.74L159.542 150.729Z" fill="black"/>
<path fill-rule="evenodd" clip-rule="evenodd" d="M241.844 180.735C241.709 185.564 240.185 194.321 235.881 197.391C232.245 199.986 227.057 198.202 224.357 201.848L224.695 204.033C228.768 204.077 229.616 204.373 233.968 201.346C231.169 203.332 229.403 204.599 229.068 207.882C230.163 208.113 230.688 209.077 231.43 209.531C232.757 208.132 234.408 206.581 236.215 203.58C235.975 205.928 234.85 207.573 234.85 209.833C235.812 209.676 236.776 209.655 237.739 209.833C238.584 207.983 240.783 203.825 240.783 201.685C243.309 201.685 245.062 201.241 247.435 200.834C248.507 200.652 249.668 200.934 251.091 200.708C251.224 199.647 251.103 198.715 251.103 197.768C248.461 196.941 248.125 196.124 244.954 194.633C243.814 192.118 245.309 188.061 246.122 183.869C244.679 183.071 243.497 181.796 242.911 180.117C242.56 180.27 242.199 180.487 241.844 180.735Z" fill="#FDB913"/>
<path fill-rule="evenodd" clip-rule="evenodd" d="M242.577 179.342L240.95 180.282L241.001 180.712C240.865 185.63 239.257 193.948 235.389 196.708C233.945 197.739 232.205 198.004 230.361 198.282C227.918 198.653 225.39 199.035 223.679 201.347L223.47 201.63L223.969 204.865L225.635 204.89C227.066 204.915 228.115 204.924 229.174 204.707C228.693 205.554 228.356 206.539 228.226 207.795L228.15 208.548L228.89 208.704C229.357 208.803 229.696 209.13 230.09 209.508L231.59 210.745L232.037 210.109L232.544 209.581C233.079 209.027 233.677 208.391 234.309 207.655C234.136 208.333 234.003 209.043 234.003 209.833V210.823L234.981 210.663C235.917 210.512 236.768 210.511 237.585 210.661L238.222 210.779L239.015 209.101C240.204 206.618 241.237 204.281 241.509 202.504C243.225 202.446 244.62 202.205 246.182 201.917L247.575 201.667L249.002 201.628C249.653 201.649 250.39 201.674 251.22 201.543L251.916 201.433L251.925 200.815L251.968 198.643L251.927 197.168L251.354 196.965C249.953 196.525 249.274 196.108 248.333 195.526C247.644 195.102 246.851 194.621 245.644 194.035C245.474 193.556 245.383 193.017 245.383 192.402C245.383 190.874 245.827 188.981 246.288 187.016L247.083 183.415L246.528 183.131C245.17 182.38 244.194 181.243 243.706 179.839L243.371 178.877L242.577 179.342ZM230.615 199.949C232.573 199.652 234.596 199.345 236.371 198.078C240.842 194.889 242.384 186.524 242.641 181.534C243.239 182.62 244.116 183.536 245.179 184.242C245.021 184.955 244.652 186.629 244.652 186.629C244.169 188.686 243.702 190.667 243.702 192.401C243.702 193.343 243.841 194.213 244.189 194.979L244.317 195.262L244.597 195.393C245.924 196.018 246.736 196.516 247.451 196.958C248.288 197.475 249.055 197.927 250.278 198.366C250.282 198.524 250.287 198.708 250.287 198.708C250.287 198.708 250.276 199.365 250.266 199.924C249.854 199.945 249.447 199.954 249.059 199.942L247.291 200.004L245.882 200.258C244.182 200.572 242.712 200.843 240.787 200.843H239.943V201.686C239.943 203.277 238.415 206.468 237.501 208.374C237.501 208.374 237.367 208.659 237.23 208.945C236.768 208.897 236.293 208.883 235.808 208.91C235.918 208.177 236.098 207.465 236.328 206.739C236.626 205.798 236.935 204.826 237.054 203.669L237.436 199.924L235.494 203.149C233.975 205.672 232.589 207.115 231.364 208.384C231.334 208.359 231.259 208.296 231.259 208.296C230.94 207.99 230.525 207.674 230.038 207.412C230.48 204.948 231.916 203.837 234.452 202.038L233.485 200.659C229.721 203.278 228.862 203.264 225.664 203.209C225.664 203.209 225.511 203.206 225.417 203.206C225.344 202.741 225.303 202.469 225.252 202.139C226.553 200.607 228.434 200.281 230.615 199.949Z" fill="black"/>
<path fill-rule="evenodd" clip-rule="evenodd" d="M228.644 213.263C228.019 212.321 227.62 209.526 228.777 207.944C229.497 208.232 230.96 208.667 231.544 209.33C230.674 210.179 229.199 212.01 228.644 213.263Z" fill="#FDB913"/>
<path fill-rule="evenodd" clip-rule="evenodd" d="M228.099 207.444C226.734 209.304 227.1 212.457 227.941 213.728L228.789 215.011L229.414 213.606C229.927 212.454 231.347 210.702 232.133 209.934L232.704 209.376L232.177 208.777C231.558 208.074 230.388 207.644 229.533 207.33L228.491 206.94L228.099 207.444ZM228.881 210.635C228.881 210.06 229.007 209.504 229.21 209.006C229.549 209.132 229.929 209.286 230.271 209.46C229.838 209.951 229.375 210.544 228.938 211.16C228.922 210.981 228.881 210.823 228.881 210.635Z" fill="black"/>
<path fill-rule="evenodd" clip-rule="evenodd" d="M254.023 175.059C254.894 175.961 256.11 178.85 256.11 181.614C256.11 182.144 256.064 182.671 255.965 183.177C255.682 184.59 254.983 185.655 253.915 186.384C253.336 184.563 251.915 181.548 249.742 180.189L249.059 179.759L248.603 180.425C248.017 181.278 247.678 182.345 247.467 183.509C245.696 182.851 244.306 181.552 243.71 179.839L243.412 178.983L242.579 179.344C241.23 179.928 239.889 181.246 238.999 182.118C238.999 182.118 238.918 182.196 238.888 182.224C237.649 180.714 237.109 179.395 237.063 177.636L237.038 176.641L234.594 177.12L235.056 178.739C235.056 178.739 235.296 178.692 235.491 178.655C235.734 180.599 236.531 182.228 238.188 184.022L238.76 184.643L239.319 184.12L240.18 183.321C240.812 182.7 241.697 181.843 242.567 181.278C243.609 183.342 245.513 184.893 247.921 185.451L248.878 185.673L248.951 184.693C249.022 183.731 249.267 182.929 249.597 182.208C251.373 183.892 252.463 187.036 252.536 187.749L252.651 188.894L253.707 188.436C255.803 187.525 257.157 185.822 257.615 183.507C258.336 179.885 256.687 175.393 255.235 173.892L254.023 175.059Z" fill="black"/>
<path fill-rule="evenodd" clip-rule="evenodd" d="M254.335 127.987C253.398 131.911 251.391 133.002 249.227 133.545C249.442 132.816 249.565 132.028 249.565 131.258C249.565 130.704 249.504 130.166 249.38 129.678L248.901 127.793L247.856 129.433C246.464 131.615 244.51 132.752 241.88 132.91L241.981 134.589C244.304 134.449 246.237 133.627 247.769 132.165C247.657 132.947 247.458 133.712 247.103 134.236L245.983 135.899L247.955 135.533C250.351 135.09 253.501 134.483 255.239 130.544C255.365 131.055 255.437 131.556 255.437 132.06C255.437 132.518 255.395 132.981 255.326 133.46L255.074 135.247L256.605 134.289C259.397 132.544 259.993 130.711 260.078 128.138L258.396 128.081C258.343 129.689 258.096 130.766 257.106 131.771C257.068 130.55 256.772 129.227 255.87 127.74L254.809 125.99L254.335 127.987Z" fill="black"/>
<path fill-rule="evenodd" clip-rule="evenodd" d="M237.409 104.467C236.046 104.487 235.152 105.28 235.072 106.533C235.026 107.27 235.416 107.87 235.794 108.448C236.179 109.037 236.575 109.646 236.575 110.447H238.259C238.259 109.146 237.649 108.21 237.205 107.529C236.987 107.195 236.742 106.819 236.753 106.641C236.765 106.416 236.783 106.161 237.436 106.152C238.437 106.136 239.612 106.846 240.973 107.667C243.106 108.956 245.76 110.56 249.524 110.589L249.536 108.904C246.235 108.881 243.901 107.47 241.843 106.226C240.26 105.27 238.895 104.444 237.409 104.467Z" fill="black"/>
<path fill-rule="evenodd" clip-rule="evenodd" d="M236.917 105.873C237.24 107.643 238.667 109.82 241.047 110.42C241.711 110.587 242.957 110.768 243.821 110.086C244.182 109.801 244.609 109.254 244.597 108.262L242.914 108.283C242.916 108.454 242.895 108.674 242.78 108.766C242.577 108.924 242.036 108.935 241.461 108.789C239.878 108.39 238.811 106.869 238.577 105.573L236.917 105.873Z" fill="black"/>
<path fill-rule="evenodd" clip-rule="evenodd" d="M265.688 125.444C266.594 126.477 267.023 127.431 267.108 128.379C265.664 127.375 263.974 126.773 262.496 126.789L262.515 128.473C263.985 128.457 265.912 129.345 267.202 130.635L268.175 131.607L268.599 130.301C269.25 128.287 268.711 126.336 266.952 124.333L265.688 125.444Z" fill="black"/>
<path fill-rule="evenodd" clip-rule="evenodd" d="M268.086 135.102C268.37 135.625 268.677 136.49 268.798 137.446C267.879 136.44 266.812 135.714 265.193 135.317L264.792 136.951C266.528 137.377 267.492 138.156 268.757 140.16L269.701 141.653L270.266 139.979C271.055 137.634 270.166 135.416 269.566 134.303L268.086 135.102Z" fill="black"/>
<path fill-rule="evenodd" clip-rule="evenodd" d="M246.595 144.821L246.823 146.505L248.024 145.303C249.364 143.965 252.035 142.744 253.182 142.574L252.937 140.909C251.895 141.063 249.904 141.866 248.278 142.954C248.45 141.623 249.043 140.483 250.035 139.775L249.059 138.403C247.158 139.761 246.237 142.159 246.595 144.821Z" fill="black"/>
<path fill-rule="evenodd" clip-rule="evenodd" d="M261.963 144.995C262.435 145.788 262.668 146.892 262.668 148.003C262.668 148.439 262.602 148.867 262.529 149.288C261.344 147.257 259.729 145.657 257.901 144.782L257.175 146.301C259.134 147.236 260.902 149.293 261.905 151.797L262.545 153.407L263.413 151.907C264.664 149.74 264.664 146.253 263.411 144.137L261.963 144.995Z" fill="black"/>
<path fill-rule="evenodd" clip-rule="evenodd" d="M271.904 144.301C272.493 145.424 272.784 146.67 272.784 148.074C272.784 148.127 272.77 148.187 272.77 148.241C271.599 146.815 270.198 145.38 268.019 144.506L267.391 146.068C269.666 146.982 270.921 148.587 272.252 150.285L273.902 152.381L274.234 150.539C274.724 147.831 274.451 145.534 273.393 143.52L271.904 144.301Z" fill="black"/>
<path fill-rule="evenodd" clip-rule="evenodd" d="M273.146 153.698C273.707 154.461 273.923 155.338 273.923 156.188C273.923 156.46 273.863 156.712 273.824 156.974C272.761 155.48 271.121 153.842 269.078 153.194L268.569 154.798C270.794 155.505 272.715 157.949 273.311 159.377L274.023 161.079L274.841 159.425C275.698 157.697 276.122 154.898 274.498 152.695L273.146 153.698Z" fill="black"/>
<path fill-rule="evenodd" clip-rule="evenodd" d="M244.32 157.631L244.478 159.498L245.77 158.14C247.156 156.681 249.787 154.866 251.616 154.475L251.265 152.828C249.634 153.176 247.682 154.333 246.127 155.569C246.473 153.691 247.554 152.184 249.288 151.407L248.599 149.872C245.666 151.187 244.026 154.159 244.32 157.631Z" fill="black"/>
<path fill-rule="evenodd" clip-rule="evenodd" d="M237.054 147.627V149.226L238.373 148.319C239.844 147.307 241.889 146.194 242.751 145.935L242.269 144.322C241.45 144.569 240.084 145.282 238.845 146.026C239.072 144.247 239.777 141.887 241.851 140.691L241.01 139.232C237.439 141.294 237.054 145.79 237.054 147.627Z" fill="black"/>
<path fill-rule="evenodd" clip-rule="evenodd" d="M274.273 163.921C275.484 164.936 277.099 166.874 277.67 168.995L278.057 170.432L279.09 169.361C281.181 167.186 280.51 164.432 280.222 163.257L280.151 162.955L278.504 163.309L278.586 163.658C278.707 164.15 278.875 164.84 278.875 165.589C278.875 166.02 278.818 166.473 278.664 166.917C277.809 165.119 276.486 163.584 275.358 162.632L274.273 163.921Z" fill="black"/>
<path fill-rule="evenodd" clip-rule="evenodd" d="M263.119 167.942L263.206 169.762L264.533 168.519C266.225 166.938 268.06 165.795 269.838 165.211L269.314 163.612C267.904 164.075 266.478 164.853 265.106 165.87C265.534 164.441 266.393 163.046 267.513 162.528L266.809 161C264.379 162.119 263.002 165.477 263.119 167.942Z" fill="black"/>
<path fill-rule="evenodd" clip-rule="evenodd" d="M254.106 162.87C255.297 163.314 256.555 165.057 257.12 166.75C255.602 165.673 254.2 165.257 253.015 164.92L252.046 164.631L251.517 166.228L252.555 166.539C254.136 166.988 255.771 167.453 257.647 169.417L258.909 170.736L259.093 168.92C259.374 166.171 257.072 162.18 254.694 161.294L254.106 162.87Z" fill="black"/>
<path fill-rule="evenodd" clip-rule="evenodd" d="M233.522 101.736L233.574 103.887L235.256 103.846L235.205 101.693L233.522 101.736Z" fill="black"/>
<path fill-rule="evenodd" clip-rule="evenodd" d="M235.194 156.36L235.15 158.091L237.471 156.364C238.059 155.92 238.572 155.537 239.108 155.217C238.35 156.898 237.942 158.597 237.942 160.254C237.942 160.788 237.981 161.317 238.062 161.839L239.727 161.584C239.356 159.17 240.02 156.559 241.647 154.035L242.771 152.296L240.753 152.759C239.36 153.079 238.384 153.631 237.441 154.296C238.183 152.646 239.578 151.157 241.037 150.759L240.593 149.135C237.796 149.898 235.274 153.274 235.194 156.36Z" fill="black"/>
<path fill-rule="evenodd" clip-rule="evenodd" d="M238.479 160.978L239.307 162.443L239.461 162.357L238.632 160.891L238.479 160.978Z" fill="black"/>
<path fill-rule="evenodd" clip-rule="evenodd" d="M232.376 166.363L233.794 167.27C235.769 164.18 238.7 162.297 241.633 162.228L241.594 160.545C238.048 160.627 234.689 162.748 232.376 166.363Z" fill="black"/>
<path fill-rule="evenodd" clip-rule="evenodd" d="M127.384 111.856C131.838 118.541 135.945 122.16 144.89 122.144C152.019 122.134 160.194 119.791 165.602 118.242L165.138 116.623C159.819 118.147 151.781 120.449 144.886 120.462C136.657 120.474 133.006 117.26 128.784 110.922L127.384 111.856Z" fill="black"/>
<path fill-rule="evenodd" clip-rule="evenodd" d="M136.662 120.595C139.285 125.909 144.091 128.463 151.352 128.402C160.073 128.331 163.866 127.316 168.258 126.139L167.822 124.514C163.541 125.66 159.844 126.651 151.338 126.72C144.695 126.775 140.511 124.592 138.17 119.85L136.662 120.595Z" fill="black"/>
<path fill-rule="evenodd" clip-rule="evenodd" d="M167.229 134.916C169.545 139.491 175.196 141.979 183.14 141.924C188.411 141.889 194.397 140.705 199.995 138.593L199.402 137.017C193.984 139.061 188.205 140.204 183.129 140.24C175.858 140.291 170.743 138.13 168.73 134.154L167.229 134.916Z" fill="black"/>
<path fill-rule="evenodd" clip-rule="evenodd" d="M149.771 128.21C153.214 132.28 160.599 135.125 168.145 135.294C170.997 135.357 180.881 135.322 188.25 132.186L187.591 130.637C180.531 133.639 170.951 133.673 168.182 133.611C160.036 133.43 153.594 130.122 151.056 127.122L149.771 128.21Z" fill="black"/>
<path fill-rule="evenodd" clip-rule="evenodd" d="M175.83 141.03C176.976 143.896 179.154 145.916 182.295 147.034C189.627 149.641 200.483 146.62 205.848 143.64L205.032 142.167C200.089 144.911 189.623 147.85 182.859 145.445C180.194 144.498 178.352 142.801 177.391 140.401L175.83 141.03Z" fill="black"/>
<path fill-rule="evenodd" clip-rule="evenodd" d="M195.613 151.856C196.387 153.324 197.816 154.383 199.748 154.923C203.09 155.854 207.698 155.137 210.958 153.176L210.09 151.733C207.243 153.446 203.083 154.105 200.201 153.301C198.705 152.883 197.663 152.135 197.104 151.071L195.613 151.856Z" fill="black"/>
<path fill-rule="evenodd" clip-rule="evenodd" d="M186.936 147.687C187.763 148.936 189.705 151.865 194.909 152.301C198.653 152.615 203.541 151.6 209.435 149.286L208.819 147.719C203.168 149.937 198.534 150.913 195.049 150.622C190.656 150.255 189.149 147.98 188.338 146.755L186.936 147.687Z" fill="black"/>
<path fill-rule="evenodd" clip-rule="evenodd" d="M202.62 154.729C202.744 156.211 204.558 157.908 206.933 158.765C208.551 159.349 212.701 160.311 216.289 156.657L215.089 155.476C212.182 158.437 208.817 157.656 207.504 157.182C205.52 156.465 204.349 155.194 204.299 154.591L202.62 154.729Z" fill="black"/>
<path fill-rule="evenodd" clip-rule="evenodd" d="M220.914 158.788C220.309 160.252 218.302 161.193 215.917 161.134C213.924 161.085 211.405 160.284 210.312 158.19L208.819 158.969C210.017 161.262 212.72 162.737 215.874 162.817C218.456 162.883 220.616 161.954 221.805 160.437C223.161 161.75 224.847 162.512 226.601 162.496C228.535 162.476 230.413 161.543 232.071 159.853C233.436 160.132 234.809 160.11 236.167 159.691L235.668 158.084C234.435 158.465 233.235 158.49 232 158.16L231.503 158.027L231.158 158.405C229.749 159.963 228.166 160.794 226.585 160.81C225.016 160.826 223.474 160.016 222.356 158.591L221.466 157.457L220.914 158.788Z" fill="black"/>
<path fill-rule="evenodd" clip-rule="evenodd" d="M113.123 120.914L112.8 122.567C120.563 124.082 130.495 123.209 138.281 122.279L138.08 120.607C130.419 121.521 120.655 122.384 113.123 120.914Z" fill="black"/>
<path fill-rule="evenodd" clip-rule="evenodd" d="M123.852 128.835L123.451 130.47C131.679 132.482 143.925 132.216 151.934 129.847L151.457 128.232C143.694 130.528 131.828 130.786 123.852 128.835Z" fill="black"/>
<path fill-rule="evenodd" clip-rule="evenodd" d="M137.612 140.231C151.703 145.341 170.402 142.173 175.798 141.081L175.464 139.431C170.177 140.503 151.867 143.608 138.185 138.648L137.612 140.231Z" fill="black"/>
<path fill-rule="evenodd" clip-rule="evenodd" d="M160.767 149.723V151.407C168.138 151.407 178.902 149.403 182.916 147.284L182.13 145.795C178.376 147.777 167.793 149.723 160.767 149.723Z" fill="black"/>
<path fill-rule="evenodd" clip-rule="evenodd" d="M176.241 155.208L176.177 156.891C179.899 157.031 189.084 154.781 192.949 151.849L191.932 150.509C188.392 153.192 179.647 155.338 176.241 155.208Z" fill="black"/>
<path fill-rule="evenodd" clip-rule="evenodd" d="M180.463 157.737L180.329 159.415C185.713 159.846 193.824 158.692 198.966 154.026L197.835 152.781C193.093 157.084 185.513 158.14 180.463 157.737Z" fill="black"/>
<path fill-rule="evenodd" clip-rule="evenodd" d="M189.659 165.327L190.748 166.61C191.907 165.625 193.173 164.121 194.222 162.483L192.804 161.576C191.856 163.057 190.679 164.459 189.659 165.327Z" fill="black"/>
<path fill-rule="evenodd" clip-rule="evenodd" d="M195.503 165.866L196.562 167.174C197.713 166.244 198.673 165.117 199.675 163.518L198.25 162.624C197.35 164.058 196.502 165.059 195.503 165.866Z" fill="black"/>
<path fill-rule="evenodd" clip-rule="evenodd" d="M202.513 166.226L202.341 166.418L203.6 167.536L203.77 167.346L205.791 165.027L204.491 163.962L202.513 166.226Z" fill="black"/>
<path fill-rule="evenodd" clip-rule="evenodd" d="M208.441 167.46L209.739 168.534L212.326 165.405L211.029 164.331L208.441 167.46Z" fill="black"/>
<path fill-rule="evenodd" clip-rule="evenodd" d="M158.747 119.704C160.015 122.813 163.159 126.006 166.723 126.091C171.189 126.2 177.548 124.253 182.547 121.248L181.681 119.805C176.932 122.659 170.937 124.508 166.764 124.409C163.926 124.34 161.369 121.672 160.309 119.07L158.747 119.704Z" fill="black"/>
<path fill-rule="evenodd" clip-rule="evenodd" d="M177.493 127.192C175.038 127.19 173.025 126.289 171.339 124.437L170.094 125.572C172.087 127.762 174.575 128.874 177.491 128.876C182.35 128.88 187.76 125.861 192.413 122.908L191.51 121.486C187.323 124.145 181.945 127.195 177.493 127.192Z" fill="black"/>
<path fill-rule="evenodd" clip-rule="evenodd" d="M196.476 126.294C193.521 128.333 190.465 130.443 187.543 130.535C185.389 130.603 183.431 129.552 181.553 127.321L180.265 128.404C182.494 131.055 184.892 132.303 187.595 132.218C191.013 132.11 194.275 129.857 197.431 127.678L198.907 126.666L197.968 125.27L196.476 126.294Z" fill="black"/>
<path fill-rule="evenodd" clip-rule="evenodd" d="M194.548 132.903C191.797 133.056 190.924 132 190.429 130.945L188.904 131.659C189.9 133.785 191.776 134.74 194.64 134.582C197.844 134.405 201.704 132.529 204.968 129.563L203.836 128.317C200.85 131.034 197.377 132.747 194.548 132.903Z" fill="black"/>
<path fill-rule="evenodd" clip-rule="evenodd" d="M198.832 135.347C197.776 135.045 196.976 134.401 196.449 133.43L194.969 134.232C195.718 135.615 196.862 136.534 198.371 136.965C201.196 137.771 205.083 136.779 209.927 134.016L209.092 132.553C203.568 135.705 200.463 135.812 198.832 135.347Z" fill="black"/>
<path fill-rule="evenodd" clip-rule="evenodd" d="M198.412 136.421C198.948 138.217 200.041 139.491 201.665 140.21C206.331 142.274 213.65 138.974 215.072 138.291L214.343 136.774C211.444 138.167 205.655 140.133 202.345 138.669C201.177 138.153 200.419 137.26 200.024 135.94L198.412 136.421Z" fill="black"/>
<path fill-rule="evenodd" clip-rule="evenodd" d="M203.08 140.689C206.054 146.024 210.328 146.707 219.409 143.301L218.818 141.725C209.566 145.195 206.755 143.823 204.551 139.869L203.08 140.689Z" fill="black"/>
<path fill-rule="evenodd" clip-rule="evenodd" d="M209.694 145.183C210.513 147.183 211.998 148.597 213.989 149.275C216.916 150.271 220.822 149.609 224.437 147.506L223.591 146.051C220.391 147.912 217.005 148.523 214.531 147.68C212.992 147.158 211.89 146.102 211.251 144.544L209.694 145.183Z" fill="black"/>
<path fill-rule="evenodd" clip-rule="evenodd" d="M217.331 149.543C218.213 151.556 219.699 152.942 221.514 153.448C223.697 154.055 226.283 153.382 229.187 151.533C230.234 153.81 231.792 154.277 234.028 154.248L234.005 152.564C232.088 152.589 231.167 152.356 230.397 150.012L230.04 148.931L229.112 149.59C226.267 151.6 223.862 152.353 221.967 151.826C220.275 151.354 219.353 149.957 218.875 148.867L217.331 149.543Z" fill="black"/>
<path fill-rule="evenodd" clip-rule="evenodd" d="M367.316 118.229C360.096 118.218 353.773 117.45 348.521 115.943L348.058 117.562C353.459 119.109 359.936 119.899 367.314 119.912C375.118 119.924 380.141 117.384 384.645 111.148L383.28 110.161C379.079 115.979 374.601 118.24 367.316 118.229Z" fill="black"/>
<path fill-rule="evenodd" clip-rule="evenodd" d="M358.648 126.155C355.199 126.178 350.672 125.509 346.224 124.318L345.79 125.944C350.376 127.172 355.066 127.863 358.658 127.84C365.506 127.795 370.132 125.222 374.127 119.232L372.727 118.298C369.03 123.839 364.952 126.116 358.648 126.155Z" fill="black"/>
<path fill-rule="evenodd" clip-rule="evenodd" d="M315.146 136.373C319.197 139.042 325.33 142.591 331.808 142.595C336.359 142.597 340.567 140.845 344.31 137.388L343.167 136.153C339.697 139.358 335.981 140.916 331.808 140.913C325.783 140.911 319.944 137.519 316.075 134.967L315.146 136.373Z" fill="black"/>
<path fill-rule="evenodd" clip-rule="evenodd" d="M344.111 135.65C339.454 135.787 330.106 133.132 325.483 129.63L324.468 130.974C329.433 134.735 339.133 137.48 344.162 137.333C352.262 137.095 360.205 131.196 363.307 127.531L362.02 126.443C359.108 129.886 351.668 135.429 344.111 135.65Z" fill="black"/>
<path fill-rule="evenodd" clip-rule="evenodd" d="M310.101 140.975C312.456 145.349 318.454 148.578 324.363 148.647C329.636 148.711 333.881 146.388 336.321 142.105L334.859 141.271C331.994 146.299 327.066 146.996 324.384 146.964C319.049 146.901 313.666 144.045 311.583 140.176L310.101 140.975Z" fill="black"/>
<path fill-rule="evenodd" clip-rule="evenodd" d="M311.32 154.953C308.51 155.042 305.316 154.048 303.371 152.479L302.315 153.79C304.585 155.62 308.14 156.736 311.371 156.635C314.472 156.538 316.9 155.343 318.208 153.274L316.784 152.376C315.436 154.511 312.782 154.907 311.32 154.953Z" fill="black"/>
<path fill-rule="evenodd" clip-rule="evenodd" d="M303.66 147.17C309.311 152.555 314.6 153.224 318.043 152.836C322.494 152.335 325.611 149.948 326.528 148.56L325.124 147.63C324.516 148.548 321.839 150.713 317.853 151.162C314.767 151.51 310 150.889 304.817 145.951L303.66 147.17Z" fill="black"/>
<path fill-rule="evenodd" clip-rule="evenodd" d="M305.602 157.808C304.111 157.952 301.919 157.697 299.93 155.67L298.728 156.848C301.184 159.351 303.909 159.661 305.763 159.484C308.775 159.193 311.262 157.448 312.071 155.952L310.591 155.15C309.993 156.255 307.916 157.587 305.602 157.808Z" fill="black"/>
<path fill-rule="evenodd" clip-rule="evenodd" d="M293.128 159.377C292.528 160.867 291.662 161.827 290.809 161.947C289.944 162.07 289.16 161.328 288.656 160.685L287.332 161.722C288.737 163.522 290.127 163.745 291.046 163.616C292.218 163.451 293.256 162.611 294.064 161.246C295.487 162.801 297.455 163.605 299.59 163.383C302.096 163.12 304.212 161.536 304.984 159.346L303.394 158.788C302.838 160.368 301.278 161.514 299.414 161.71C297.444 161.915 295.696 161.021 294.626 159.259L293.755 157.823L293.128 159.377Z" fill="black"/>
<path fill-rule="evenodd" clip-rule="evenodd" d="M376.375 118.455C380.121 119.716 384.707 120.43 389.639 120.517C393.533 120.586 397.48 120.254 401.055 119.557L400.73 117.904C397.274 118.579 393.446 118.9 389.668 118.833C384.908 118.749 380.499 118.066 376.912 116.857L376.375 118.455Z" fill="black"/>
<path fill-rule="evenodd" clip-rule="evenodd" d="M375.792 128.565C370.748 128.5 366.121 127.635 363.415 126.253L362.648 127.751C365.616 129.268 370.4 130.18 375.771 130.25C381.424 130.324 387.264 129.465 392.214 127.831L391.687 126.233C386.909 127.809 381.264 128.636 375.792 128.565Z" fill="black"/>
<path fill-rule="evenodd" clip-rule="evenodd" d="M356.195 140.506C350.45 140.59 344.936 140.006 340.673 138.859L340.236 140.487C344.645 141.671 350.322 142.276 356.218 142.191C364.812 142.068 373.072 140.538 379.48 137.888L378.838 136.334C372.621 138.904 364.579 140.387 356.195 140.506Z" fill="black"/>
<path fill-rule="evenodd" clip-rule="evenodd" d="M330.644 146.654C333.959 149.9 347.628 151.753 355.805 150.819L355.615 149.146C347.405 150.083 334.507 148.081 331.822 145.452L330.644 146.654Z" fill="black"/>
<path fill-rule="evenodd" clip-rule="evenodd" d="M324.302 150.101C328.061 152.953 335.67 156.841 339.519 156.698L339.455 155.015C336.348 155.132 329.181 151.687 325.319 148.759L324.302 150.101Z" fill="black"/>
<path fill-rule="evenodd" clip-rule="evenodd" d="M317.522 153.261C321.505 158.084 329.149 160.692 336.112 159.603L335.852 157.94C329.449 158.939 322.444 156.575 318.822 152.188L317.522 153.261Z" fill="black"/>
<path fill-rule="evenodd" clip-rule="evenodd" d="M323.418 160.93L324.23 162.224C325.067 163.571 326.015 165.098 326.87 166.194L328.196 165.16C327.397 164.132 326.473 162.647 325.658 161.337L324.836 160.023L323.418 160.93Z" fill="black"/>
<path fill-rule="evenodd" clip-rule="evenodd" d="M318.316 162.002L319.109 163.742C319.617 164.927 320.098 166.049 320.696 166.7L321.935 165.563C321.532 165.122 321.085 164.084 320.655 163.078L319.812 161.229L318.316 162.002Z" fill="black"/>
<path fill-rule="evenodd" clip-rule="evenodd" d="M311.964 163.067L312.545 164.601C313.212 166.446 313.478 167.114 313.757 167.426L315.042 166.34C314.871 166.088 314.408 164.799 314.13 164.029L313.48 162.334L311.964 163.067Z" fill="black"/>
<path fill-rule="evenodd" clip-rule="evenodd" d="M304.492 165.22L306.34 168.69L307.827 167.9L305.976 164.428L304.492 165.22Z" fill="black"/>
<path fill-rule="evenodd" clip-rule="evenodd" d="M347.287 124.118C343.046 124.219 339.267 121.949 334.894 119.321L334.028 120.764C338.628 123.527 342.6 125.912 347.326 125.799C350.731 125.717 355.221 122.521 356.564 119.218L355.004 118.584C353.914 121.259 350.019 124.05 347.287 124.118Z" fill="black"/>
<path fill-rule="evenodd" clip-rule="evenodd" d="M325.848 124.29L326.262 124.524C331.7 127.579 339.147 131.76 345.923 125.832L344.814 124.565C338.934 129.708 332.364 126.02 327.087 123.057L326.672 122.822L325.848 124.29Z" fill="black"/>
<path fill-rule="evenodd" clip-rule="evenodd" d="M316.208 126.766C319.583 129.038 322.251 130.832 326.258 130.958C328.748 131.034 331.382 130.873 333.781 128.017L332.493 126.934C330.573 129.219 328.555 129.345 326.31 129.274C322.95 129.169 320.749 127.792 317.146 125.369L316.208 126.766Z" fill="black"/>
<path fill-rule="evenodd" clip-rule="evenodd" d="M310.049 130.149C311.655 131.609 316.293 133.574 320.194 133.455C322.625 133.38 324.425 132.484 325.394 130.862L323.949 129.998C323.28 131.119 321.999 131.718 320.144 131.773C316.768 131.875 312.514 130.113 311.183 128.903L310.049 130.149Z" fill="black"/>
<path fill-rule="evenodd" clip-rule="evenodd" d="M313.098 135.611C311.165 135.61 308.785 134.811 306.026 133.235L305.19 134.697C308.209 136.419 310.871 137.292 313.096 137.294C315.84 137.296 318.011 135.966 319.37 133.455L317.89 132.653C316.813 134.644 315.244 135.611 313.098 135.611Z" fill="black"/>
<path fill-rule="evenodd" clip-rule="evenodd" d="M309.288 139.393C307.479 139.555 305.367 139.131 303.491 138.229L302.762 139.746C304.902 140.778 307.336 141.259 309.439 141.07C312.195 140.822 314.284 139.466 315.478 137.146L313.982 136.376C313.052 138.181 311.474 139.198 309.288 139.393Z" fill="black"/>
<path fill-rule="evenodd" clip-rule="evenodd" d="M304.859 144.837C303.085 144.851 300.783 144.178 297.615 142.719L296.91 144.247C300.312 145.815 302.843 146.537 304.872 146.521C308.432 146.491 310.246 144.097 311.549 141.756L310.079 140.936C308.526 143.724 307.06 144.819 304.859 144.837Z" fill="black"/>
<path fill-rule="evenodd" clip-rule="evenodd" d="M298.936 166.654V167.625H300.62V166.654H298.936Z" fill="black"/>
<path fill-rule="evenodd" clip-rule="evenodd" d="M300.039 148.899C298.424 149.018 296.39 148.475 294.981 147.548L293.249 146.409L293.696 148.434C293.952 149.584 293.829 150.612 293.354 151.323C293.052 151.774 292.622 152.062 292.108 152.152C291.227 152.307 290.221 151.883 289.197 150.924L288.049 152.154C289.848 153.84 291.408 153.986 292.401 153.81C293.363 153.641 294.2 153.089 294.754 152.259C295.228 151.551 295.464 150.67 295.49 149.708C296.976 150.351 298.68 150.686 300.162 150.578C302.512 150.406 304.308 149.149 305.22 147.043L303.674 146.375C303.005 147.923 301.784 148.773 300.039 148.899Z" fill="black"/>
<path fill-rule="evenodd" clip-rule="evenodd" d="M263.087 181.315C263.14 183.83 264.022 185.971 265.641 187.504L266.745 188.553L267.082 186.862C267.256 186.001 267.437 185.165 267.975 184.068C268.42 184.489 268.844 184.94 269.236 185.483L269.985 186.523L271.198 184.483C271.874 183.289 272.736 181.843 274.335 180.781C275.402 181.401 276.822 182.748 277.723 183.616L279.505 185.257L279.965 184.256C280.865 182.59 281.859 181.663 283.098 180.689C283.419 180.879 283.768 181.086 283.768 181.086L284.737 179.711L282.902 178.623L282.514 179.003C281.458 179.812 280.19 180.838 279.06 182.556C279.007 182.508 278.893 182.403 278.893 182.403C277.734 181.287 275.981 179.599 274.625 179.01L274.238 178.843L273.87 179.053C271.663 180.32 270.587 182.157 269.804 183.539C269.323 183 268.819 182.503 268.241 182.066L267.494 181.504L267.013 182.306C266.365 183.388 266.029 184.244 265.802 185.014C265.162 183.969 264.801 182.726 264.771 181.28C264.769 181.207 264.768 181.136 264.768 181.063C264.768 178.224 265.957 175.67 266.786 174.813L265.575 173.643C264.317 174.942 263.018 178.073 263.087 181.315Z" fill="black"/>
<path fill-rule="evenodd" clip-rule="evenodd" d="M221.09 206.523C220.955 204.986 222.102 202.045 224.343 201.211C224.241 202.162 224.278 203.459 224.737 204.309C223.422 204.581 222.003 205.612 221.09 206.523Z" fill="#FDB913"/>
<path fill-rule="evenodd" clip-rule="evenodd" d="M224.051 200.423C221.447 201.39 220.082 204.672 220.251 206.597L220.407 208.393L221.685 207.119C222.455 206.351 223.76 205.371 224.906 205.135L226.017 204.908L225.477 203.91C225.123 203.252 225.091 202.132 225.181 201.301L225.328 199.947L224.051 200.423ZM223.506 202.744C223.534 203.096 223.596 203.431 223.69 203.791C223.227 203.974 222.798 204.184 222.4 204.436C222.664 203.823 223.012 203.222 223.506 202.744Z" fill="black"/>
<path fill-rule="evenodd" clip-rule="evenodd" d="M237.07 214.527C235.65 213.893 234.17 212.122 234.875 209.946C235.776 209.78 236.983 209.673 237.885 210.007C237.477 211.513 236.905 213.247 237.07 214.527Z" fill="#FDB913"/>
<path fill-rule="evenodd" clip-rule="evenodd" d="M234.721 209.119L234.229 209.211L234.075 209.689C233.262 212.2 234.834 214.454 236.728 215.299L238.096 215.911L237.906 214.424C237.787 213.494 238.176 212.108 238.519 210.885L238.907 209.483L238.18 209.22C237.076 208.81 235.69 208.938 234.721 209.119ZM236.829 210.686C236.616 211.444 236.451 212.197 236.336 212.935C235.892 212.447 235.539 211.815 235.539 211.052C235.539 210.945 235.58 210.828 235.594 210.718C236.059 210.663 236.463 210.654 236.829 210.686Z" fill="black"/>
<path fill-rule="evenodd" clip-rule="evenodd" d="M255.428 201.612C255.224 199.72 252.844 197.938 251.153 197.963C251.32 198.904 251.213 199.75 251.192 200.636C252.651 200.779 254.402 201.188 255.428 201.612Z" fill="#FDB913"/>
<path fill-rule="evenodd" clip-rule="evenodd" d="M251.14 197.12L250.15 197.134L250.322 198.108C250.434 198.731 250.404 199.329 250.376 199.961L250.321 201.408L251.109 201.473C252.466 201.608 254.147 201.993 255.107 202.391L256.419 202.934L256.266 201.523C256.01 199.156 253.185 197.09 251.14 197.12ZM252.086 199.113C252.086 199.083 252.081 199.049 252.079 199.019C252.699 199.257 253.299 199.695 253.781 200.229C253.219 200.096 252.637 199.988 252.063 199.903C252.074 199.644 252.086 199.383 252.086 199.113Z" fill="black"/>
<path fill-rule="evenodd" clip-rule="evenodd" d="M239.605 191.524L239.653 193.206L242.636 193.194L244.489 193.199L244.48 191.517L242.648 191.51L239.605 191.524Z" fill="black"/>
<path fill-rule="evenodd" clip-rule="evenodd" d="M240.59 188.622L240.62 190.305L244.968 190.227L244.938 188.542L240.59 188.622Z" fill="black"/>
<path fill-rule="evenodd" clip-rule="evenodd" d="M245.032 185.63L241.244 185.706L241.271 187.389L245.582 187.304L246.345 186.132C246.121 185.609 245.756 185.616 245.032 185.63Z" fill="black"/>
<path fill-rule="evenodd" clip-rule="evenodd" d="M232.555 198.758C231.297 199.031 230.001 199.159 228.777 199.404C228.91 199.541 229.091 199.631 229.27 199.722L229.396 201.729C230.275 201.981 230.113 200.877 230.99 200.877L232.598 200.38C232.598 200.249 232.592 199.576 232.555 198.758ZM229.536 203.763C230.25 203.559 230.993 203.227 231.916 202.682C231.909 202.613 231.904 202.546 231.904 202.483C231.151 202.483 230.147 202.734 229.644 203.112C229.644 203.252 229.605 203.488 229.536 203.763ZM231.939 202.849C230.771 203.795 229.921 204.75 229.447 206.109C230.539 206.097 231.758 206.111 232.532 206.496C232.866 205.495 232.111 203.898 231.939 202.849ZM235.847 205.433C235.574 206.402 235.228 207.302 235.026 208.264L236.609 207.588C236.733 207.085 238.069 205.389 238.698 205.389C238.407 205.098 236.838 205.318 235.847 205.433ZM250.005 197.597C247.973 197.132 247.729 196.021 245.28 194.788C245.577 197.372 246.837 199.218 249.852 199.218C249.959 198.787 249.996 198.212 250.005 197.597Z" fill="black"/>
<path fill-rule="evenodd" clip-rule="evenodd" d="M275.789 180.787C275.925 185.616 276.799 193.292 281.102 196.364C284.737 198.959 287.561 198.092 290.164 200.428L289.944 203.048C285.358 201.553 287.106 202.948 283.415 201.896C286.214 203.882 287.101 203.942 287.437 207.224C286.343 207.454 285.818 208.418 285.076 208.872C283.749 207.474 281.33 206.801 279.521 203.8C279.761 206.146 280.119 208.344 280.119 210.601C279.154 210.445 278.192 210.424 277.228 210.601C276.381 208.752 274.403 204.594 274.403 202.455C271.879 202.455 271.774 199.816 269.399 199.409C268.328 199.225 266.727 200.057 265.303 199.83C265.17 198.769 265.291 197.837 265.291 196.889C267.934 196.062 268.709 194.367 271.881 192.876C273.02 190.362 272.035 187.071 271.222 182.881C271.918 181.378 272.997 180.7 274.259 179.704C274.617 179.86 275.437 180.538 275.789 180.787Z" fill="#FDB913"/>
<path fill-rule="evenodd" clip-rule="evenodd" d="M273.741 179.044L273.244 179.427C272.167 180.258 271.148 181.039 270.461 182.528L270.346 182.778L270.779 184.92C271.196 186.933 271.558 188.681 271.558 190.168C271.558 190.951 271.436 191.65 271.191 192.289C269.812 192.979 268.86 193.7 268.033 194.342C267.062 195.097 266.296 195.693 265.043 196.085L264.468 196.264L264.429 197.761L264.485 200.639L265.176 200.662C266.092 200.808 266.999 200.606 267.801 200.428C268.376 200.302 268.921 200.18 269.26 200.24C270.088 200.382 270.539 200.886 271.111 201.525C271.704 202.185 272.447 202.947 273.666 203.19C273.92 205.208 275.109 208.01 276.29 210.571L276.737 211.549L277.383 211.432C278.197 211.281 279.048 211.283 279.986 211.434L280.964 211.591V210.601C280.964 209.227 280.829 207.895 280.675 206.532C281.445 207.25 282.217 207.79 282.901 208.248C283.529 208.668 284.07 209.032 284.468 209.451L285.009 210.021L285.518 209.59L286.415 208.849C286.81 208.471 287.149 208.147 287.616 208.047L288.356 207.891L288.28 207.139C288.063 205 287.567 204.02 286.585 203.142C287.087 203.138 287.797 203.23 289.689 203.848L290.701 204.176L291.043 200.08L290.731 199.8C289.276 198.495 287.795 198.096 286.23 197.675C284.782 197.285 283.284 196.882 281.594 195.677C277.763 192.942 276.783 186.058 276.636 180.764L276.623 180.357L275.892 179.807L274.092 178.588L273.741 179.044ZM274.272 180.765C274.272 180.765 274.296 180.746 274.3 180.744C274.57 180.937 274.864 181.147 274.864 181.147C274.864 181.147 274.932 181.197 274.969 181.225C275.168 186.846 276.323 193.987 280.616 197.051C282.553 198.433 284.274 198.896 285.792 199.306C287.089 199.656 288.225 199.988 289.29 200.822C289.261 201.149 289.242 201.406 289.196 201.94C287.4 201.422 286.75 201.44 286.154 201.475C285.668 201.504 285.208 201.53 283.651 201.088L278.705 199.679L284.083 203.378C285.738 204.496 286.243 204.925 286.507 206.737C286.005 207.002 285.575 207.325 285.247 207.639C285.247 207.639 285.149 207.721 285.089 207.772C284.698 207.453 284.285 207.151 283.839 206.853C282.663 206.061 281.328 205.167 280.247 203.369L278.258 200.064L278.9 205.791C279.056 207.128 279.181 208.408 279.234 209.687C278.726 209.655 278.231 209.666 277.75 209.717C276.893 207.852 275.25 204.23 275.25 202.458V201.615H274.405C273.493 201.615 273.058 201.179 272.366 200.403C271.737 199.7 270.953 198.822 269.544 198.582C268.876 198.467 268.177 198.621 267.437 198.786C266.993 198.884 266.555 198.95 266.129 198.983C266.12 198.435 266.109 197.833 266.109 197.833C266.109 197.833 266.115 197.645 266.12 197.473C267.327 196.997 268.186 196.359 269.064 195.673C269.932 195.001 270.83 194.303 272.24 193.64L272.522 193.506L272.65 193.224C273.074 192.289 273.237 191.268 273.237 190.173C273.237 188.487 272.848 186.617 272.426 184.578C272.426 184.578 272.197 183.443 272.112 183.023C272.621 182.059 273.319 181.497 274.272 180.765Z" fill="black"/>
<path fill-rule="evenodd" clip-rule="evenodd" d="M287.866 212.275C288.489 211.332 288.89 208.537 287.731 206.956C287.013 207.243 285.682 208.235 285.098 208.899C285.967 209.749 287.19 211.022 287.866 212.275Z" fill="#FDB913"/>
<path fill-rule="evenodd" clip-rule="evenodd" d="M287.417 206.171C286.509 206.537 285.085 207.637 284.464 208.342L283.937 208.942L284.509 209.499C284.982 209.962 286.422 211.371 287.123 212.672L287.79 213.911L288.567 212.738C289.409 211.467 289.774 208.314 288.409 206.454L288.023 205.928L287.417 206.171ZM287.352 208.131C287.522 208.596 287.627 209.096 287.627 209.607C287.627 209.866 287.577 210.09 287.547 210.333C287.137 209.82 286.709 209.339 286.299 208.917C286.629 208.637 287.006 208.358 287.352 208.131Z" fill="black"/>
<path fill-rule="evenodd" clip-rule="evenodd" d="M293.665 205.646C293.799 204.111 292.653 201.168 290.41 200.336C290.374 201.241 290.298 202.091 290.016 203C291.27 203.511 292.706 204.911 293.665 205.646Z" fill="#FDB913"/>
<path fill-rule="evenodd" clip-rule="evenodd" d="M289.568 200.302C289.533 201.191 289.458 201.949 289.212 202.749L288.983 203.488L289.696 203.781C290.497 204.107 291.48 204.932 292.27 205.596L294.383 207.323L294.5 205.72C294.671 203.795 293.306 200.515 290.702 199.546L289.611 199.14L289.568 200.302ZM291.135 201.793C291.654 202.261 292.037 202.851 292.319 203.475C291.876 203.127 291.427 202.849 290.963 202.588C291.024 202.322 291.1 202.048 291.135 201.793Z" fill="black"/>
<path fill-rule="evenodd" clip-rule="evenodd" d="M278.011 214.857C279.43 214.223 280.911 212.452 280.206 210.276C279.304 210.108 278.098 210.003 277.196 210.337C277.604 211.843 278.176 213.576 278.011 214.857Z" fill="#FDB913"/>
<path fill-rule="evenodd" clip-rule="evenodd" d="M276.903 209.545L276.176 209.813L276.564 211.21C276.907 212.433 277.296 213.819 277.177 214.749L276.987 216.236L278.357 215.624C280.249 214.777 281.823 212.525 281.01 210.015L280.854 209.536L280.361 209.446C279.393 209.268 278.006 209.139 276.903 209.545ZM279.488 211.048C279.503 211.158 279.541 211.275 279.541 211.382C279.541 212.145 279.189 212.779 278.746 213.265C278.632 212.527 278.465 211.776 278.254 211.016C278.62 210.983 279.024 210.991 279.488 211.048Z" fill="black"/>
<path fill-rule="evenodd" clip-rule="evenodd" d="M261.633 201.493C261.498 199.601 263.475 197.072 265.356 197.095C265.19 198.036 265.298 198.884 265.317 199.768C263.859 200.133 262.657 200.902 261.633 201.493Z" fill="#FDB913"/>
<path fill-rule="evenodd" clip-rule="evenodd" d="M262.366 197.725C261.307 198.847 260.703 200.313 260.79 201.552L260.886 202.902L262.43 202.002C263.332 201.475 264.352 200.877 265.52 200.586L266.184 200.421L266.134 199.097C266.104 198.463 266.077 197.865 266.186 197.242L266.36 196.266L265.366 196.254C264.34 196.24 263.275 196.763 262.366 197.725ZM263.591 198.882C263.854 198.602 264.141 198.385 264.423 198.226C264.423 198.233 264.421 198.24 264.421 198.247C264.421 198.563 264.436 198.872 264.452 199.173V199.196C263.935 199.374 263.433 199.55 262.984 199.779C263.16 199.468 263.337 199.152 263.591 198.882Z" fill="black"/>
<path fill-rule="evenodd" clip-rule="evenodd" d="M274.47 190.649L272.316 190.677L272.305 192.362L274.509 192.331L277.374 192.31L277.42 190.628L274.47 190.649Z" fill="black"/>
<path fill-rule="evenodd" clip-rule="evenodd" d="M272.621 188.283L272.673 189.968L276.877 189.843L276.826 188.161L272.621 188.283Z" fill="black"/>
<path fill-rule="evenodd" clip-rule="evenodd" d="M271.581 185.978L272.239 187.417C272.558 187.392 275.553 187.178 276.27 187.188L276.298 185.506C276.254 185.504 272.088 185.479 271.581 185.978Z" fill="black"/>
<path fill-rule="evenodd" clip-rule="evenodd" d="M283.717 198.282C284.975 198.556 286.47 198.84 287.694 199.085C286.83 199.97 286.86 198.959 286.757 200.62C285.879 200.87 286.001 200.281 285.121 200.281L283.515 199.786C283.515 199.654 283.682 199.101 283.717 198.282ZM283.497 202.017C284.665 202.964 286.587 204.751 287.062 206.111C285.969 206.099 284.988 205.756 284.216 206.143C284.438 203.758 282.732 204.095 283.497 202.017ZM278.906 205.543C279.179 206.512 279.525 207.41 279.727 208.372L278.142 207.696C278.018 207.194 277.34 205.497 276.712 205.497C277.005 205.208 277.915 205.428 278.906 205.543ZM266.78 196.417C268.812 195.954 269.054 194.843 271.505 193.609C271.208 196.192 269.946 198.039 266.935 198.039C266.826 197.604 266.787 197.031 266.78 196.417Z" fill="black"/>
<path fill-rule="evenodd" clip-rule="evenodd" d="M250.782 227.989L251.348 228.028C252.001 228.072 252.436 228.172 252.653 228.324C252.869 228.477 252.965 228.72 252.942 229.057C252.921 229.377 252.784 229.595 252.534 229.708C252.282 229.822 251.833 229.856 251.183 229.811L250.658 229.774L250.782 227.989ZM250.569 235.084C251.671 235.161 252.466 235.184 252.956 235.15C253.444 235.118 253.861 235.033 254.202 234.891C254.623 234.726 254.953 234.472 255.196 234.128C255.439 233.787 255.576 233.382 255.61 232.914C255.656 232.257 255.498 231.719 255.137 231.3C254.777 230.883 254.255 230.626 253.572 230.528C254.195 230.42 254.655 230.23 254.955 229.953C255.255 229.677 255.423 229.286 255.459 228.782C255.487 228.384 255.418 228.028 255.251 227.712C255.086 227.396 254.83 227.135 254.486 226.929C254.184 226.752 253.819 226.617 253.388 226.523C252.958 226.429 252.198 226.342 251.105 226.265L248.45 226.081L247.834 234.889L250.569 235.084ZM250.548 231.352L251.508 231.419C252.154 231.466 252.591 231.568 252.818 231.732C253.047 231.893 253.148 232.161 253.121 232.534C253.098 232.868 252.951 233.095 252.679 233.221C252.408 233.347 251.959 233.388 251.332 233.343L250.409 233.279L250.548 231.352Z" fill="black"/>
</svg>
