<svg width="512" height="512" viewBox="0 0 512 512" fill="none" xmlns="http://www.w3.org/2000/svg">
<rect width="512" height="512" fill="#007042"/>
<path d="M430.527 256.624C430.527 353.675 352.253 432.349 255.7 432.349C159.145 432.349 80.8711 353.676 80.8711 256.624C80.8711 159.574 159.145 80.8983 255.7 80.8983C352.255 80.8983 430.527 159.574 430.527 256.624Z" fill="white"/>
<path d="M254.975 139.278C261.387 142.973 268.188 147.73 273.366 152.77L271.332 154.814C261.115 153.728 250.355 155.083 240.67 155.233C239.59 154.143 237.414 152.504 239.44 151.135L254.975 139.278ZM435.624 266.188C435.76 270.8 436.194 274.76 434.395 279.48C415.73 284.788 403.47 265.026 385.36 268.007L387.407 278.25C404.162 278.801 414.627 294.867 431.936 294.177C429.477 299.089 433.033 312.029 422.138 306.856C410.829 304.139 402.653 294.177 390.26 294.177C388.765 296.922 389.712 300.723 389.45 303.971C402.523 306.022 411.925 317.071 424.995 319.111C423.766 323.603 422.547 328.632 418.866 331.372C408.233 328.784 399.928 319.235 388.608 319.508L386.593 328.914C397.351 329.191 404.301 338.708 413.969 341.565C414.235 345.533 410.689 349.078 408.646 352.619C400.063 350.042 393.518 342.668 383.711 343.212C383.575 339.518 385.769 335.322 384.941 331.372C373.927 334.647 366.542 324.414 358.379 318.275C358.144 298.186 336.995 285.007 335.879 266.188C335.664 262.436 336.236 258.43 337.946 254.126C344.896 238.055 342.713 217.189 335.091 202.206C332.775 198.263 328.672 195.15 324.848 192.832C330.443 204.689 337.261 218.699 333.858 233.274C333.464 244.529 326.823 255.338 326.747 266.188C326.721 270.056 327.547 273.925 329.772 277.831C338.633 293.79 354.574 308.896 348.58 328.91C346.931 335.058 342.023 339.811 340.799 346.068C351.165 354.653 360.966 364.327 374.721 364.872C379.621 361.742 376.899 347.862 386.981 354.264L401.701 361.627C400.629 365.568 397.33 369.099 394.342 371.813C388.757 369.095 383.308 365.836 376.344 366.102C374.291 368.28 372.524 370.726 372.68 373.852C377.581 374.659 382.077 376.727 386.17 379.593C384.27 383.686 380.565 386.252 377.16 389.387L365.741 385.304C363.834 388.032 359.874 390.899 361.264 393.893C363.84 394.997 366.698 396.488 368.595 398.4C363.555 403.848 357.166 407.352 351.019 411.051C345.724 393.744 328.278 381.61 329.775 361.595L328.965 360.786C324.864 365.396 326.234 372.769 326.498 378.753C331.406 391.289 343.113 400.971 344.889 414.718C342.839 418.256 338.217 418.961 334.672 420.459C335.084 395.674 297.488 376.875 321.598 351.805C329.638 339.529 343.11 327.813 338.336 310.912C333.436 294.593 316.102 284.482 316.255 266.188L316.282 264.761C320.23 245.684 332.223 225.384 322.412 205.09C319.678 196.927 313.568 187.65 305.258 184.239C317.647 198.419 322.559 221.556 315.471 240.637C311.899 248.227 306.981 257.27 306.488 266.192H306.458C306.195 270.851 307.147 275.485 310.153 279.879C319.56 295.142 335.898 311.907 326.5 331.798C315.875 347.73 297.349 363.935 307.695 384.92C315.187 397.452 326.776 409.957 323.65 425.363L311.39 429.446C319.564 400.71 279.508 383.826 296.276 355.081C306.629 339.688 325.144 325.245 314.663 304.816C308.397 292.157 295.449 284.666 295.858 268.847L296.304 266.191C300.523 243.755 317.577 222.519 305.653 198.544C302.519 191.465 296.256 184.247 289.306 180.157L288.886 180.577C302.788 194.064 307.018 216.253 299.522 234.09C296.025 244.555 288.349 254.98 286.789 266.194C286.047 271.482 286.673 276.962 289.728 282.734C298.582 296.754 314.108 311.627 304.419 329.753C294.216 344.724 277.183 359.292 283.986 378.761C291.481 395.795 307.129 412.022 298.68 433.143L286.029 436C296.106 415.416 280.996 394.992 272.145 377.14C261.377 351.528 295.279 339.264 295.823 315.848C295.694 300.734 279.627 292.153 276.231 278.259C269.277 272.392 262.069 280.591 253.755 279.069C247.618 280.302 238.191 270.621 234.527 281.116C230.164 296.501 210.287 307.812 219.023 326.061C227.335 342.278 247.34 354.136 240.657 375.123C234.674 394.726 214.91 413.391 227.168 436C222.132 434.369 212.729 437.492 212.865 429.447C205.103 402.067 238.201 386.116 227.978 358.751C223.221 341.989 201.545 332.729 206.317 312.569C209.845 295.973 228.467 284.372 225.855 266.193C225.643 264.671 225.268 263.113 224.733 261.489C217.783 241.873 203.602 222.252 212.054 199.357C214.375 192.818 219.01 187.234 223.082 181.389C209.595 188.607 202.791 203.869 203.071 219.395C202.483 236.279 214.955 250.743 216.729 266.193C217.427 272.428 216.406 278.813 212.054 285.586C203.207 297.592 191.636 310.25 196.94 326.058C201.984 342.003 221.871 351.663 220.646 370.197C220.511 392.12 195.036 405.77 202.256 430.289L189.577 426.175C184.543 404.388 207.697 393.241 207.963 373.082C211.24 349.899 181.672 341.298 183.447 318.7C183.32 301.53 198.433 290.656 205.108 276.214C206.253 272.699 206.634 269.378 206.481 266.194C205.663 250.226 191.274 237.741 193.662 219.788C194.466 206.575 198.961 194.993 207.546 185.056C195.701 189.814 190.808 203.45 187.536 214.895C181.857 233.246 195.412 249.753 196.771 266.195C197.374 273.456 195.599 280.675 188.768 288.055C178.954 299.62 169.002 314.212 176.087 329.755C183.59 346.905 207.162 360.254 196.938 381.645C191.36 395.134 178.004 405.344 178.552 421.277C175.013 419.778 171.342 418.284 168.335 415.567C168.335 395.273 197.202 382.598 183.448 361.211C182.23 365.431 181.968 371.165 181.014 375.933C176.24 388.335 166.027 398.263 162.206 411.084C155.815 408.617 149.132 403.435 143.816 397.987L151.18 393.481C150.362 390.751 148.185 388.438 146.283 386.122C141.501 385.45 138.361 388.587 134.419 389.817C131.013 386.814 127.727 384.088 125.012 380.411C127.456 373.449 146.554 379.206 136.879 367.76C130.347 363.676 123.791 369.51 118.071 372.233L110.317 362.439C116.992 358.356 123.65 352.622 131.953 354.266C133.999 357.951 134.141 363.37 138.083 365.294C152.116 365.02 162.06 354.406 172.818 346.094C165.32 334.936 159.216 319.534 165.877 306.042C171.213 292.521 185.118 281.134 185.749 266.187C185.891 262.785 185.361 259.206 183.873 255.353C176.521 236.415 173.926 210.821 187.959 194.059C180.329 196.109 175.83 205.619 173.238 212.84C164.802 231.332 175.471 248.464 175.84 266.186C175.89 269.373 175.632 272.568 174.859 275.786C167.637 290.361 155.935 303.149 154.034 319.921C145.722 325.223 138.897 334.496 127.053 331.367C126.637 334.497 127.591 339.268 128.677 342.813C119.284 342.419 112.88 349.341 104.972 352.611C100.759 351.259 99.6633 345.813 98.0321 342.002C107.289 338.876 113.966 329.596 124.594 329.743C125.826 326.32 123.904 323.184 123.361 319.918C110.141 314.05 89.1846 348.926 87.4225 318.689C100.633 317.871 109.075 305.608 122.159 304.386L122.549 294.592C107.701 293.092 98.1497 308.356 83.3079 306.851L80.0347 293.781C97.2031 294.854 107.432 279.469 123.782 278.641C125.955 275.784 126.217 271.56 126.636 267.613C108.789 265.288 96.5418 285.066 77.6002 279.06C77.6002 279.06 76.9475 270.828 76.5936 266.187H76.6193C76.4908 264.372 76.3683 263.107 76.3683 263.107C93.2588 269.661 108.099 257.529 122.549 251.267C126.224 250.167 131.955 252.074 133.603 247.991C133.46 244.857 139.175 241.193 134.418 239.006C113.293 236.14 99.2591 261.619 77.5978 250.034L75.9728 246.758C80.4792 185.193 115.201 125.671 172.818 96.3811C196.153 83.0455 225.143 76.248 254.38 76.0067C289.663 75.7141 325.315 84.9693 351.837 103.743C377.592 119.541 402.228 145.577 415.598 172.007C428.385 195.163 434.27 221.147 436.027 248.81C413.681 265.695 398.69 232.903 375.935 240.242C377.161 243.791 377.84 247.462 380.441 250.459C400.608 250.316 414.496 271.433 435.606 263.111L435.624 266.188ZM178.94 190.365C164.771 181.099 146.807 189.824 133.601 194.871C132.375 182.468 127.338 171.169 116.837 162.996C115.818 162.489 114.409 161.423 113.141 161.344C112.382 161.297 111.659 161.603 111.098 162.574C115.858 191.857 96.8223 212.29 83.3324 234.504C87.8241 238.175 95.0405 237.626 100.489 236.547C114.789 230.829 128.411 220.875 145.439 224.287C150.474 215.705 158.935 207.393 165.872 200.582C170.11 196.914 175.933 194.585 178.94 190.365ZM222.268 208.756C221.996 210.519 222.404 213.663 225.123 212.448C229.352 206.591 236.84 211.225 241.469 211.637V209.989C238.93 206.001 233.704 203.997 228.398 204.197C227.174 204.24 225.93 204.418 224.732 204.696C222.956 205.091 221.721 206.716 222.268 208.756ZM288.88 191.207C285.076 182.758 276.357 179.339 268.445 177.297C264.567 176.819 260.542 176.496 256.55 176.458C255.802 176.451 255.055 176.441 254.31 176.458C243.143 176.683 232.474 179.55 225.955 188.742C225.02 191.336 220.906 194.981 224.726 197.306C233.309 196.758 243.103 195.681 248.824 203.047C248.824 209.592 253.05 218.3 245.97 221.434C240.103 216.002 233.155 223.746 226.771 219.386C223.769 217.613 221.87 219.683 220.641 222.27C218.866 239.158 227.709 257.796 243.508 267.192C249.911 269.502 258.519 271.699 265.201 268.422C281.275 260.937 287.933 243.783 290.926 227.979C290.524 224.972 290.668 219.111 286.448 218.969C281.683 221.982 274.733 220.202 269.683 218.969C266.698 219.933 266.561 224.301 263.163 225.128L261.092 223.476C259.319 215.996 258.225 205.366 265.179 200.19C272.95 197.056 282.077 195.687 290.114 198.146C291.614 195.56 289.298 193.524 288.88 191.207ZM280.679 204.639C280.139 204.652 279.613 204.679 279.082 204.696C276.227 206.601 267.909 205.232 270.912 211.637C276.092 207.54 283.312 210.412 288.488 212.448C290.402 211.498 289.987 209.59 290.113 207.945C288.451 204.853 284.48 204.563 280.679 204.639ZM339.989 147.043C329.906 146.507 321.463 152.231 312.198 154.821C311.391 146.937 317.38 138.611 318.747 130.697C303.767 131.661 291.902 140.677 279.509 147.88C276.641 140.95 273.765 133.985 270.916 127.03L287.263 111.496L287.682 109.45L265.602 108.22C261.798 101.556 260.299 93.5291 255.804 87.3989C252.126 94.3458 249.654 101.698 245.979 108.639L223.925 109.872V111.496L240.664 126.61C238.617 134.378 236.716 142.819 231.68 148.691C221.873 142.817 212.205 136.423 201.452 132.344C198.864 131.509 195.176 130.151 192.86 131.925C196.261 139.42 201.023 147.481 200.222 155.661C195.724 154.833 192.189 151.949 187.963 150.737C182.909 149.358 176.913 146.664 172.009 148.303C180.185 159.739 186.857 171.708 189.166 185.471C216.286 172.381 247.914 165.182 280.745 170.776C296.134 173.225 310.285 179.494 324.046 184.658C324.583 170.226 333.71 158.629 339.989 147.043ZM386.562 225.518C400.446 229.193 414.375 244.32 429.077 234.505C416.273 213.257 397.215 193.636 402.515 165.851C403.069 163.954 401.843 162.034 400.08 161.764C391.774 165.159 385.341 173.343 382.055 181.387C380.703 186.144 379.902 191.202 377.998 195.686C368.047 190.507 357.428 185.49 345.305 186.703C340.934 187.248 334.666 187.534 333.859 192.022C347.617 199.374 358.931 211.645 367.362 224.711C373.233 223.753 380.432 224.571 386.562 225.518ZM241.076 244.72L241.468 247.183C246.791 250.729 248.429 256.739 255.798 256.193C262.333 256.581 267.237 250.459 270.493 245.558C261.649 244.337 250.887 246.226 241.076 244.72ZM248.436 233.693C248.702 234.784 247.761 236.419 249.247 236.97C253.606 236.023 261.503 239.289 263.938 234.113C262.238 232.209 259.463 231.344 256.551 231.344C253.64 231.344 250.619 232.193 248.436 233.693Z" fill="#007042"/>
<path opacity="0.99" d="M241.086 228.966H270.956V241.238H241.086V228.966Z" fill="white"/>
<path d="M246.604 235.528C250.464 236.441 251.419 237.81 254.469 238.192C257.712 238.135 257.244 237.476 262.9 235.524C263.271 235.393 263.782 234.574 263.149 233.945C259.637 230.459 257.21 232.95 255.008 233.016C252.087 233.048 249.348 230.515 246.495 233.807C246.009 234.476 245.755 235.132 246.604 235.528Z" fill="#007042"/>
</svg>
