<svg viewBox="0 0 693 269" fill="none" xmlns="http://www.w3.org/2000/svg">
<path d="M134 268.1C207.9 268.1 267.8 208.2 267.8 134.3C267.8 60.4 207.9 0.5 134 0.5C60.1 0.5 0.200012 60.4 0.200012 134.3C0.200012 208.2 60.1 268.1 134 268.1Z" fill="#0098EA"/>
<path d="M179.7 75.2H88.3C71.5 75.2 60.9 93.3 69.3 108L125.7 205.8C129.4 212.2 138.6 212.2 142.3 205.8L198.7 108C207.1 93.3 196.5 75.2 179.7 75.2ZM125.6 176.4L113.3 152.6L83.7 99.6C82.3 97.1 83.2 94 85.6 92.5C86.4 92 87.3 91.8 88.2 91.8H125.5L125.6 176.4ZM184.2 99.6L154.6 152.6L142.3 176.4V91.8999H179.7C183.8 91.7999 186.2 96.2 184.2 99.6Z" fill="white"/>
<path d="M353.1 207.4H382.3V105.6H422.6V77.9H312.7V105.6H353C353.1 105.6 353.1 207.4 353.1 207.4ZM492.7 209.6C529.5 209.6 559.6 179.5 559.6 142.7C559.6 105.9 529.5 75.8 492.7 75.8C455.7 75.8 425.8 105.9 425.8 142.7C425.8 179.5 455.7 209.6 492.7 209.6ZM492.7 181.5C471.5 181.5 455 163.6 455 142.7C455 121.8 471.6 103.9 492.7 103.9C513.7 103.9 530.3 121.8 530.3 142.7C530.3 163.6 513.7 181.5 492.7 181.5ZM692.7 207.4V77.9H663.5V157.7L600.6 77.9H575.6V207.3H604.6V127.3L667.7 207.3H692.7V207.4Z" fill="black"/>
</svg>
