<svg width="512" height="140" viewBox="0 0 512 140" fill="none" xmlns="http://www.w3.org/2000/svg">
<path d="M231.13 33.51H255.54V47.18C263.54 34.89 272.74 33.51 286.21 33.51V57.67H280.08C263.94 57.67 256.21 65.27 256.21 80.31V105.99H231.14V33.51H231.13Z" fill="#0500FF"/>
<path d="M367.63 105.99H342.57V99.08C337.1 105.43 329.64 108.19 320.44 108.19C302.97 108.19 293.1 97.83 293.1 78.79V33.51H318.17V73.13C318.17 82.1 322.57 87.34 330.03 87.34C337.49 87.34 342.57 82.23 342.57 73.54V33.51H367.64L367.63 105.99Z" fill="#0500FF"/>
<path d="M373.75 83.61H397.23C398.3 88.85 401.9 91.06 410.56 91.06C417.63 91.06 421.76 89.41 421.76 86.37C421.76 84.02 419.76 82.5 414.03 81.26L395.1 76.98C382.43 74.09 376.03 66.77 376.03 55.03C376.03 39.56 387.36 31.56 409.36 31.56C431.36 31.56 442.16 39.36 444.03 56.07H420.7C420.3 51.66 415.76 48.96 408.3 48.96C402.3 48.96 398.44 50.89 398.44 53.79C398.44 56.27 400.97 58.2 406.04 59.46L425.9 64.29C438.96 67.46 445.24 74.09 445.24 84.86C445.24 99.77 432.3 108.61 410.31 108.61C388.32 108.61 373.77 99.08 373.77 83.62H373.74H373.75V83.61Z" fill="#0500FF"/>
<path d="M512 56.05V33.51H450.13V56.07H468.59V105.99H493.53V56.06H512V56.05Z" fill="#0500FF"/>
<path d="M224.15 56.05V33.51H162.29V56.07H180.75V105.99H205.69V56.06H224.15V56.05Z" fill="#0500FF"/>
<path d="M0 20.77L61.53 0.77002V139.22C17.58 120.76 0 85.38 0 65.39V20.77Z" fill="#0500FF"/>
<path d="M123.07 20.77L61.54 0.77002V139.22C105.49 120.76 123.07 85.38 123.07 65.38V20.77Z" fill="url(#paint0_linear_5_269)"/>
<path d="M123.07 20.77L61.54 0.77002V139.22C105.49 120.76 123.07 85.38 123.07 65.38V20.77Z" fill="url(#paint1_linear_5_269)"/>
<defs>
<linearGradient id="paint0_linear_5_269" x1="58.9393" y1="156.628" x2="109.307" y2="-25.5435" gradientUnits="userSpaceOnUse">
<stop offset="0.26" stop-color="#48FF91"/>
<stop offset="0.66" stop-color="#0094FF"/>
<stop offset="0.8" stop-color="#0038FF"/>
<stop offset="0.89" stop-color="#0500FF"/>
</linearGradient>
<linearGradient id="paint1_linear_5_269" x1="106.133" y1="-7.05158" x2="59.6539" y2="139.205" gradientUnits="userSpaceOnUse">
<stop offset="0.02" stop-color="#0000FF"/>
<stop offset="0.08" stop-color="#0094FF"/>
<stop offset="0.16" stop-color="#48FF91"/>
<stop offset="0.42" stop-color="#0094FF"/>
<stop offset="0.68" stop-color="#0038FF"/>
<stop offset="0.9" stop-color="#0500FF"/>
</linearGradient>
</defs>
</svg>
