<svg viewBox="0 0 512 512" fill="none" xmlns="http://www.w3.org/2000/svg">
<g clip-path="url(#clip0_29_39)">
<path d="M397.049 -0.00012207H114.951C51.4655 -0.00012207 0 51.4654 0 114.951V397.048C0 460.534 51.4655 512 114.951 512H397.049C460.535 512 512 460.534 512 397.048V114.951C512 51.4654 460.535 -0.00012207 397.049 -0.00012207Z" fill="white"/>
<path d="M363.821 94.8142C324.797 94.8142 293.089 126.567 293.089 165.648H207.724L278.455 94.8142H192.276C153.252 94.8142 121.545 126.567 121.545 165.648H120.732C81.7073 165.648 50 197.402 50 236.483H121.545V289.405C121.545 360.239 179.268 417.232 249.187 417.232H379.268V164.834L450 94L363.821 94.8142ZM289.837 282.077C279.268 271.493 279.268 254.395 289.837 243.81L328.049 282.077C317.48 292.662 300.406 292.662 289.837 282.077Z" fill="#191A34"/>
</g>
<defs>
<clipPath id="clip0_29_39">
<rect width="512" height="512" fill="white"/>
</clipPath>
</defs>
</svg>
