<svg width="512" height="512" viewBox="0 0 512 512" fill="none" xmlns="http://www.w3.org/2000/svg">
<path d="M337.241 160.809V166.421C329.839 167.736 324.235 170.062 320.432 173.399C314.982 178.354 308.557 185.938 304.342 196.151L218.582 371.191H212.876L126.781 193.876C122.771 184.775 117.32 179.213 115.675 177.191C113.105 174.056 109.943 171.604 106.19 169.834C102.438 168.065 97.3743 166.927 91 166.421V160.809H174.773V166.421C165.108 167.332 160.501 168.95 157.622 171.275C154.743 173.601 153.304 176.584 153.304 180.224C153.304 185.281 155.669 193.168 160.398 203.887L223.979 324.473L286.145 205.403C290.977 193.674 294.985 185.533 294.986 180.983C294.985 178.05 293.495 175.244 290.513 172.564C287.532 169.885 284.158 167.989 277.064 166.876C276.55 166.775 275.676 166.624 274.442 166.421V160.809H337.241Z" fill="black"/>
<path d="M411 160.809V166.421C403.597 167.736 397.994 170.062 394.19 173.399C388.741 178.354 382.316 185.938 378.101 196.151L302.836 371.191H297.13L217.594 193.876C213.585 184.775 208.133 179.213 206.488 177.191C203.918 174.056 200.757 171.604 197.004 169.834C193.251 168.065 189.852 166.927 183.478 166.421V160.809H265.586V166.421C255.922 167.332 251.314 168.95 248.436 171.275C245.557 173.601 244.118 176.584 244.118 180.224C244.118 185.281 246.482 193.168 251.212 203.887L308.233 324.473L359.903 205.403C364.735 193.674 368.744 185.533 368.744 180.983C368.744 178.05 367.253 175.244 364.272 172.564C361.29 169.885 356.253 167.989 349.159 166.876C348.644 166.775 347.771 166.624 346.537 166.421V160.809H411Z" fill="black"/>
</svg>
