<svg width="624" height="185" viewBox="0 0 624 185" fill="none" xmlns="http://www.w3.org/2000/svg">
<g clip-path="url(#clip0_2015_234)">
<path d="M187.628 0L138.28 112.257L88.9315 0H51.6152L108.287 128.144C113.402 139.783 124.795 147.988 138.28 147.988C151.765 147.988 163.215 139.783 168.272 128.144L224.944 0H187.628Z" fill="url(#paint0_linear_2015_234)"/>
<path d="M86.6644 112.141L37.3163 0H0L56.6719 128.144C61.7869 139.783 73.1794 147.988 86.6644 147.988C91.8376 147.988 96.662 146.766 100.963 144.613L86.6644 112.141Z" fill="black"/>
<path d="M463.865 50.7455H462.819C460.552 47.7776 457.82 44.9843 454.565 42.3073C446.951 36.6625 438.465 33.8691 428.99 33.8691C414.924 33.8691 403.125 39.1066 393.65 49.5816C384.118 60.1148 379.41 73.8487 379.41 90.8996C379.41 107.951 384.176 121.743 393.65 132.218C403.125 142.751 414.924 147.93 428.99 147.93C438.407 147.93 446.951 145.137 454.565 139.492C457.82 136.815 460.552 134.022 462.819 131.054H463.865V144.788H493.451V37.0116H463.865V50.7455ZM456.251 114.294C451.194 119.88 444.568 122.674 436.372 122.674C428.642 122.674 422.306 119.88 417.365 114.236C412.425 108.591 409.983 100.851 409.983 91.016C409.983 81.1812 412.425 73.3831 417.365 67.7383C422.306 62.0934 428.642 59.3001 436.372 59.3001C444.51 59.3001 451.136 62.0934 456.251 67.6801C461.308 73.2667 463.865 81.0648 463.865 91.0742C463.865 101.084 461.308 108.882 456.251 114.41V114.294Z" fill="black"/>
<path d="M316.461 33.8691C307.044 33.8691 298.5 36.6625 290.886 42.3073C287.631 44.9843 284.899 47.8358 282.632 50.7455H281.586V37.0116H252V185H281.586V131.054H282.632C284.899 134.022 287.631 136.815 290.886 139.492C298.5 145.137 306.986 147.93 316.461 147.93C330.527 147.93 342.326 142.693 351.801 132.218C361.333 121.684 366.041 107.951 366.041 90.8997C366.041 73.8487 361.275 60.0566 351.801 49.5816C342.326 39.1066 330.527 33.8691 316.461 33.8691ZM328.028 114.177C323.087 119.822 316.751 122.616 309.021 122.616C300.883 122.616 294.257 119.822 289.2 114.236C284.143 108.707 281.586 100.909 281.586 90.8997C281.586 80.8902 284.143 73.0922 289.2 67.5055C294.257 61.977 300.883 59.1255 309.021 59.1255C316.751 59.1255 323.087 61.977 328.028 67.5637C332.968 73.2086 335.409 80.9484 335.409 90.8415C335.409 100.735 332.968 108.474 328.028 114.061V114.177Z" fill="black"/>
<path d="M593.543 37.0117L570.293 119.473H561.865L540.707 37.0117H510.133L538.615 144.846H561.865L550.24 185H580.872L624.117 37.0117H593.543Z" fill="black"/>
</g>
<defs>
<linearGradient id="paint0_linear_2015_234" x1="127.5" y1="115" x2="216.5" y2="10.5" gradientUnits="userSpaceOnUse">
<stop stop-color="#2C3CFF"/>
<stop offset="0.545" stop-color="#A077B6"/>
<stop offset="1" stop-color="#F78D6E"/>
</linearGradient>
<clipPath id="clip0_2015_234">
<rect width="624" height="185" fill="white"/>
</clipPath>
</defs>
</svg>
