<svg width="793" height="185" viewBox="0 0 793 185" fill="none" xmlns="http://www.w3.org/2000/svg">
<g clip-path="url(#clip0_2015_233)">
<path d="M187.628 0L138.28 112.257L88.9315 0H51.6152L108.287 128.144C113.402 139.783 124.795 147.988 138.28 147.988C151.765 147.988 163.215 139.783 168.272 128.144L224.944 0H187.628Z" fill="url(#paint0_linear_2015_233)"/>
<path d="M86.6644 112.141L37.3163 0H0L56.6719 128.144C61.7869 139.783 73.1794 147.988 86.6644 147.988C91.8376 147.988 96.662 146.766 100.963 144.613L86.6644 112.141Z" fill="black"/>
<path d="M281.732 37.0117H252.146V144.846H281.732V37.0117Z" fill="black"/>
<path d="M355.609 119.473H343.984L323.931 37.0117H293.299L314.631 117.786C318.874 133.731 333.289 144.846 349.796 144.846C366.304 144.846 380.719 133.731 384.962 117.786L406.294 37.0117H375.662L355.609 119.473Z" fill="black"/>
<path d="M632.749 50.7455H631.703C629.436 47.7776 626.704 44.9843 623.449 42.3073C615.835 36.6625 607.349 33.8691 597.874 33.8691C583.808 33.8691 572.008 39.1066 562.534 49.5816C553.002 60.1148 548.293 73.8487 548.293 90.8996C548.293 107.951 553.06 121.743 562.534 132.218C572.008 142.751 583.808 147.93 597.874 147.93C607.29 147.93 615.835 145.137 623.449 139.492C626.704 136.815 629.436 134.022 631.703 131.054H632.749V144.788H662.335V37.0116H632.749V50.7455ZM625.135 114.294C620.078 119.88 613.452 122.674 605.256 122.674C597.525 122.674 591.19 119.88 586.249 114.236C581.308 108.591 578.867 100.851 578.867 91.016C578.867 81.1812 581.308 73.3831 586.249 67.7383C591.19 62.0934 597.525 59.3001 605.256 59.3001C613.393 59.3001 620.02 62.0934 625.135 67.6801C630.192 73.2667 632.749 81.0648 632.749 91.0742C632.749 101.084 630.192 108.882 625.135 114.41V114.294Z" fill="black"/>
<path d="M485.344 33.8691C475.928 33.8691 467.384 36.6625 459.769 42.3073C456.514 44.9843 453.783 47.8358 451.516 50.7455H450.469V37.0116H420.884V185H450.469V131.054H451.516C453.783 134.022 456.514 136.815 459.769 139.492C467.384 145.137 475.87 147.93 485.344 147.93C499.411 147.93 511.21 142.693 520.684 132.218C530.217 121.684 534.925 107.951 534.925 90.8997C534.925 73.8487 530.159 60.0566 520.684 49.5816C511.21 39.1066 499.411 33.8691 485.344 33.8691ZM496.911 114.177C491.971 119.822 485.635 122.616 477.904 122.616C469.767 122.616 463.141 119.822 458.084 114.236C453.027 108.707 450.469 100.909 450.469 90.8997C450.469 80.8902 453.027 73.0922 458.084 67.5055C463.141 61.977 469.767 59.1255 477.904 59.1255C485.635 59.1255 491.971 61.977 496.911 67.5637C501.852 73.2086 504.293 80.9484 504.293 90.8415C504.293 100.735 501.852 108.474 496.911 114.061V114.177Z" fill="black"/>
<path d="M762.427 37.0117L739.177 119.473H730.748L709.591 37.0117H679.017L707.498 144.846H730.748L719.123 185H749.755L793 37.0117H762.427Z" fill="black"/>
</g>
<defs>
<linearGradient id="paint0_linear_2015_233" x1="127.5" y1="115" x2="216.5" y2="10.5" gradientUnits="userSpaceOnUse">
<stop stop-color="#2C3CFF"/>
<stop offset="0.545" stop-color="#A077B6"/>
<stop offset="1" stop-color="#F78D6E"/>
</linearGradient>
<clipPath id="clip0_2015_233">
<rect width="793" height="185" fill="white"/>
</clipPath>
</defs>
</svg>
